courier-code_bold-italic.sfdir
StartChar: exclam
Encoding: 33 33 4
Width: 602
Flags: W
LayerCount: 2
Back
Fore
SplineSet
234 215 m 2,0,-1
 279 519 l 2,1,2
 291 595 291 595 356 595 c 0,3,4
 381 595 381 595 394.5 582.5 c 128,-1,5
 408 570 408 570 408 549 c 0,6,7
 408 539 408 539 401 514 c 2,8,-1
 325 214 l 2,9,10
 318 186 318 186 308 175 c 128,-1,11
 298 164 298 164 275 164 c 0,12,13
 233 164 233 164 233 200 c 0,14,15
 233 210 233 210 234 215 c 2,0,-1
171 56 m 0,16,17
 171 86 171 86 192 106 c 128,-1,18
 213 126 213 126 248 126 c 0,19,20
 284 126 284 126 305 106.5 c 128,-1,21
 326 87 326 87 326 56 c 128,-1,22
 326 25 326 25 304.5 6 c 128,-1,23
 283 -13 283 -13 248 -13 c 0,24,25
 214 -13 214 -13 192.5 6 c 128,-1,26
 171 25 171 25 171 56 c 0,16,17
EndSplineSet
EndChar
StartChar: quotedbl
Encoding: 34 34 5
Width: 602
Flags: W
LayerCount: 2
Back
Fore
SplineSet
212 324 m 2,0,1
 198 324 198 324 193 331 c 128,-1,2
 188 338 188 338 186 356 c 2,3,-1
 170 547 l 1,4,-1
 170 553 l 2,5,6
 170 579 170 579 194 579 c 2,7,-1
 262 579 l 2,8,9
 287 579 287 579 287 553 c 2,10,11
 287 553 287 553 287 547 c 2,12,-1
 270 356 l 2,13,14
 268 338 268 338 263 331 c 128,-1,15
 258 324 258 324 244 324 c 2,16,-1
 212 324 l 2,0,1
406 324 m 2,17,18
 392 324 392 324 386.5 331.5 c 128,-1,19
 381 339 381 339 379 356 c 2,20,-1
 363 547 l 1,21,-1
 363 553 l 2,22,23
 363 579 363 579 387 579 c 2,24,-1
 456 579 l 2,25,26
 480 579 480 579 480 553 c 2,27,-1
 480 547 l 1,28,-1
 464 356 l 2,29,30
 462 339 462 339 456.5 331.5 c 128,-1,31
 451 324 451 324 437 324 c 2,32,-1
 406 324 l 2,17,18
EndSplineSet
EndChar
StartChar: numbersign
Encoding: 35 35 6
Width: 602
Flags: W
LayerCount: 2
Back
Fore
SplineSet
207 641 m 2,0,1
 209 683 209 683 248 683 c 0,2,3
 290 683 290 683 290 642 c 2,4,5
 290 642 290 642 290 637 c 2,6,-1
 279 437 l 1,7,-1
 339 437 l 1,8,-1
 350 641 l 2,9,10
 352 683 352 683 391 683 c 0,11,12
 433 683 433 683 433 642 c 2,13,14
 433 642 433 642 433 637 c 2,15,-1
 422 437 l 1,16,-1
 470 437 l 2,17,18
 502 437 502 437 502 400 c 128,-1,19
 502 363 502 363 470 363 c 2,20,-1
 418 363 l 1,21,-1
 411 251 l 1,22,-1
 470 251 l 2,23,24
 502 251 502 251 502 214 c 128,-1,25
 502 177 502 177 470 177 c 2,26,-1
 407 177 l 1,27,-1
 397 -16 l 2,28,29
 395 -58 395 -58 356 -58 c 0,30,31
 337 -58 337 -58 325.5 -46.5 c 128,-1,32
 314 -35 314 -35 314 -15 c 2,33,-1
 314 -11 l 1,34,-1
 325 177 l 1,35,-1
 264 177 l 1,36,-1
 254 -16 l 2,37,38
 252 -58 252 -58 213 -58 c 0,39,40
 194 -58 194 -58 183 -46 c 128,-1,41
 172 -34 172 -34 172 -14 c 2,42,-1
 172 -11 l 1,43,-1
 181 178 l 1,44,-1
 131 178 l 2,45,46
 99 178 99 178 99 215 c 0,47,48
 99 251 99 251 131 251 c 2,49,-1
 185 251 l 1,50,-1
 191 363 l 1,51,-1
 131 363 l 2,52,53
 99 363 99 363 99 400 c 128,-1,54
 99 437 99 437 131 437 c 2,55,-1
 196 437 l 1,56,-1
 207 641 l 2,0,1
269 251 m 1,57,-1
 329 251 l 1,58,-1
 335 363 l 1,59,-1
 274 363 l 1,60,-1
 269 251 l 1,57,-1
EndSplineSet
EndChar
StartChar: dollar
Encoding: 36 36 7
Width: 602
Flags: W
LayerCount: 2
Back
Fore
SplineSet
203 34 m 1,0,1
 164 40 164 40 137 64 c 1,2,3
 119 41 119 41 98 41 c 0,4,5
 82 41 82 41 72 51 c 128,-1,6
 62 61 62 61 62 78 c 0,7,8
 62 82 62 82 64 92 c 2,9,-1
 83 179 l 2,10,11
 92 221 92 221 130 221 c 0,12,13
 140 221 140 221 147 219 c 128,-1,14
 154 217 154 217 158.5 211.5 c 128,-1,15
 163 206 163 206 165 202 c 128,-1,16
 167 198 167 198 171 187.5 c 128,-1,17
 175 177 175 177 177 172 c 0,18,19
 189 145 189 145 212.5 134 c 128,-1,20
 236 123 236 123 278 123 c 0,21,22
 322 123 322 123 347.5 145 c 128,-1,23
 373 167 373 167 373 200 c 0,24,25
 373 232 373 232 325 255 c 2,26,-1
 222 301 l 2,27,28
 142 337 142 337 142 420 c 0,29,30
 142 497 142 497 196 546 c 128,-1,31
 250 595 250 595 339 595 c 2,32,-1
 344 595 l 1,33,-1
 357 636 l 2,34,35
 369 672 369 672 404 672 c 0,36,37
 443 672 443 672 443 651 c 0,38,39
 443 639 443 639 440 631 c 2,40,-1
 427 593 l 1,41,42
 460 584 460 584 485 571 c 1,43,44
 501 587 501 587 522 587 c 0,45,46
 559 587 559 587 559 563 c 0,47,48
 559 558 559 558 558 556 c 2,49,-1
 543 473 l 2,50,51
 538 448 538 448 530.5 438.5 c 128,-1,52
 523 429 523 429 503 429 c 128,-1,53
 483 429 483 429 475 434.5 c 128,-1,54
 467 440 467 440 459 456 c 128,-1,55
 451 472 451 472 445 480 c 0,56,57
 418 515 418 515 356 515 c 0,58,59
 317 515 317 515 293 493.5 c 128,-1,60
 269 472 269 472 269 441 c 0,61,62
 269 405 269 405 306 390 c 2,63,-1
 403 348 l 2,64,65
 447 329 447 329 472 294.5 c 128,-1,66
 497 260 497 260 497 218 c 0,67,68
 497 137 497 137 440.5 85 c 128,-1,69
 384 33 384 33 285 29 c 1,70,-1
 257 -80 l 2,71,72
 246 -123 246 -123 207 -123 c 0,73,74
 169 -123 169 -123 169 -95 c 0,75,76
 169 -91 169 -91 171 -83 c 2,77,-1
 203 34 l 1,0,1
EndSplineSet
EndChar
StartChar: percent
Encoding: 37 37 8
Width: 602
Flags: W
LayerCount: 2
Back
Fore
SplineSet
124 272 m 2,0,-1
 451 402 l 2,1,2
 459 405 459 405 465 405 c 0,3,4
 478 405 478 405 486.5 395.5 c 128,-1,5
 495 386 495 386 495 372 c 0,6,7
 495 353 495 353 475 345 c 2,8,-1
 147 214 l 2,9,10
 140 211 140 211 133 211 c 0,11,12
 120 211 120 211 112 221 c 128,-1,13
 104 231 104 231 104 246 c 0,14,15
 104 264 104 264 124 272 c 2,0,-1
213 117 m 128,-1,17
 213 174 213 174 253.5 212 c 128,-1,18
 294 250 294 250 357 250 c 0,19,20
 419 250 419 250 459.5 212 c 128,-1,21
 500 174 500 174 500 117 c 128,-1,22
 500 60 500 60 460 22 c 128,-1,23
 420 -16 420 -16 357 -16 c 128,-1,24
 294 -16 294 -16 253.5 22 c 128,-1,16
 213 60 213 60 213 117 c 128,-1,17
423 117 m 128,-1,26
 423 143 423 143 405 159.5 c 128,-1,27
 387 176 387 176 357 176 c 128,-1,28
 327 176 327 176 309 159.5 c 128,-1,29
 291 143 291 143 291 117 c 128,-1,30
 291 91 291 91 309 74.5 c 128,-1,31
 327 58 327 58 357 58 c 128,-1,32
 387 58 387 58 405 74.5 c 128,-1,25
 423 91 423 91 423 117 c 128,-1,26
310 499 m 128,-1,34
 310 525 310 525 292 542 c 128,-1,35
 274 559 274 559 245 559 c 0,36,37
 215 559 215 559 197 542 c 128,-1,38
 179 525 179 525 179 499 c 128,-1,39
 179 473 179 473 197 456.5 c 128,-1,40
 215 440 215 440 245 440 c 128,-1,41
 275 440 275 440 292.5 456.5 c 128,-1,33
 310 473 310 473 310 499 c 128,-1,34
101 499 m 128,-1,43
 101 556 101 556 141.5 594 c 128,-1,44
 182 632 182 632 244 632 c 128,-1,45
 306 632 306 632 346.5 594 c 128,-1,46
 387 556 387 556 387 499 c 128,-1,47
 387 442 387 442 347 404 c 128,-1,48
 307 366 307 366 244 366 c 0,49,50
 182 366 182 366 141.5 404 c 128,-1,42
 101 442 101 442 101 499 c 128,-1,43
EndSplineSet
EndChar
StartChar: ampersand
Encoding: 38 38 9
Width: 602
Flags: W
LayerCount: 2
Back
Fore
SplineSet
326 39 m 1,0,1
 246 -14 246 -14 175 -14 c 0,2,3
 114 -14 114 -14 76.5 21.5 c 128,-1,4
 39 57 39 57 39 114 c 0,5,6
 39 227 39 227 181 313 c 1,7,-1
 173 335 l 2,8,9
 158 376 158 376 158 408 c 0,10,11
 158 474 158 474 206 518 c 128,-1,12
 254 562 254 562 331 562 c 0,13,14
 387 562 387 562 425 531 c 0,15,16
 426 531 426 531 433.5 532.5 c 128,-1,17
 441 534 441 534 445 534 c 0,18,19
 476 534 476 534 476 502 c 0,20,21
 476 476 476 476 453 451 c 128,-1,22
 430 426 430 426 408 426 c 0,23,24
 392 426 392 426 366 444.5 c 128,-1,25
 340 463 340 463 324 463 c 0,26,27
 304 463 304 463 290.5 450 c 128,-1,28
 277 437 277 437 277 417 c 0,29,30
 277 398 277 398 289 375 c 2,31,-1
 375 209 l 1,32,33
 386 228 386 228 399 259 c 128,-1,34
 412 290 412 290 421.5 300.5 c 128,-1,35
 431 311 431 311 448 311 c 2,36,-1
 503 311 l 2,37,38
 537 311 537 311 537 274 c 0,39,40
 537 246 537 246 521.5 235 c 128,-1,41
 506 224 506 224 470 223 c 1,42,43
 452 167 452 167 418 125 c 1,44,-1
 439 88 l 1,45,-1
 449 88 l 2,46,47
 464 88 464 88 473.5 78.5 c 128,-1,48
 483 69 483 69 483 52 c 0,49,50
 483 0 483 0 424 0 c 2,51,-1
 369 0 l 2,52,53
 358 0 358 0 353 0.5 c 128,-1,54
 348 1 348 1 343.5 4.5 c 128,-1,55
 339 8 339 8 336 16 c 2,56,-1
 326 39 l 1,0,1
294 118 m 1,57,-1
 228 238 l 1,58,59
 159 200 159 200 159 148 c 0,60,61
 159 122 159 122 176 104.5 c 128,-1,62
 193 87 193 87 219 87 c 0,63,64
 243 87 243 87 294 118 c 1,57,-1
EndSplineSet
EndChar
StartChar: quotesingle
Encoding: 39 39 106
Width: 602
Flags: W
LayerCount: 2
Back
Fore
SplineSet
285 324 m 2,0,1
 271 324 271 324 265.5 331.5 c 128,-1,2
 260 339 260 339 258 356 c 2,3,-1
 243 547 l 1,4,-1
 243 554 l 2,5,6
 243 579 243 579 266 579 c 2,7,-1
 335 579 l 2,8,9
 359 579 359 579 359 553 c 2,10,11
 359 553 359 553 359 547 c 2,12,-1
 343 356 l 2,13,14
 341 338 341 338 336 331 c 128,-1,15
 331 324 331 324 317 324 c 2,16,-1
 285 324 l 2,0,1
EndSplineSet
EndChar
StartChar: parenleft
Encoding: 40 40 11
Width: 602
Flags: W
LayerCount: 2
Back
Fore
SplineSet
182 92 m 0,0,1
 182 294 182 294 332 465 c 0,2,3
 387 528 387 528 432 561.5 c 128,-1,4
 477 595 477 595 499 595 c 0,5,6
 509 595 509 595 516.5 589.5 c 128,-1,7
 524 584 524 584 524 577 c 0,8,9
 524 565 524 565 505.5 541 c 128,-1,10
 487 517 487 517 453 473.5 c 128,-1,11
 419 430 419 430 394 387 c 0,12,13
 304 233 304 233 304 78 c 0,14,15
 304 10 304 10 332 -70.5 c 128,-1,16
 360 -151 360 -151 360 -167 c 0,17,18
 360 -194 360 -194 331 -194 c 0,19,20
 288 -194 288 -194 235 -111 c 128,-1,21
 182 -28 182 -28 182 92 c 0,0,1
EndSplineSet
EndChar
StartChar: parenright
Encoding: 41 41 12
Width: 602
Flags: W
LayerCount: 2
Back
Fore
SplineSet
417 309 m 0,0,1
 417 107 417 107 267 -64 c 0,2,3
 211 -127 211 -127 166 -161 c 128,-1,4
 121 -195 121 -195 100 -195 c 0,5,6
 90 -195 90 -195 82.5 -189 c 128,-1,7
 75 -183 75 -183 75 -176 c 0,8,9
 75 -164 75 -164 94 -140 c 128,-1,10
 113 -116 113 -116 147 -72.5 c 128,-1,11
 181 -29 181 -29 206 14 c 0,12,13
 295 167 295 167 295 323 c 0,14,15
 295 391 295 391 267 471.5 c 128,-1,16
 239 552 239 552 239 568 c 0,17,18
 239 595 239 595 268 595 c 0,19,20
 311 595 311 595 364 512 c 128,-1,21
 417 429 417 429 417 309 c 0,0,1
EndSplineSet
EndChar
StartChar: asterisk
Encoding: 42 42 13
Width: 602
Flags: W
LayerCount: 2
Back
Fore
SplineSet
456 516 m 2,0,1
 464 519 464 519 468 519 c 0,2,3
 477 519 477 519 483 499 c 2,4,-1
 496 458 l 2,5,6
 500 446 500 446 500 441 c 0,7,8
 500 432 500 432 484 429 c 2,9,-1
 353 401 l 1,10,-1
 443 300 l 2,11,12
 450 293 450 293 450 285 c 0,13,14
 450 280 450 280 434 269 c 2,15,-1
 400 244 l 2,16,17
 388 235 388 235 382 235 c 0,18,19
 375 235 375 235 369 246 c 2,20,-1
 301 362 l 1,21,-1
 233 247 l 2,22,23
 226 235 226 235 219 235 c 0,24,25
 214 235 214 235 201 245 c 2,26,-1
 167 270 l 2,27,28
 152 280 152 280 152 286 c 0,29,30
 152 293 152 293 159 300 c 2,31,-1
 250 400 l 1,32,-1
 118 429 l 2,33,34
 102 432 102 432 102 440 c 0,35,36
 102 446 102 446 106 459 c 2,37,-1
 120 499 l 2,38,39
 127 519 127 519 134 519 c 0,40,41
 138 519 138 519 146 516 c 2,42,-1
 268 460 l 1,43,-1
 254 596 l 1,44,45
 254 596 254 596 254 601 c 0,46,47
 254 610 254 610 259.5 613 c 128,-1,48
 265 616 265 616 279 616 c 2,49,-1
 322 616 l 2,50,51
 336 616 336 616 341 613.5 c 128,-1,52
 346 611 346 611 346 602 c 2,53,-1
 346 596 l 1,54,-1
 333 462 l 1,55,-1
 456 516 l 2,0,1
EndSplineSet
EndChar
StartChar: plus
Encoding: 43 43 14
Width: 602
Flags: W
LayerCount: 2
Back
Fore
SplineSet
351 97 m 2,0,1
 351 73 351 73 337 58 c 128,-1,2
 323 43 323 43 301 43 c 0,3,4
 278 43 278 43 264 58 c 128,-1,5
 250 73 250 73 250 97 c 2,6,-1
 250 257 l 1,7,-1
 90 257 l 2,8,9
 66 257 66 257 51 271 c 128,-1,10
 36 285 36 285 36 308 c 128,-1,11
 36 331 36 331 51 345 c 128,-1,12
 66 359 66 359 90 359 c 2,13,-1
 250 359 l 1,14,-1
 250 519 l 2,15,16
 250 543 250 543 263.5 557.5 c 128,-1,17
 277 572 277 572 300 572 c 128,-1,18
 323 572 323 572 337 557.5 c 128,-1,19
 351 543 351 543 351 519 c 2,20,-1
 351 359 l 1,21,-1
 512 359 l 2,22,23
 536 359 536 359 551 345 c 128,-1,24
 566 331 566 331 566 308 c 128,-1,25
 566 285 566 285 551 271 c 128,-1,26
 536 257 536 257 512 257 c 2,27,-1
 351 257 l 1,28,-1
 351 97 l 2,0,1
EndSplineSet
EndChar
StartChar: comma
Encoding: 44 44 15
Width: 602
Flags: W
LayerCount: 2
Back
Fore
SplineSet
125 -107 m 2,0,-1
 241 145 l 2,1,2
 251 167 251 167 276 167 c 2,3,-1
 381 167 l 2,4,5
 395 167 395 167 395 154 c 0,6,7
 395 149 395 149 393 146 c 2,8,-1
 195 -148 l 2,9,10
 185 -164 185 -164 169 -164 c 0,11,12
 163 -164 163 -164 157 -161 c 2,13,-1
 125 -144 l 2,14,15
 116 -139 116 -139 116 -130 c 0,16,17
 116 -126 116 -126 125 -107 c 2,0,-1
EndSplineSet
EndChar
StartChar: hyphen
Encoding: 45 45 16
Width: 602
Flags: W
LayerCount: 2
Back
Fore
SplineSet
84 170 m 2,0,1
 75 170 75 170 68.5 176.5 c 128,-1,2
 62 183 62 183 62 192 c 0,3,4
 62 193 62 193 62.5 194.5 c 128,-1,5
 63 196 63 196 63 197 c 2,6,-1
 76 258 l 2,7,8
 80 281 80 281 97 281 c 2,9,-1
 504 281 l 2,10,11
 513 281 513 281 519.5 275 c 128,-1,12
 526 269 526 269 526 260 c 0,13,14
 526 259 526 259 525.5 257.5 c 128,-1,15
 525 256 525 256 525 255 c 2,16,-1
 512 194 l 2,17,18
 508 170 508 170 491 170 c 2,19,-1
 84 170 l 2,0,1
EndSplineSet
EndChar
StartChar: period
Encoding: 46 46 17
Width: 602
Flags: W
LayerCount: 2
Back
Fore
SplineSet
183 75 m 128,-1,1
 183 114 183 114 209.5 138 c 128,-1,2
 236 162 236 162 279 162 c 0,3,4
 323 162 323 162 349.5 138 c 128,-1,5
 376 114 376 114 376 75 c 128,-1,6
 376 36 376 36 349.5 12 c 128,-1,7
 323 -12 323 -12 279 -12 c 0,8,9
 236 -12 236 -12 209.5 12 c 128,-1,0
 183 36 183 36 183 75 c 128,-1,1
EndSplineSet
EndChar
StartChar: slash
Encoding: 47 47 18
Width: 602
Flags: W
LayerCount: 2
Back
Fore
SplineSet
121 -76 m 2,0,1
 91 -124 91 -124 64 -124 c 0,2,3
 46 -124 46 -124 27.5 -108.5 c 128,-1,4
 9 -93 9 -93 9 -77 c 0,5,6
 9 -54 9 -54 32 -19 c 2,7,-1
 468 656 l 2,8,9
 498 704 498 704 525 704 c 0,10,11
 542 704 542 704 561 689.5 c 128,-1,12
 580 675 580 675 580 658 c 0,13,14
 580 634 580 634 557 599 c 2,15,-1
 121 -76 l 2,0,1
EndSplineSet
EndChar
StartChar: zero
Encoding: 48 48 19
Width: 602
Flags: W
LayerCount: 2
Back
Fore
SplineSet
251 311.5 m 128,-1,1
 251 333 251 333 266 348 c 128,-1,2
 281 363 281 363 302 363 c 128,-1,3
 323 363 323 363 338 347.5 c 128,-1,4
 353 332 353 332 353 311 c 128,-1,5
 353 290 353 290 338 275 c 128,-1,6
 323 260 323 260 302 260 c 128,-1,7
 281 260 281 260 266 275 c 128,-1,0
 251 290 251 290 251 311.5 c 128,-1,1
43 202 m 0,8,9
 43 275 43 275 68 356 c 128,-1,10
 93 437 93 437 136 501 c 0,11,12
 224 633 224 633 361 633 c 0,13,14
 456 633 456 633 507.5 577.5 c 128,-1,15
 559 522 559 522 559 419 c 0,16,17
 559 347 559 347 534 265.5 c 128,-1,18
 509 184 509 184 466 118 c 0,19,20
 379 -14 379 -14 241 -14 c 0,21,22
 146 -14 146 -14 94.5 42 c 128,-1,23
 43 98 43 98 43 202 c 0,8,9
343 533 m 0,24,25
 275 533 275 533 220 417 c 0,26,27
 172 313 172 313 172 217 c 0,28,29
 172 156 172 156 196 122 c 128,-1,30
 220 88 220 88 258 88 c 0,31,32
 325 88 325 88 382 203 c 0,33,34
 430 299 430 299 430 405 c 0,35,36
 430 465 430 465 406 499 c 128,-1,37
 382 533 382 533 343 533 c 0,24,25
EndSplineSet
EndChar
StartChar: one
Encoding: 49 49 20
Width: 602
Flags: W
LayerCount: 2
Back
Fore
SplineSet
211 102 m 1,0,-1
 299 516 l 1,1,-1
 226 500 l 2,2,3
 216 498 216 498 212 498 c 0,4,5
 175 498 175 498 175 541 c 0,6,7
 175 580 175 580 209 588 c 2,8,-1
 393 631 l 2,9,10
 403 633 403 633 406 633 c 0,11,12
 433 633 433 633 433 608 c 0,13,14
 433 603 433 603 432 600 c 2,15,-1
 328 102 l 1,16,-1
 402 102 l 2,17,18
 431 102 431 102 443 92.5 c 128,-1,19
 455 83 455 83 455 57 c 0,20,21
 455 0 455 0 390 0 c 2,22,-1
 102 0 l 2,23,24
 73 0 73 0 61 9.5 c 128,-1,25
 49 19 49 19 49 45 c 0,26,27
 49 75 49 75 64.5 88.5 c 128,-1,28
 80 102 80 102 114 102 c 2,29,-1
 211 102 l 1,0,-1
EndSplineSet
EndChar
StartChar: two
Encoding: 50 50 21
Width: 602
Flags: W
LayerCount: 2
Back
Fore
SplineSet
214 102 m 1,0,-1
 373 102 l 1,1,2
 381 135 381 135 394.5 148.5 c 128,-1,3
 408 162 408 162 434 162 c 0,4,5
 479 162 479 162 479 126 c 0,6,7
 479 113 479 113 477 105 c 2,8,-1
 463 37 l 2,9,10
 459 16 459 16 448.5 8 c 128,-1,11
 438 0 438 0 414 0 c 2,12,-1
 72 0 l 2,13,14
 41 0 41 0 27.5 8 c 128,-1,15
 14 16 14 16 14 38 c 0,16,17
 14 43 14 43 15 48.5 c 128,-1,18
 16 54 16 54 19 59.5 c 128,-1,19
 22 65 22 65 25 69.5 c 128,-1,20
 28 74 28 74 34 80.5 c 128,-1,21
 40 87 40 87 44 91.5 c 128,-1,22
 48 96 48 96 57 104 c 128,-1,23
 66 112 66 112 71.5 116.5 c 128,-1,24
 77 121 77 121 88 131 c 128,-1,25
 99 141 99 141 106 147 c 2,26,-1
 296 313 l 2,27,28
 351 362 351 362 375 393.5 c 128,-1,29
 399 425 399 425 399 461 c 0,30,31
 399 491 399 491 381 509 c 128,-1,32
 363 527 363 527 330 527 c 0,33,34
 281 527 281 527 250 504 c 0,35,36
 243 499 243 499 218.5 469 c 128,-1,37
 194 439 194 439 174 439 c 0,38,39
 133 439 133 439 133 481 c 0,40,41
 133 545 133 545 196 588 c 128,-1,42
 259 631 259 631 351 631 c 0,43,44
 433 631 433 631 480 588.5 c 128,-1,45
 527 546 527 546 527 474 c 0,46,47
 527 407 527 407 482 347.5 c 128,-1,48
 437 288 437 288 335 203 c 2,49,-1
 214 102 l 1,0,-1
EndSplineSet
EndChar
StartChar: three
Encoding: 51 51 22
Width: 602
Flags: W
LayerCount: 2
Back
Fore
SplineSet
378 336 m 1,0,1
 421 328 421 328 444.5 296 c 128,-1,2
 468 264 468 264 468 214 c 0,3,4
 468 111 468 111 397.5 47 c 128,-1,5
 327 -17 327 -17 206 -17 c 0,6,7
 122 -17 122 -17 71 7.5 c 128,-1,8
 20 32 20 32 20 67 c 0,9,10
 20 89 20 89 36 107.5 c 128,-1,11
 52 126 52 126 73 126 c 0,12,13
 84 126 84 126 94.5 123 c 128,-1,14
 105 120 105 120 110.5 117.5 c 128,-1,15
 116 115 116 115 125.5 109.5 c 128,-1,16
 135 104 135 104 138 102 c 0,17,18
 167 86 167 86 208 86 c 0,19,20
 272 86 272 86 308 118.5 c 128,-1,21
 344 151 344 151 344 204 c 0,22,23
 344 240 344 240 329 256.5 c 128,-1,24
 314 273 314 273 280 278 c 0,25,26
 275 279 275 279 265.5 280 c 128,-1,27
 256 281 256 281 251.5 281.5 c 128,-1,28
 247 282 247 282 240 283.5 c 128,-1,29
 233 285 233 285 229.5 286.5 c 128,-1,30
 226 288 226 288 222.5 290 c 128,-1,31
 219 292 219 292 217.5 295.5 c 128,-1,32
 216 299 216 299 216 303 c 0,33,34
 216 323 216 323 218.5 336 c 128,-1,35
 221 349 221 349 229 355.5 c 128,-1,36
 237 362 237 362 242 364 c 128,-1,37
 247 366 247 366 262 368.5 c 128,-1,38
 277 371 277 371 283 372 c 0,39,40
 335 384 335 384 360 409 c 128,-1,41
 385 434 385 434 385 477 c 0,42,43
 385 501 385 501 366.5 518.5 c 128,-1,44
 348 536 348 536 321 536 c 0,45,46
 289 536 289 536 239.5 513 c 128,-1,47
 190 490 190 490 172 490 c 0,48,49
 159 490 159 490 150 500 c 128,-1,50
 141 510 141 510 141 525 c 0,51,52
 141 564 141 564 206 599 c 128,-1,53
 271 634 271 634 354 634 c 0,54,55
 425 634 425 634 466 596.5 c 128,-1,56
 507 559 507 559 507 498 c 0,57,58
 507 378 507 378 378 336 c 1,0,1
EndSplineSet
EndChar
StartChar: four
Encoding: 52 52 23
Width: 602
Flags: W
LayerCount: 2
Back
Fore
SplineSet
172 239 m 1,0,-1
 325 239 l 1,1,-1
 388 518 l 1,2,-1
 172 239 l 1,0,-1
292 89 m 1,3,-1
 306 156 l 1,4,-1
 87 156 l 2,5,6
 54 156 54 156 54 178 c 0,7,8
 54 179 54 179 54.5 181 c 128,-1,9
 55 183 55 183 55 184 c 2,10,-1
 59 205 l 2,11,12
 62 222 62 222 72 235 c 2,13,-1
 367 621 l 2,14,15
 377 634 377 634 387 634 c 0,16,17
 393 634 393 634 397 633 c 2,18,-1
 484 617 l 2,19,20
 500 614 500 614 500 606 c 0,21,22
 500 603 500 603 497 588 c 2,23,-1
 421 239 l 1,24,-1
 447 239 l 2,25,26
 451 239 451 239 464.5 251 c 128,-1,27
 478 263 478 263 497 263 c 0,28,29
 531 263 531 263 531 237 c 0,30,31
 531 225 531 225 528 219 c 2,32,-1
 506 167 l 2,33,34
 502 156 502 156 481 156 c 2,35,-1
 402 156 l 1,36,-1
 387 89 l 1,37,-1
 427 89 l 2,38,39
 455 89 455 89 467.5 80.5 c 128,-1,40
 480 72 480 72 480 50 c 0,41,42
 480 0 480 0 416 0 c 2,43,-1
 203 0 l 2,44,45
 175 0 175 0 162.5 8.5 c 128,-1,46
 150 17 150 17 150 39 c 0,47,48
 150 89 150 89 215 89 c 2,49,-1
 292 89 l 1,3,-1
EndSplineSet
EndChar
StartChar: five
Encoding: 53 53 24
Width: 602
Flags: W
LayerCount: 2
Back
Fore
SplineSet
238 387 m 1,0,1
 290 411 290 411 337 411 c 0,2,3
 418 411 418 411 463.5 365 c 128,-1,4
 509 319 509 319 509 239 c 0,5,6
 509 126 509 126 431 55 c 128,-1,7
 353 -16 353 -16 221 -16 c 0,8,9
 37 -16 37 -16 37 58 c 0,10,11
 37 80 37 80 52.5 95 c 128,-1,12
 68 110 68 110 90 110 c 0,13,14
 106 110 106 110 154 99 c 128,-1,15
 202 88 202 88 234 88 c 0,16,17
 300 88 300 88 341.5 125.5 c 128,-1,18
 383 163 383 163 383 220 c 0,19,20
 383 266 383 266 359 290 c 128,-1,21
 335 314 335 314 290 314 c 0,22,23
 256 314 256 314 209.5 294.5 c 128,-1,24
 163 275 163 275 146 275 c 0,25,26
 110 275 110 275 110 310 c 0,27,28
 110 323 110 323 119 356 c 2,29,-1
 175 580 l 2,30,31
 181 604 181 604 189.5 610 c 128,-1,32
 198 616 198 616 226 616 c 2,33,-1
 529 616 l 2,34,35
 560 616 560 616 560 581 c 0,36,37
 560 514 560 514 510 514 c 2,38,-1
 269 514 l 1,39,-1
 238 387 l 1,0,1
EndSplineSet
EndChar
StartChar: six
Encoding: 54 54 25
Width: 602
Flags: W
LayerCount: 2
Back
Fore
SplineSet
204 161 m 0,0,1
 204 123 204 123 221.5 102.5 c 128,-1,2
 239 82 239 82 272 82 c 0,3,4
 317 82 317 82 350 122.5 c 128,-1,5
 383 163 383 163 383 215 c 0,6,7
 383 250 383 250 363.5 270.5 c 128,-1,8
 344 291 344 291 311 291 c 0,9,10
 268 291 268 291 236 253 c 128,-1,11
 204 215 204 215 204 161 c 0,0,1
231 337 m 1,12,13
 286 389 286 389 351 389 c 0,14,15
 419 389 419 389 462.5 343.5 c 128,-1,16
 506 298 506 298 506 227 c 0,17,18
 506 130 506 130 434 57 c 128,-1,19
 362 -16 362 -16 257 -16 c 0,20,21
 168 -16 168 -16 120 35.5 c 128,-1,22
 72 87 72 87 72 179 c 0,23,24
 72 274 72 274 116.5 373 c 128,-1,25
 161 472 161 472 236 536 c 0,26,27
 350 633 350 633 521 633 c 0,28,29
 584 633 584 633 584 587 c 0,30,31
 584 574 584 574 579.5 565.5 c 128,-1,32
 575 557 575 557 570 552 c 128,-1,33
 565 547 565 547 553 544 c 128,-1,34
 541 541 541 541 533 540 c 128,-1,35
 525 539 525 539 507 537.5 c 128,-1,36
 489 536 489 536 480 535 c 0,37,38
 389 525 389 525 324 473.5 c 128,-1,39
 259 422 259 422 231 337 c 1,12,13
EndSplineSet
EndChar
StartChar: seven
Encoding: 55 55 26
Width: 602
Flags: W
LayerCount: 2
Back
Fore
SplineSet
260 11 m 2,0,1
 251 -7 251 -7 241 -7 c 2,2,-1
 139 -7 l 2,3,4
 123 -7 123 -7 123 4 c 0,5,6
 123 11 123 11 131 25 c 2,7,-1
 410 514 l 1,8,-1
 207 514 l 1,9,10
 194 482 194 482 184 471 c 128,-1,11
 174 460 174 460 154 460 c 0,12,13
 115 460 115 460 115 491 c 0,14,15
 115 500 115 500 119 512 c 2,16,-1
 144 589 l 2,17,18
 153 616 153 616 184 616 c 2,19,-1
 519 616 l 2,20,21
 544 616 544 616 544 598 c 0,22,23
 544 588 544 588 539 574 c 128,-1,24
 534 560 534 560 534 558 c 2,25,-1
 519 528 l 1,26,-1
 260 11 l 2,0,1
EndSplineSet
EndChar
StartChar: eight
Encoding: 56 56 27
Width: 602
Flags: W
LayerCount: 2
Back
Fore
SplineSet
176 152 m 0,0,1
 176 118 176 118 197 97 c 128,-1,2
 218 76 218 76 253 76 c 0,3,4
 301 76 301 76 335 109.5 c 128,-1,5
 369 143 369 143 369 188 c 0,6,7
 369 222 369 222 348.5 241 c 128,-1,8
 328 260 328 260 292 260 c 0,9,10
 246 260 246 260 211 227 c 128,-1,11
 176 194 176 194 176 152 c 0,0,1
244 440 m 0,12,13
 244 407 244 407 264 387.5 c 128,-1,14
 284 368 284 368 317 368 c 0,15,16
 362 368 362 368 394 399.5 c 128,-1,17
 426 431 426 431 426 474 c 0,18,19
 426 506 426 506 406.5 523.5 c 128,-1,20
 387 541 387 541 353 541 c 0,21,22
 309 541 309 541 276.5 510 c 128,-1,23
 244 479 244 479 244 440 c 0,12,13
408 317 m 1,24,25
 496 282 496 282 496 195 c 0,26,27
 496 105 496 105 427 44.5 c 128,-1,28
 358 -16 358 -16 245 -16 c 0,29,30
 152 -16 152 -16 102.5 24.5 c 128,-1,31
 53 65 53 65 53 139 c 0,32,33
 53 200 53 200 89.5 247 c 128,-1,34
 126 294 126 294 193 317 c 1,35,36
 155 340 155 340 139 366.5 c 128,-1,37
 123 393 123 393 123 433 c 0,38,39
 123 516 123 516 190 574 c 128,-1,40
 257 632 257 632 356 632 c 0,41,42
 445 632 445 632 496.5 589.5 c 128,-1,43
 548 547 548 547 548 478 c 0,44,45
 548 420 548 420 512 378 c 128,-1,46
 476 336 476 336 408 317 c 1,24,25
EndSplineSet
EndChar
StartChar: nine
Encoding: 57 57 28
Width: 602
Flags: W
LayerCount: 2
Back
Fore
SplineSet
381 280 m 1,0,1
 326 228 326 228 260 228 c 0,2,3
 192 228 192 228 149 273.5 c 128,-1,4
 106 319 106 319 106 390 c 0,5,6
 106 487 106 487 177.5 560 c 128,-1,7
 249 633 249 633 354 633 c 0,8,9
 443 633 443 633 491 581.5 c 128,-1,10
 539 530 539 530 539 438 c 0,11,12
 539 343 539 343 494.5 244 c 128,-1,13
 450 145 450 145 375 81 c 0,14,15
 261 -16 261 -16 90 -16 c 0,16,17
 27 -16 27 -16 27 31 c 0,18,19
 27 44 27 44 31 52.5 c 128,-1,20
 35 61 35 61 40.5 66 c 128,-1,21
 46 71 46 71 58 74 c 128,-1,22
 70 77 70 77 78 78 c 128,-1,23
 86 79 86 79 104 80 c 128,-1,24
 122 81 122 81 131 82 c 0,25,26
 222 92 222 92 287.5 143.5 c 128,-1,27
 353 195 353 195 381 280 c 1,0,1
407 456 m 0,28,29
 407 494 407 494 389.5 514.5 c 128,-1,30
 372 535 372 535 339 535 c 0,31,32
 294 535 294 535 261 494.5 c 128,-1,33
 228 454 228 454 228 402 c 0,34,35
 228 368 228 368 247.5 347.5 c 128,-1,36
 267 327 267 327 300 327 c 0,37,38
 343 327 343 327 375 365 c 128,-1,39
 407 403 407 403 407 456 c 0,28,29
EndSplineSet
EndChar
StartChar: colon
Encoding: 58 58 29
Width: 602
Flags: W
LayerCount: 2
Back
Fore
SplineSet
211 350 m 128,-1,1
 211 389 211 389 237.5 413 c 128,-1,2
 264 437 264 437 307 437 c 0,3,4
 351 437 351 437 377.5 413 c 128,-1,5
 404 389 404 389 404 350 c 128,-1,6
 404 311 404 311 377.5 287 c 128,-1,7
 351 263 351 263 307 263 c 0,8,9
 264 263 264 263 237.5 287 c 128,-1,0
 211 311 211 311 211 350 c 128,-1,1
155 75 m 128,-1,11
 155 113 155 113 182 137.5 c 128,-1,12
 209 162 209 162 252 162 c 0,13,14
 296 162 296 162 322.5 138 c 128,-1,15
 349 114 349 114 349 75 c 128,-1,16
 349 36 349 36 322.5 12 c 128,-1,17
 296 -12 296 -12 252 -12 c 0,18,19
 209 -12 209 -12 182 12.5 c 128,-1,10
 155 37 155 37 155 75 c 128,-1,11
EndSplineSet
EndChar
StartChar: semicolon
Encoding: 59 59 30
Width: 602
Flags: W
LayerCount: 2
Back
Fore
SplineSet
233 350 m 128,-1,1
 233 389 233 389 259.5 413 c 128,-1,2
 286 437 286 437 329 437 c 0,3,4
 373 437 373 437 399.5 413 c 128,-1,5
 426 389 426 389 426 350 c 128,-1,6
 426 311 426 311 399.5 287 c 128,-1,7
 373 263 373 263 329 263 c 0,8,9
 286 263 286 263 259.5 287 c 128,-1,0
 233 311 233 311 233 350 c 128,-1,1
93 -107 m 2,10,-1
 209 145 l 2,11,12
 219 167 219 167 245 167 c 2,13,-1
 350 167 l 2,14,15
 364 167 364 167 364 154 c 0,16,17
 364 150 364 150 361 146 c 2,18,-1
 164 -148 l 2,19,20
 154 -164 154 -164 137 -164 c 0,21,22
 132 -164 132 -164 126 -161 c 2,23,-1
 93 -144 l 2,24,25
 84 -139 84 -139 84 -130 c 0,26,27
 84 -126 84 -126 93 -107 c 2,10,-1
EndSplineSet
EndChar
StartChar: less
Encoding: 60 60 31
Width: 602
Flags: W
LayerCount: 2
Back
Fore
SplineSet
520 163 m 2,0,1
 556 146 556 146 556 116 c 0,2,3
 556 93 556 93 543.5 77.5 c 128,-1,4
 531 62 531 62 511 62 c 0,5,6
 499 62 499 62 476 72 c 2,7,-1
 87 254 l 2,8,9
 42 275 42 275 42 307 c 128,-1,10
 42 339 42 339 87 360 c 2,11,-1
 476 542 l 2,12,13
 499 552 499 552 511 552 c 0,14,15
 531 552 531 552 543.5 537 c 128,-1,16
 556 522 556 522 556 499 c 0,17,18
 556 468 556 468 520 452 c 2,19,-1
 210 307 l 1,20,-1
 520 163 l 2,0,1
EndSplineSet
EndChar
StartChar: equal
Encoding: 61 61 32
Width: 602
Flags: W
LayerCount: 2
Back
Fore
SplineSet
90 160 m 2,0,1
 66 160 66 160 51 174 c 128,-1,2
 36 188 36 188 36 211 c 128,-1,3
 36 234 36 234 51 248 c 128,-1,4
 66 262 66 262 90 262 c 2,5,-1
 512 262 l 2,6,7
 536 262 536 262 551 248 c 128,-1,8
 566 234 566 234 566 211 c 128,-1,9
 566 188 566 188 551 174 c 128,-1,10
 536 160 536 160 512 160 c 2,11,-1
 90 160 l 2,0,1
90 354 m 2,12,13
 66 354 66 354 51 368 c 128,-1,14
 36 382 36 382 36 405 c 128,-1,15
 36 428 36 428 51 442 c 128,-1,16
 66 456 66 456 90 456 c 2,17,-1
 512 456 l 2,18,19
 536 456 536 456 551 442 c 128,-1,20
 566 428 566 428 566 405 c 128,-1,21
 566 382 566 382 551 368 c 128,-1,22
 536 354 536 354 512 354 c 2,23,-1
 90 354 l 2,12,13
EndSplineSet
EndChar
StartChar: greater
Encoding: 62 62 33
Width: 602
Flags: W
LayerCount: 2
Back
Fore
SplineSet
68 452 m 2,0,1
 33 468 33 468 33 499 c 0,2,3
 33 522 33 522 45.5 537 c 128,-1,4
 58 552 58 552 78 552 c 0,5,6
 89 552 89 552 112 542 c 2,7,-1
 502 360 l 2,8,9
 547 339 547 339 547 307 c 128,-1,10
 547 275 547 275 502 254 c 2,11,-1
 112 72 l 2,12,13
 89 62 89 62 78 62 c 0,14,15
 58 62 58 62 45.5 77.5 c 128,-1,16
 33 93 33 93 33 116 c 0,17,18
 33 147 33 147 68 163 c 2,19,-1
 378 307 l 1,20,-1
 68 452 l 2,0,1
EndSplineSet
EndChar
StartChar: question
Encoding: 63 63 34
Width: 602
Flags: W
LayerCount: 2
Back
Fore
SplineSet
298 245 m 1,0,-1
 291 213 l 2,1,2
 279 165 279 165 223 165 c 0,3,4
 173 165 173 165 173 204 c 0,5,6
 173 212 173 212 174 216 c 2,7,-1
 179 243 l 2,8,9
 191 298 191 298 251 325 c 2,10,-1
 309 351 l 2,11,12
 340 364 340 364 358.5 390.5 c 128,-1,13
 377 417 377 417 377 446 c 0,14,15
 377 470 377 470 360 486 c 128,-1,16
 343 502 343 502 316 502 c 0,17,18
 260 502 260 502 242 467 c 0,19,20
 241 466 241 466 235.5 453 c 128,-1,21
 230 440 230 440 226.5 436 c 128,-1,22
 223 432 223 432 212.5 426.5 c 128,-1,23
 202 421 202 421 188 421 c 0,24,25
 146 421 146 421 146 450 c 0,26,27
 146 457 146 457 147 461 c 2,28,-1
 160 522 l 2,29,30
 175 595 175 595 334 595 c 0,31,32
 417 595 417 595 463 554.5 c 128,-1,33
 509 514 509 514 509 441 c 0,34,35
 509 297 509 297 298 245 c 1,0,-1
124 56 m 0,36,37
 124 86 124 86 145 106 c 128,-1,38
 166 126 166 126 201 126 c 128,-1,39
 236 126 236 126 257 106.5 c 128,-1,40
 278 87 278 87 278 56 c 128,-1,41
 278 25 278 25 257 6 c 128,-1,42
 236 -13 236 -13 201 -13 c 0,43,44
 167 -13 167 -13 145.5 6 c 128,-1,45
 124 25 124 25 124 56 c 0,36,37
EndSplineSet
EndChar
StartChar: at
Encoding: 64 64 35
Width: 602
Flags: W
LayerCount: 2
Back
Fore
SplineSet
397 253 m 1,0,-1
 423 376 l 1,1,-1
 404 377 l 1,2,3
 404 377 404 377 402 377 c 0,4,5
 369 377 369 377 344 351 c 128,-1,6
 319 325 319 325 319 293 c 0,7,8
 319 272 319 272 331 258.5 c 128,-1,9
 343 245 343 245 364 245 c 0,10,11
 376 245 376 245 397 253 c 1,0,-1
410 186 m 1,12,13
 360 170 360 170 334 170 c 0,14,15
 289 170 289 170 260.5 199.5 c 128,-1,16
 232 229 232 229 232 276 c 0,17,18
 232 346 232 346 286 398.5 c 128,-1,19
 340 451 340 451 421 451 c 0,20,21
 434 451 434 451 440 450 c 1,22,23
 446 480 446 480 446 496 c 0,24,25
 446 572 446 572 375 572 c 0,26,27
 308 572 308 572 254 475 c 0,28,29
 223 419 223 419 202 338 c 128,-1,30
 181 257 181 257 181 192 c 0,31,32
 181 116 181 116 212.5 75.5 c 128,-1,33
 244 35 244 35 300 35 c 0,34,35
 318 35 318 35 345 43.5 c 128,-1,36
 372 52 372 52 382 52 c 0,37,38
 413 52 413 52 413 19 c 0,39,40
 413 -9 413 -9 375.5 -31 c 128,-1,41
 338 -53 338 -53 281 -53 c 0,42,43
 189 -53 189 -53 132.5 14.5 c 128,-1,44
 76 82 76 82 76 196 c 0,45,46
 76 271 76 271 107 374 c 0,47,48
 139 486 139 486 189 554 c 0,49,50
 271 667 271 667 395 667 c 0,51,52
 463 667 463 667 506.5 626.5 c 128,-1,53
 550 586 550 586 550 525 c 0,54,55
 550 507 550 507 545 480 c 2,56,-1
 498 249 l 1,57,58
 513 223 513 223 513 209 c 0,59,60
 513 189 513 189 498.5 175 c 128,-1,61
 484 161 484 161 464 161 c 0,62,63
 442 161 442 161 410 186 c 1,12,13
EndSplineSet
EndChar
StartChar: A
Encoding: 65 65 36
Width: 602
Flags: W
LayerCount: 2
Back
Fore
SplineSet
231 264 m 1,0,-1
 372 264 l 1,1,-1
 342 478 l 1,2,-1
 231 264 l 1,0,-1
235 471 m 1,3,-1
 188 471 l 2,4,5
 170 471 170 471 158 482.5 c 128,-1,6
 146 494 146 494 146 515 c 0,7,8
 146 579 146 579 218 579 c 2,9,-1
 405 579 l 2,10,11
 440 579 440 579 444 547 c 2,12,-1
 509 108 l 1,13,-1
 520 108 l 2,14,15
 538 108 538 108 549.5 96.5 c 128,-1,16
 561 85 561 85 561 64 c 0,17,18
 561 0 561 0 489 0 c 2,19,-1
 347 0 l 2,20,21
 299 0 299 0 299 44 c 0,22,23
 299 74 299 74 317.5 91 c 128,-1,24
 336 108 336 108 368 108 c 2,25,-1
 392 108 l 1,26,-1
 385 162 l 1,27,-1
 179 162 l 1,28,-1
 150 108 l 1,29,-1
 155 108 l 2,30,31
 205 108 205 108 205 63 c 0,32,33
 205 0 205 0 133 0 c 2,34,-1
 4 0 l 2,35,36
 -44 0 -44 0 -44 44 c 0,37,38
 -44 72 -44 72 -26.5 90 c 128,-1,39
 -9 108 -9 108 16 108 c 2,40,-1
 34 108 l 1,41,-1
 235 471 l 1,3,-1
EndSplineSet
EndChar
StartChar: B
Encoding: 66 66 37
Width: 602
Flags: W
LayerCount: 2
Back
Fore
SplineSet
37 0 m 2,0,1
 -10 0 -10 0 -10 44 c 0,2,3
 -10 72 -10 72 7 90 c 128,-1,4
 24 108 24 108 49 108 c 2,5,-1
 63 108 l 1,6,-1
 138 471 l 1,7,-1
 125 471 l 2,8,9
 106 471 106 471 94.5 482.5 c 128,-1,10
 83 494 83 494 83 515 c 0,11,12
 83 579 83 579 155 579 c 2,13,-1
 365 579 l 2,14,15
 460 579 460 579 505 548 c 128,-1,16
 550 517 550 517 550 447 c 0,17,18
 550 392 550 392 523 359.5 c 128,-1,19
 496 327 496 327 436 310 c 1,20,21
 489 297 489 297 514 267.5 c 128,-1,22
 539 238 539 238 539 188 c 0,23,24
 539 0 539 0 302 0 c 2,25,-1
 37 0 l 2,0,1
233 348 m 1,26,-1
 300 348 l 2,27,28
 419 348 419 348 419 420 c 0,29,30
 419 451 419 451 399.5 461 c 128,-1,31
 380 471 380 471 331 471 c 2,32,-1
 259 471 l 1,33,-1
 233 348 l 1,26,-1
182 108 m 1,34,-1
 299 108 l 2,35,36
 406 108 406 108 406 187 c 0,37,38
 406 226 406 226 385 238.5 c 128,-1,39
 364 251 364 251 309 251 c 2,40,-1
 212 251 l 1,41,-1
 182 108 l 1,34,-1
EndSplineSet
EndChar
StartChar: C
Encoding: 67 67 38
Width: 602
Flags: W
LayerCount: 2
Back
Fore
SplineSet
512 563 m 1,0,1
 532 594 532 594 563 594 c 0,2,3
 599 594 599 594 599 563 c 0,4,5
 599 554 599 554 595 537 c 2,6,-1
 566 400 l 2,7,8
 556 354 556 354 516 354 c 0,9,10
 489 354 489 354 479.5 362.5 c 128,-1,11
 470 371 470 371 470 397 c 2,12,-1
 470 407 l 2,13,14
 470 444 470 444 443.5 465.5 c 128,-1,15
 417 487 417 487 371 487 c 0,16,17
 290 487 290 487 229.5 407.5 c 128,-1,18
 169 328 169 328 169 223 c 0,19,20
 169 160 169 160 200.5 125.5 c 128,-1,21
 232 91 232 91 292 91 c 0,22,23
 331 91 331 91 370.5 108 c 128,-1,24
 410 125 410 125 441 142 c 128,-1,25
 472 159 472 159 489 159 c 128,-1,26
 506 159 506 159 517.5 147 c 128,-1,27
 529 135 529 135 529 117 c 0,28,29
 529 72 529 72 446.5 28.5 c 128,-1,30
 364 -15 364 -15 253 -15 c 0,31,32
 150 -15 150 -15 91 44.5 c 128,-1,33
 32 104 32 104 32 204 c 0,34,35
 32 276 32 276 58.5 349.5 c 128,-1,36
 85 423 85 423 129 477 c 0,37,38
 226 595 226 595 382 595 c 0,39,40
 450 595 450 595 512 563 c 1,0,1
EndSplineSet
EndChar
StartChar: D
Encoding: 68 68 39
Width: 602
Flags: W
LayerCount: 2
Back
Fore
SplineSet
294 471 m 2,0,-1
 263 471 l 1,1,-1
 188 109 l 1,2,-1
 212 109 l 2,3,4
 307 109 307 109 349 138 c 0,5,6
 388 165 388 165 411 222.5 c 128,-1,7
 434 280 434 280 434 355 c 0,8,9
 434 415 434 415 399.5 443 c 128,-1,10
 365 471 365 471 294 471 c 2,0,-1
37 0 m 2,11,12
 -10 0 -10 0 -10 44 c 0,13,14
 -10 72 -10 72 7.5 90 c 128,-1,15
 25 108 25 108 50 108 c 2,16,-1
 64 108 l 1,17,-1
 138 470 l 1,18,-1
 125 470 l 2,19,20
 107 470 107 470 95.5 482 c 128,-1,21
 84 494 84 494 84 515 c 0,22,23
 84 579 84 579 156 579 c 2,24,-1
 306 579 l 2,25,26
 441 579 441 579 506.5 527.5 c 128,-1,27
 572 476 572 476 572 368 c 0,28,29
 572 190 572 190 476 89 c 0,30,31
 421 31 421 31 357 15.5 c 128,-1,32
 293 0 293 0 186 0 c 2,33,-1
 37 0 l 2,11,12
EndSplineSet
EndChar
StartChar: E
Encoding: 69 69 40
Width: 602
Flags: W
LayerCount: 2
Back
Fore
SplineSet
557 579 m 2,0,1
 593 579 593 579 593 554 c 0,2,3
 593 549 593 549 592 547 c 2,4,-1
 566 419 l 2,5,6
 559 388 559 388 549 376 c 128,-1,7
 539 364 539 364 512 364 c 0,8,9
 468 364 468 364 468 399 c 0,10,11
 468 412 468 412 471 428 c 2,12,-1
 480 471 l 1,13,-1
 265 471 l 1,14,-1
 241 348 l 1,15,-1
 318 348 l 1,16,17
 324 382 324 382 336.5 396 c 128,-1,18
 349 410 349 410 375 410 c 0,19,20
 417 410 417 410 417 372 c 0,21,22
 417 362 417 362 414 350 c 2,23,-1
 392 244 l 2,24,25
 385 213 385 213 375 201 c 128,-1,26
 365 189 365 189 338 189 c 0,27,28
 294 189 294 189 294 224 c 0,29,30
 294 236 294 236 297 253 c 1,31,-1
 221 253 l 1,32,-1
 191 108 l 1,33,-1
 404 108 l 1,34,-1
 412 150 l 2,35,36
 419 189 419 189 432.5 205 c 128,-1,37
 446 221 446 221 474 221 c 0,38,39
 518 221 518 221 518 178 c 0,40,41
 518 166 518 166 516 158 c 2,42,-1
 491 39 l 2,43,44
 487 17 487 17 476.5 8.5 c 128,-1,45
 466 0 466 0 445 0 c 2,46,-1
 40 0 l 2,47,48
 -8 0 -8 0 -8 44 c 0,49,50
 -8 72 -8 72 9.5 90 c 128,-1,51
 27 108 27 108 52 108 c 2,52,-1
 66 108 l 1,53,-1
 141 471 l 1,54,-1
 128 471 l 2,55,56
 110 471 110 471 98 482.5 c 128,-1,57
 86 494 86 494 86 515 c 0,58,59
 86 579 86 579 158 579 c 2,60,-1
 557 579 l 2,0,1
EndSplineSet
EndChar
StartChar: F
Encoding: 70 70 41
Width: 602
Flags: W
LayerCount: 2
Back
Fore
SplineSet
571 579 m 2,0,1
 607 579 607 579 607 554 c 0,2,3
 607 549 607 549 606 547 c 2,4,-1
 580 419 l 2,5,6
 573 389 573 389 562.5 376.5 c 128,-1,7
 552 364 552 364 525 364 c 0,8,9
 481 364 481 364 481 399 c 0,10,11
 481 406 481 406 485 428 c 2,12,-1
 494 471 l 1,13,-1
 279 471 l 1,14,-1
 254 348 l 1,15,-1
 331 348 l 1,16,17
 337 382 337 382 350 396 c 128,-1,18
 363 410 363 410 389 410 c 0,19,20
 431 410 431 410 431 372 c 0,21,22
 431 362 431 362 428 350 c 2,23,-1
 406 244 l 2,24,25
 399 213 399 213 389 201 c 128,-1,26
 379 189 379 189 352 189 c 0,27,28
 308 189 308 189 308 224 c 0,29,30
 308 236 308 236 311 253 c 1,31,-1
 235 253 l 1,32,-1
 205 108 l 1,33,-1
 231 108 l 2,34,35
 281 108 281 108 281 63 c 0,36,37
 281 0 281 0 209 0 c 2,38,-1
 54 0 l 2,39,40
 6 0 6 0 6 44 c 0,41,42
 6 72 6 72 23.5 90 c 128,-1,43
 41 108 41 108 66 108 c 2,44,-1
 80 108 l 1,45,-1
 154 471 l 1,46,-1
 141 471 l 2,47,48
 123 471 123 471 111.5 482.5 c 128,-1,49
 100 494 100 494 100 515 c 0,50,51
 100 579 100 579 172 579 c 2,52,-1
 571 579 l 2,0,1
EndSplineSet
EndChar
StartChar: G
Encoding: 71 71 42
Width: 602
Flags: W
LayerCount: 2
Back
Fore
SplineSet
500 563 m 1,0,1
 520 594 520 594 550 594 c 0,2,3
 586 594 586 594 586 563 c 0,4,5
 586 556 586 556 582 537 c 2,6,-1
 554 400 l 2,7,8
 545 354 545 354 504 354 c 0,9,10
 478 354 478 354 468 362.5 c 128,-1,11
 458 371 458 371 458 397 c 2,12,-1
 458 407 l 2,13,14
 458 444 458 444 432 465.5 c 128,-1,15
 406 487 406 487 360 487 c 0,16,17
 287 487 287 487 233 423 c 0,18,19
 199 382 199 382 179 327 c 128,-1,20
 159 272 159 272 159 219 c 0,21,22
 159 91 159 91 292 91 c 0,23,24
 337 91 337 91 379 106 c 1,25,-1
 393 180 l 1,26,-1
 336 180 l 2,27,28
 318 180 318 180 306.5 192 c 128,-1,29
 295 204 295 204 295 225 c 0,30,31
 295 288 295 288 367 288 c 2,32,-1
 528 288 l 2,33,34
 575 288 575 288 575 244 c 0,35,36
 575 183 575 183 507 180 c 1,37,-1
 485 66 l 2,38,39
 481 47 481 47 476.5 39.5 c 128,-1,40
 472 32 472 32 457 24 c 0,41,42
 377 -15 377 -15 254 -15 c 0,43,44
 143 -15 143 -15 83.5 43 c 128,-1,45
 24 101 24 101 24 204 c 0,46,47
 24 276 24 276 50 349.5 c 128,-1,48
 76 423 76 423 120 477 c 0,49,50
 217 595 217 595 371 595 c 0,51,52
 439 595 439 595 500 563 c 1,0,1
EndSplineSet
EndChar
StartChar: H
Encoding: 72 72 43
Width: 602
Flags: W
LayerCount: 2
Back
Fore
SplineSet
412 471 m 1,0,1
 363 472 363 472 363 515 c 0,2,3
 363 545 363 545 381.5 562 c 128,-1,4
 400 579 400 579 435 579 c 2,5,-1
 558 579 l 2,6,7
 606 579 606 579 606 534 c 0,8,9
 606 474 606 474 537 471 c 1,10,-1
 463 108 l 1,11,-1
 474 108 l 2,12,13
 492 108 492 108 503.5 96.5 c 128,-1,14
 515 85 515 85 515 64 c 0,15,16
 515 0 515 0 443 0 c 2,17,-1
 317 0 l 2,18,19
 270 0 270 0 270 44 c 0,20,21
 270 106 270 106 338 108 c 1,22,-1
 367 253 l 1,23,-1
 219 253 l 1,24,-1
 191 108 l 1,25,26
 241 108 241 108 241 63 c 0,27,28
 241 0 241 0 169 0 c 2,29,-1
 40 0 l 2,30,31
 -8 0 -8 0 -8 44 c 0,32,33
 -8 72 -8 72 9.5 90 c 128,-1,34
 27 108 27 108 52 108 c 2,35,-1
 66 108 l 1,36,-1
 141 471 l 1,37,-1
 128 471 l 2,38,39
 110 471 110 471 98 482.5 c 128,-1,40
 86 494 86 494 86 515 c 0,41,42
 86 579 86 579 158 579 c 2,43,-1
 286 579 l 2,44,45
 334 579 334 579 334 534 c 0,46,47
 334 474 334 474 265 471 c 1,48,-1
 241 356 l 1,49,-1
 389 356 l 1,50,-1
 412 471 l 1,0,1
EndSplineSet
EndChar
StartChar: I
Encoding: 73 73 44
Width: 602
Flags: W
LayerCount: 2
Back
Fore
SplineSet
104 0 m 2,0,1
 56 0 56 0 56 44 c 0,2,3
 56 72 56 72 73.5 90 c 128,-1,4
 91 108 91 108 116 108 c 2,5,-1
 203 108 l 1,6,-1
 277 471 l 1,7,-1
 192 471 l 2,8,9
 174 471 174 471 162 482.5 c 128,-1,10
 150 494 150 494 150 515 c 0,11,12
 150 579 150 579 222 579 c 2,13,-1
 496 579 l 2,14,15
 543 579 543 579 543 534 c 0,16,17
 543 496 543 496 521 483.5 c 128,-1,18
 499 471 499 471 449 471 c 2,19,-1
 399 471 l 1,20,-1
 325 108 l 1,21,-1
 411 108 l 2,22,23
 430 108 430 108 441.5 96 c 128,-1,24
 453 84 453 84 453 64 c 0,25,26
 453 0 453 0 381 0 c 2,27,-1
 104 0 l 2,0,1
EndSplineSet
EndChar
StartChar: J
Encoding: 74 74 45
Width: 602
Flags: W
LayerCount: 2
Back
Fore
SplineSet
41 199 m 2,0,1
 48 238 48 238 62 254 c 128,-1,2
 76 270 76 270 104 270 c 0,3,4
 148 270 148 270 148 230 c 0,5,6
 148 223 148 223 144.5 201 c 128,-1,7
 141 179 141 179 141 165 c 0,8,9
 141 86 141 86 215 86 c 0,10,11
 276 86 276 86 300.5 125 c 128,-1,12
 325 164 325 164 345 262 c 2,13,-1
 388 471 l 1,14,-1
 303 471 l 2,15,16
 284 471 284 471 272.5 482.5 c 128,-1,17
 261 494 261 494 261 515 c 0,18,19
 261 579 261 579 333 579 c 2,20,-1
 576 579 l 2,21,22
 623 579 623 579 623 534 c 0,23,24
 623 496 623 496 601 483.5 c 128,-1,25
 579 471 579 471 529 471 c 2,26,-1
 510 471 l 1,27,-1
 459 224 l 2,28,29
 458 218 458 218 452.5 193.5 c 128,-1,30
 447 169 447 169 445.5 161.5 c 128,-1,31
 444 154 444 154 439 135 c 128,-1,32
 434 116 434 116 430 106.5 c 128,-1,33
 426 97 426 97 419.5 84 c 128,-1,34
 413 71 413 71 405 61 c 0,35,36
 379 26 379 26 327 5.5 c 128,-1,37
 275 -15 275 -15 208 -15 c 0,38,39
 113 -15 113 -15 55 20 c 0,40,41
 20 41 20 41 20 68 c 0,42,43
 20 74 20 74 22 90 c 2,44,-1
 41 199 l 2,0,1
EndSplineSet
EndChar
StartChar: K
Encoding: 75 75 46
Width: 602
Flags: W
LayerCount: 2
Back
Fore
SplineSet
425 476 m 1,0,1
 389 484 389 484 389 514 c 0,2,3
 389 579 389 579 459 579 c 2,4,-1
 573 579 l 2,5,6
 621 579 621 579 621 534 c 0,7,8
 621 474 621 474 552 471 c 1,9,-1
 376 324 l 1,10,11
 446 256 446 256 477 108 c 1,12,-1
 507 108 l 2,13,14
 525 108 525 108 536.5 96.5 c 128,-1,15
 548 85 548 85 548 64 c 0,16,17
 548 0 548 0 476 0 c 2,18,-1
 408 0 l 2,19,20
 395 0 395 0 387 2 c 128,-1,21
 379 4 379 4 374.5 12 c 128,-1,22
 370 20 370 20 368 27 c 128,-1,23
 366 34 366 34 361.5 53.5 c 128,-1,24
 357 73 357 73 353 88 c 0,25,26
 320 207 320 207 275 245 c 1,27,-1
 218 199 l 1,28,-1
 200 108 l 1,29,30
 250 108 250 108 250 63 c 0,31,32
 250 0 250 0 178 0 c 2,33,-1
 49 0 l 2,34,35
 1 0 1 0 1 44 c 0,36,37
 1 72 1 72 18.5 90 c 128,-1,38
 36 108 36 108 61 108 c 2,39,-1
 75 108 l 1,40,-1
 150 471 l 1,41,-1
 137 471 l 2,42,43
 118 471 118 471 106.5 482.5 c 128,-1,44
 95 494 95 494 95 515 c 0,45,46
 95 579 95 579 167 579 c 2,47,-1
 295 579 l 2,48,49
 343 579 343 579 343 534 c 0,50,51
 343 474 343 474 274 471 c 1,52,-1
 242 322 l 1,53,-1
 425 476 l 1,0,1
EndSplineSet
EndChar
StartChar: L
Encoding: 76 76 47
Width: 602
Flags: W
LayerCount: 2
Back
Fore
SplineSet
44 0 m 2,0,1
 -3 0 -3 0 -3 44 c 0,2,3
 -3 72 -3 72 14 90 c 128,-1,4
 31 108 31 108 56 108 c 2,5,-1
 91 108 l 1,6,-1
 165 471 l 1,7,-1
 132 471 l 2,8,9
 114 471 114 471 102 482.5 c 128,-1,10
 90 494 90 494 90 515 c 0,11,12
 90 579 90 579 162 579 c 2,13,-1
 343 579 l 2,14,15
 391 579 391 579 391 534 c 0,16,17
 391 504 391 504 372.5 487.5 c 128,-1,18
 354 471 354 471 322 471 c 2,19,-1
 290 471 l 1,20,-1
 215 108 l 1,21,-1
 429 108 l 1,22,-1
 436 150 l 2,23,24
 443 189 443 189 457 205 c 128,-1,25
 471 221 471 221 499 221 c 0,26,27
 543 221 543 221 543 178 c 0,28,29
 543 170 543 170 540 158 c 2,30,-1
 515 39 l 2,31,32
 510 17 510 17 500.5 8.5 c 128,-1,33
 491 0 491 0 470 0 c 2,34,-1
 44 0 l 2,0,1
EndSplineSet
EndChar
StartChar: M
Encoding: 77 77 48
Width: 602
Flags: W
LayerCount: 2
Back
Fore
SplineSet
191 415 m 1,0,-1
 125 108 l 1,1,2
 175 108 175 108 175 63 c 0,3,4
 175 0 175 0 103 0 c 2,5,-1
 -6 0 l 2,6,7
 -53 0 -53 0 -53 44 c 0,8,9
 -53 72 -53 72 -36 90 c 128,-1,10
 -19 108 -19 108 6 108 c 2,11,-1
 21 108 l 1,12,-1
 107 471 l 1,13,-1
 94 471 l 2,14,15
 76 471 76 471 64.5 482.5 c 128,-1,16
 53 494 53 494 53 515 c 0,17,18
 53 579 53 579 125 579 c 2,19,-1
 201 579 l 2,20,21
 228 579 228 579 240 569 c 128,-1,22
 252 559 252 559 255 535 c 2,23,-1
 293 240 l 1,24,-1
 453 542 l 2,25,26
 473 579 473 579 515 579 c 2,27,-1
 590 579 l 2,28,29
 637 579 637 579 637 534 c 0,30,31
 637 474 637 474 569 471 c 1,32,-1
 507 108 l 1,33,34
 556 108 556 108 556 63 c 0,35,36
 556 0 556 0 484 0 c 2,37,-1
 376 0 l 2,38,39
 328 0 328 0 328 44 c 0,40,41
 328 72 328 72 345.5 90 c 128,-1,42
 363 108 363 108 388 108 c 2,43,-1
 402 108 l 1,44,-1
 459 410 l 1,45,-1
 341 186 l 2,46,47
 326 158 326 158 310 147 c 128,-1,48
 294 136 294 136 268 136 c 0,49,50
 245 136 245 136 233 148.5 c 128,-1,51
 221 161 221 161 217 191 c 2,52,-1
 191 415 l 1,0,-1
EndSplineSet
EndChar
StartChar: N
Encoding: 78 78 49
Width: 602
Flags: W
LayerCount: 2
Back
Fore
SplineSet
447 471 m 1,0,-1
 435 471 l 2,1,2
 381 471 381 471 381 515 c 0,3,4
 381 545 381 545 399.5 562 c 128,-1,5
 418 579 418 579 453 579 c 2,6,-1
 577 579 l 2,7,8
 624 579 624 579 624 534 c 0,9,10
 624 474 624 474 556 471 c 1,11,-1
 463 25 l 2,12,13
 459 6 459 6 452 -1 c 128,-1,14
 445 -8 445 -8 428 -8 c 2,15,-1
 384 -8 l 2,16,17
 364 -8 364 -8 355 -3 c 128,-1,18
 346 2 346 2 340 20 c 2,19,-1
 212 403 l 1,20,-1
 158 108 l 1,21,-1
 174 108 l 2,22,23
 224 108 224 108 224 63 c 0,24,25
 224 0 224 0 152 0 c 2,26,-1
 23 0 l 2,27,28
 -24 0 -24 0 -24 44 c 0,29,30
 -24 72 -24 72 -7 90 c 128,-1,31
 10 108 10 108 35 108 c 2,32,-1
 50 108 l 1,33,-1
 124 471 l 1,34,-1
 111 471 l 2,35,36
 92 471 92 471 80.5 482.5 c 128,-1,37
 69 494 69 494 69 515 c 0,38,39
 69 579 69 579 141 579 c 2,40,-1
 230 579 l 2,41,42
 261 579 261 579 271 550 c 2,43,-1
 393 180 l 1,44,-1
 447 471 l 1,0,-1
EndSplineSet
EndChar
StartChar: O
Encoding: 79 79 50
Width: 602
Flags: W
LayerCount: 2
Back
Fore
SplineSet
348 595 m 0,0,1
 459 595 459 595 522 530.5 c 128,-1,2
 585 466 585 466 585 351 c 0,3,4
 585 221 585 221 508 114 c 0,5,6
 414 -15 414 -15 256 -15 c 0,7,8
 143 -15 143 -15 80 49.5 c 128,-1,9
 17 114 17 114 17 228 c 0,10,11
 17 377 17 377 113 489 c 0,12,13
 204 595 204 595 348 595 c 0,0,1
446 347 m 0,14,15
 446 413 446 413 416 449 c 128,-1,16
 386 485 386 485 335 485 c 0,17,18
 266 485 266 485 212.5 409.5 c 128,-1,19
 159 334 159 334 159 235 c 0,20,21
 159 168 159 168 188.5 132.5 c 128,-1,22
 218 97 218 97 270 97 c 0,23,24
 339 97 339 97 392.5 173.5 c 128,-1,25
 446 250 446 250 446 347 c 0,14,15
EndSplineSet
EndChar
StartChar: P
Encoding: 80 80 51
Width: 602
Flags: W
LayerCount: 2
Back
Fore
SplineSet
371 579 m 2,0,1
 578 579 578 579 578 419 c 0,2,3
 578 210 578 210 302 210 c 2,4,-1
 222 210 l 1,5,-1
 201 108 l 1,6,-1
 228 108 l 2,7,8
 278 108 278 108 278 63 c 0,9,10
 278 0 278 0 206 0 c 2,11,-1
 50 0 l 2,12,13
 3 0 3 0 3 44 c 0,14,15
 3 72 3 72 20 90 c 128,-1,16
 37 108 37 108 62 108 c 2,17,-1
 77 108 l 1,18,-1
 151 471 l 1,19,-1
 138 471 l 2,20,21
 120 471 120 471 108.5 482.5 c 128,-1,22
 97 494 97 494 97 515 c 0,23,24
 97 579 97 579 169 579 c 2,25,-1
 371 579 l 2,0,1
242 319 m 1,26,-1
 299 319 l 2,27,28
 374 319 374 319 408 338 c 128,-1,29
 442 357 442 357 442 403 c 0,30,31
 442 471 442 471 351 471 c 2,32,-1
 277 471 l 1,33,-1
 242 319 l 1,26,-1
EndSplineSet
EndChar
StartChar: Q
Encoding: 81 81 52
Width: 602
Flags: W
LayerCount: 2
Back
Fore
SplineSet
446 347 m 0,0,1
 446 413 446 413 416 449 c 128,-1,2
 386 485 386 485 335 485 c 0,3,4
 266 485 266 485 212.5 409.5 c 128,-1,5
 159 334 159 334 159 235 c 0,6,7
 159 168 159 168 188.5 132.5 c 128,-1,8
 218 97 218 97 270 97 c 0,9,10
 339 97 339 97 392.5 173.5 c 128,-1,11
 446 250 446 250 446 347 c 0,0,1
144 6 m 1,12,13
 17 65 17 65 17 228 c 0,14,15
 17 377 17 377 113 489 c 0,16,17
 203 595 203 595 347 595 c 0,18,19
 459 595 459 595 522 531 c 128,-1,20
 585 467 585 467 585 351 c 0,21,22
 585 200 585 200 491.5 92.5 c 128,-1,23
 398 -15 398 -15 262 -15 c 0,24,25
 225 -15 225 -15 193 -8 c 1,26,-1
 109 -79 l 1,27,28
 190 -41 190 -41 253 -41 c 0,29,30
 284 -41 284 -41 325 -52 c 128,-1,31
 366 -63 366 -63 377 -63 c 0,32,33
 392 -63 392 -63 419 -52 c 128,-1,34
 446 -41 446 -41 456 -41 c 0,35,36
 491 -41 491 -41 491 -69 c 0,37,38
 491 -99 491 -99 450 -124.5 c 128,-1,39
 409 -150 409 -150 357 -150 c 0,40,41
 326 -150 326 -150 277 -134.5 c 128,-1,42
 228 -119 228 -119 210 -119 c 0,43,44
 174 -119 174 -119 126.5 -138.5 c 128,-1,45
 79 -158 79 -158 69 -158 c 0,46,47
 52 -158 52 -158 41 -147 c 128,-1,48
 30 -136 30 -136 30 -119 c 0,49,50
 30 -100 30 -100 41.5 -85 c 128,-1,51
 53 -70 53 -70 79 -48 c 2,52,-1
 144 6 l 1,12,13
EndSplineSet
EndChar
StartChar: R
Encoding: 82 82 53
Width: 602
Flags: W
LayerCount: 2
Back
Fore
SplineSet
362 579 m 2,0,1
 561 579 561 579 561 436 c 0,2,3
 561 304 561 304 414 266 c 1,4,5
 428 259 428 259 435 239 c 2,6,-1
 488 108 l 1,7,-1
 500 108 l 2,8,9
 550 108 550 108 550 63 c 0,10,11
 550 0 550 0 478 0 c 2,12,-1
 431 0 l 2,13,14
 406 0 406 0 397.5 5.5 c 128,-1,15
 389 11 389 11 380 34 c 2,16,-1
 306 207 l 2,17,18
 299 223 299 223 290.5 229 c 128,-1,19
 282 235 282 235 265 235 c 2,20,-1
 219 235 l 1,21,-1
 193 108 l 1,22,-1
 202 108 l 2,23,24
 251 108 251 108 251 63 c 0,25,26
 251 0 251 0 179 0 c 2,27,-1
 42 0 l 2,28,29
 -6 0 -6 0 -6 44 c 0,30,31
 -6 72 -6 72 11.5 90 c 128,-1,32
 29 108 29 108 54 108 c 2,33,-1
 68 108 l 1,34,-1
 142 471 l 1,35,-1
 129 471 l 2,36,37
 111 471 111 471 99.5 482.5 c 128,-1,38
 88 494 88 494 88 515 c 0,39,40
 88 579 88 579 160 579 c 2,41,-1
 362 579 l 2,0,1
240 334 m 1,42,-1
 289 334 l 2,43,44
 359 334 359 334 391 352 c 128,-1,45
 423 370 423 370 423 411 c 0,46,47
 423 472 423 472 338 472 c 2,48,-1
 268 472 l 1,49,-1
 240 334 l 1,42,-1
EndSplineSet
EndChar
StartChar: S
Encoding: 83 83 54
Width: 602
Flags: W
LayerCount: 2
Back
Fore
SplineSet
117 11 m 1,0,1
 96 -20 96 -20 70 -20 c 0,2,3
 27 -20 27 -20 27 24 c 0,4,5
 27 28 27 28 29 42 c 2,6,-1
 49 171 l 2,7,8
 57 217 57 217 100 217 c 0,9,10
 117 217 117 217 126.5 210 c 128,-1,11
 136 203 136 203 138.5 194 c 128,-1,12
 141 185 141 185 144.5 168 c 128,-1,13
 148 151 148 151 153 140 c 0,14,15
 165 112 165 112 198 94 c 128,-1,16
 231 76 231 76 274 76 c 0,17,18
 318 76 318 76 345 96.5 c 128,-1,19
 372 117 372 117 372 147 c 0,20,21
 372 165 372 165 366.5 178 c 128,-1,22
 361 191 361 191 346.5 201.5 c 128,-1,23
 332 212 332 212 320 218.5 c 128,-1,24
 308 225 308 225 281.5 237 c 128,-1,25
 255 249 255 249 238 257 c 0,26,27
 125 314 125 314 125 407 c 0,28,29
 125 490 125 490 188.5 542.5 c 128,-1,30
 252 595 252 595 359 595 c 0,31,32
 427 595 427 595 484 568 c 1,33,34
 501 604 501 604 533 604 c 0,35,36
 571 604 571 604 571 564 c 0,37,38
 571 559 571 559 569 545 c 2,39,-1
 548 430 l 2,40,41
 540 390 540 390 497 390 c 0,42,43
 488 390 488 390 480.5 392 c 128,-1,44
 473 394 473 394 469 395.5 c 128,-1,45
 465 397 465 397 460.5 404.5 c 128,-1,46
 456 412 456 412 455 414 c 128,-1,47
 454 416 454 416 449.5 428 c 128,-1,48
 445 440 445 440 444 443 c 0,49,50
 421 501 421 501 357 501 c 0,51,52
 319 501 319 501 295 482.5 c 128,-1,53
 271 464 271 464 271 434 c 0,54,55
 271 406 271 406 290.5 390 c 128,-1,56
 310 374 310 374 359 351 c 0,57,58
 446 311 446 311 482 277 c 128,-1,59
 518 243 518 243 518 182 c 0,60,61
 518 96 518 96 448 41 c 128,-1,62
 378 -14 378 -14 265 -14 c 0,63,64
 195 -14 195 -14 117 11 c 1,0,1
EndSplineSet
EndChar
StartChar: T
Encoding: 84 84 55
Width: 602
Flags: W
LayerCount: 2
Back
Fore
SplineSet
100 0 m 2,0,1
 53 0 53 0 53 44 c 0,2,3
 53 72 53 72 70 90 c 128,-1,4
 87 108 87 108 112 108 c 2,5,-1
 199 108 l 1,6,-1
 274 471 l 1,7,-1
 172 471 l 1,8,-1
 150 369 l 2,9,10
 143 339 143 339 133 326.5 c 128,-1,11
 123 314 123 314 96 314 c 0,12,13
 52 314 52 314 52 349 c 0,14,15
 52 363 52 363 55 378 c 2,16,-1
 92 551 l 2,17,18
 97 579 97 579 131 579 c 2,19,-1
 576 579 l 2,20,21
 612 579 612 579 612 553 c 0,22,23
 612 552 612 552 611.5 550 c 128,-1,24
 611 548 611 548 611 547 c 2,25,-1
 574 369 l 2,26,27
 567 339 567 339 556.5 326.5 c 128,-1,28
 546 314 546 314 519 314 c 0,29,30
 475 314 475 314 475 349 c 0,31,32
 475 358 475 358 479 378 c 2,33,-1
 498 471 l 1,34,-1
 396 471 l 1,35,-1
 322 108 l 1,36,-1
 408 108 l 2,37,38
 426 108 426 108 437.5 96.5 c 128,-1,39
 449 85 449 85 449 64 c 0,40,41
 449 0 449 0 377 0 c 2,42,-1
 100 0 l 2,0,1
EndSplineSet
EndChar
StartChar: U
Encoding: 85 85 56
Width: 602
Flags: W
LayerCount: 2
Back
Fore
SplineSet
559 471 m 1,0,-1
 502 194 l 2,1,2
 480 86 480 86 418.5 34.5 c 128,-1,3
 357 -17 357 -17 249 -17 c 0,4,5
 56 -17 56 -17 56 151 c 0,6,7
 56 182 56 182 66 232 c 2,8,-1
 114 471 l 1,9,-1
 101 471 l 2,10,11
 83 471 83 471 71.5 482.5 c 128,-1,12
 60 494 60 494 60 515 c 0,13,14
 60 579 60 579 132 579 c 2,15,-1
 260 579 l 2,16,17
 307 579 307 579 307 534 c 0,18,19
 307 476 307 476 241 471 c 1,20,-1
 189 212 l 2,21,22
 184 184 184 184 184 161 c 0,23,24
 184 91 184 91 260 91 c 0,25,26
 317 91 317 91 345 122.5 c 128,-1,27
 373 154 373 154 388 225 c 2,28,-1
 439 471 l 1,29,30
 389 472 389 472 389 515 c 0,31,32
 389 545 389 545 407.5 562 c 128,-1,33
 426 579 426 579 461 579 c 2,34,-1
 580 579 l 2,35,36
 627 579 627 579 627 534 c 0,37,38
 627 474 627 474 559 471 c 1,0,-1
EndSplineSet
EndChar
StartChar: V
Encoding: 86 86 57
Width: 602
Flags: W
LayerCount: 2
Back
Fore
SplineSet
325 26 m 2,0,1
 316 11 316 11 307 5.5 c 128,-1,2
 298 0 298 0 280 0 c 2,3,-1
 201 0 l 2,4,5
 166 0 166 0 162 32 c 2,6,-1
 97 471 l 1,7,-1
 86 471 l 2,8,9
 68 471 68 471 56.5 482.5 c 128,-1,10
 45 494 45 494 45 515 c 0,11,12
 45 579 45 579 117 579 c 2,13,-1
 253 579 l 2,14,15
 301 579 301 579 301 534 c 0,16,17
 301 504 301 504 282.5 487.5 c 128,-1,18
 264 471 264 471 232 471 c 2,19,-1
 227 471 l 1,20,-1
 269 134 l 1,21,-1
 456 471 l 1,22,-1
 451 471 l 2,23,24
 401 471 401 471 401 515 c 0,25,26
 401 545 401 545 419.5 562 c 128,-1,27
 438 579 438 579 473 579 c 2,28,-1
 592 579 l 2,29,30
 640 579 640 579 640 534 c 0,31,32
 640 506 640 506 622.5 488.5 c 128,-1,33
 605 471 605 471 580 471 c 2,34,-1
 572 471 l 1,35,-1
 325 26 l 2,0,1
EndSplineSet
EndChar
StartChar: W
Encoding: 87 87 58
Width: 602
Flags: W
LayerCount: 2
Back
Fore
SplineSet
300 309 m 1,0,-1
 148 23 l 2,1,2
 135 0 135 0 107 0 c 2,3,-1
 76 0 l 2,4,5
 58 0 58 0 52 3 c 128,-1,6
 46 6 46 6 46 17 c 0,7,8
 46 18 46 18 46.5 22 c 128,-1,9
 47 26 47 26 47 28 c 2,10,-1
 92 471 l 1,11,-1
 81 471 l 2,12,13
 63 471 63 471 51.5 482.5 c 128,-1,14
 40 494 40 494 40 515 c 0,15,16
 40 579 40 579 112 579 c 2,17,-1
 224 579 l 2,18,19
 272 579 272 579 272 534 c 0,20,21
 272 504 272 504 253.5 487.5 c 128,-1,22
 235 471 235 471 203 471 c 2,23,-1
 198 471 l 1,24,-1
 158 204 l 1,25,-1
 257 393 l 2,26,27
 272 422 272 422 286.5 432 c 128,-1,28
 301 442 301 442 330 442 c 0,29,30
 353 442 353 442 364 431.5 c 128,-1,31
 375 421 375 421 378 393 c 2,32,-1
 397 203 l 1,33,-1
 472 471 l 1,34,-1
 467 471 l 2,35,36
 418 471 418 471 418 515 c 0,37,38
 418 545 418 545 436.5 562 c 128,-1,39
 455 579 455 579 490 579 c 2,40,-1
 597 579 l 2,41,42
 645 579 645 579 645 534 c 0,43,44
 645 506 645 506 627.5 488.5 c 128,-1,45
 610 471 610 471 585 471 c 2,46,-1
 577 471 l 1,47,-1
 438 28 l 2,48,49
 433 12 433 12 426 6 c 128,-1,50
 419 0 419 0 403 0 c 2,51,-1
 367 0 l 2,52,53
 349 0 349 0 343 5 c 128,-1,54
 337 10 337 10 335 27 c 2,55,-1
 300 309 l 1,0,-1
EndSplineSet
EndChar
StartChar: X
Encoding: 88 88 59
Width: 602
Flags: W
LayerCount: 2
Back
Fore
SplineSet
197 108 m 1,0,1
 241 101 241 101 241 64 c 0,2,3
 241 0 241 0 169 0 c 2,4,-1
 48 0 l 2,5,6
 0 0 0 0 0 44 c 0,7,8
 0 72 0 72 17.5 90 c 128,-1,9
 35 108 35 108 60 108 c 2,10,-1
 74 108 l 1,11,-1
 243 297 l 1,12,-1
 152 471 l 1,13,-1
 139 471 l 2,14,15
 121 471 121 471 109.5 482.5 c 128,-1,16
 98 494 98 494 98 515 c 0,17,18
 98 579 98 579 170 579 c 2,19,-1
 292 579 l 2,20,21
 334 579 334 579 334 535 c 0,22,23
 334 474 334 474 273 471 c 1,24,-1
 321 380 l 1,25,-1
 399 471 l 1,26,27
 358 472 358 472 358 514 c 0,28,29
 358 579 358 579 417 579 c 2,30,-1
 533 579 l 2,31,32
 580 579 580 579 580 534 c 0,33,34
 580 479 580 479 521 471 c 1,35,-1
 367 296 l 1,36,-1
 468 108 l 1,37,-1
 478 108 l 2,38,39
 496 108 496 108 508 96 c 128,-1,40
 520 84 520 84 520 64 c 0,41,42
 520 0 520 0 448 0 c 2,43,-1
 313 0 l 2,44,45
 271 0 271 0 271 44 c 0,46,47
 271 108 271 108 335 108 c 2,48,-1
 341 108 l 1,49,-1
 287 212 l 1,50,-1
 197 108 l 1,0,1
EndSplineSet
EndChar
StartChar: Y
Encoding: 89 89 60
Width: 602
Flags: W
LayerCount: 2
Back
Fore
SplineSet
139 471 m 1,0,-1
 126 471 l 2,1,2
 108 471 108 471 96.5 482.5 c 128,-1,3
 85 494 85 494 85 515 c 0,4,5
 85 579 85 579 157 579 c 2,6,-1
 282 579 l 2,7,8
 324 579 324 579 324 535 c 0,9,10
 324 480 324 480 271 471 c 1,11,-1
 307 326 l 1,12,-1
 406 471 l 1,13,14
 364 472 364 472 364 514 c 0,15,16
 364 579 364 579 424 579 c 2,17,-1
 539 579 l 2,18,19
 587 579 587 579 587 534 c 0,20,21
 587 479 587 479 527 471 c 1,22,-1
 345 223 l 1,23,-1
 322 108 l 1,24,-1
 397 108 l 2,25,26
 416 108 416 108 427.5 96 c 128,-1,27
 439 84 439 84 439 64 c 0,28,29
 439 0 439 0 367 0 c 2,30,-1
 111 0 l 2,31,32
 63 0 63 0 63 44 c 0,33,34
 63 72 63 72 80.5 90 c 128,-1,35
 98 108 98 108 123 108 c 2,36,-1
 199 108 l 1,37,-1
 220 212 l 1,38,-1
 139 471 l 1,0,-1
EndSplineSet
EndChar
StartChar: Z
Encoding: 90 90 61
Width: 602
Flags: W
LayerCount: 2
Back
Fore
SplineSet
221 404 m 2,0,1
 214 373 214 373 204 360.5 c 128,-1,2
 194 348 194 348 167 348 c 0,3,4
 123 348 123 348 123 384 c 0,5,6
 123 396 123 396 126 413 c 2,7,-1
 152 538 l 2,8,9
 161 579 161 579 204 579 c 2,10,-1
 469 579 l 2,11,12
 536 579 536 579 536 536 c 0,13,14
 536 506 536 506 521 487 c 2,15,-1
 212 108 l 1,16,-1
 359 108 l 1,17,-1
 372 175 l 2,18,19
 380 215 380 215 393 230.5 c 128,-1,20
 406 246 406 246 434 246 c 0,21,22
 479 246 479 246 479 203 c 0,23,24
 479 195 479 195 476 183 c 2,25,-1
 445 39 l 2,26,27
 441 17 441 17 430.5 8.5 c 128,-1,28
 420 0 420 0 400 0 c 2,29,-1
 112 0 l 2,30,31
 45 0 45 0 45 42 c 0,32,33
 45 74 45 74 60 91 c 2,34,-1
 369 470 l 1,35,-1
 236 470 l 1,36,-1
 221 404 l 2,0,1
EndSplineSet
EndChar
StartChar: bracketleft
Encoding: 91 91 62
Width: 602
Flags: W
LayerCount: 2
Back
Fore
SplineSet
277 -102 m 1,0,-1
 341 -102 l 2,1,2
 368 -102 368 -102 368 -131 c 128,-1,3
 368 -160 368 -160 357 -170 c 128,-1,4
 346 -180 346 -180 319 -180 c 2,5,-1
 180 -181 l 2,6,7
 144 -181 144 -181 144 -153 c 0,8,9
 144 -149 144 -149 146 -141 c 2,10,-1
 291 538 l 2,11,12
 296 559 296 559 305 568.5 c 128,-1,13
 314 578 314 578 332 578 c 2,14,-1
 491 579 l 2,15,16
 518 579 518 579 518 550 c 128,-1,17
 518 521 518 521 507 510.5 c 128,-1,18
 496 500 496 500 469 500 c 2,19,-1
 406 500 l 1,20,-1
 277 -102 l 1,0,-1
EndSplineSet
EndChar
StartChar: backslash
Encoding: 92 92 63
Width: 602
Flags: W
LayerCount: 2
Back
Fore
SplineSet
96 603 m 2,0,1
 81 635 81 635 81 654 c 0,2,3
 81 676 81 676 98 689.5 c 128,-1,4
 115 703 115 703 136 703 c 0,5,6
 154 703 154 703 166 690 c 128,-1,7
 178 677 178 677 191 648 c 2,8,-1
 506 -26 l 2,9,10
 522 -60 522 -60 522 -75 c 0,11,12
 522 -97 522 -97 504.5 -111 c 128,-1,13
 487 -125 487 -125 466 -125 c 0,14,15
 436 -125 436 -125 411 -70 c 2,16,-1
 96 603 l 2,0,1
EndSplineSet
EndChar
StartChar: bracketright
Encoding: 93 93 64
Width: 602
Flags: W
LayerCount: 2
Back
Fore
SplineSet
308 500 m 1,0,-1
 244 500 l 2,1,2
 217 500 217 500 217 529 c 128,-1,3
 217 558 217 558 228 568 c 128,-1,4
 239 578 239 578 266 578 c 2,5,-1
 405 579 l 2,6,7
 441 579 441 579 441 551 c 0,8,9
 441 547 441 547 439 539 c 2,10,-1
 294 -140 l 2,11,12
 289 -161 289 -161 280 -170.5 c 128,-1,13
 271 -180 271 -180 253 -180 c 2,14,-1
 94 -181 l 2,15,16
 67 -181 67 -181 67 -151 c 0,17,18
 67 -122 67 -122 78 -112 c 128,-1,19
 89 -102 89 -102 116 -102 c 2,20,-1
 179 -102 l 1,21,-1
 308 500 l 1,0,-1
EndSplineSet
EndChar
StartChar: underscore
Encoding: 95 95 66
Width: 602
Flags: W
LayerCount: 2
Back
Fore
SplineSet
602 -207 m 2,0,1
 625 -207 625 -207 625 -233 c 2,2,-1
 625 -280 l 2,3,4
 625 -292 625 -292 618 -300.5 c 128,-1,5
 611 -309 611 -309 602 -309 c 2,6,-1
 0 -309 l 2,7,8
 -22 -309 -22 -309 -22 -280 c 2,9,-1
 -22 -233 l 2,10,11
 -22 -221 -22 -221 -15.5 -214 c 128,-1,12
 -9 -207 -9 -207 0 -207 c 2,13,-1
 602 -207 l 2,0,1
EndSplineSet
EndChar
StartChar: grave
Encoding: 96 96 126
Width: 602
Flags: W
LayerCount: 2
Back
Fore
SplineSet
362 499 m 1,0,-1
 143 585 l 2,1,2
 127 591 127 591 127 608 c 0,3,4
 127 616 127 616 130 620 c 2,5,-1
 155 658 l 2,6,7
 164 672 164 672 178 672 c 0,8,9
 187 672 187 672 196 666 c 2,10,-1
 386 535 l 1,11,-1
 362 499 l 1,0,-1
EndSplineSet
EndChar
StartChar: b
Encoding: 98 98 69
Width: 602
Flags: W
LayerCount: 2
Back
Fore
SplineSet
319 357 m 0,0,1
 265 357 265 357 227 311 c 128,-1,2
 189 265 189 265 189 198 c 0,3,4
 189 149 189 149 214 121 c 128,-1,5
 239 93 239 93 283 93 c 0,6,7
 337 93 337 93 374.5 139 c 128,-1,8
 412 185 412 185 412 256 c 0,9,10
 412 300 412 300 386 328.5 c 128,-1,11
 360 357 360 357 319 357 c 0,0,1
27 0 m 2,12,13
 -20 0 -20 0 -20 44 c 0,14,15
 -20 74 -20 74 -2 91 c 128,-1,16
 16 108 16 108 49 108 c 2,17,-1
 54 108 l 1,18,-1
 144 530 l 1,19,-1
 131 530 l 2,20,21
 113 530 113 530 101.5 542 c 128,-1,22
 90 554 90 554 90 575 c 0,23,24
 90 639 90 639 162 639 c 2,25,-1
 254 639 l 2,26,27
 275 639 275 639 275 619 c 0,28,29
 275 618 275 618 274.5 616 c 128,-1,30
 274 614 274 614 274 613 c 2,31,-1
 232 415 l 1,32,33
 288 463 288 463 361 463 c 0,34,35
 444 463 444 463 492.5 410 c 128,-1,36
 541 357 541 357 541 260 c 0,37,38
 541 145 541 145 469.5 68.5 c 128,-1,39
 398 -8 398 -8 293 -8 c 0,40,41
 207 -8 207 -8 156 52 c 1,42,-1
 150 34 l 2,43,44
 144 15 144 15 138 7.5 c 128,-1,45
 132 0 132 0 117 0 c 2,46,-1
 27 0 l 2,12,13
EndSplineSet
EndChar
StartChar: c
Encoding: 99 99 70
Width: 602
Flags: W
LayerCount: 2
Back
Fore
SplineSet
468 423 m 1,0,1
 479 464 479 464 514 464 c 0,2,3
 537 464 537 464 547 455.5 c 128,-1,4
 557 447 557 447 557 426 c 0,5,6
 557 422 557 422 555 410 c 2,7,-1
 535 301 l 2,8,9
 526 251 526 251 478 251 c 0,10,11
 463 251 463 251 453.5 258.5 c 128,-1,12
 444 266 444 266 440.5 272.5 c 128,-1,13
 437 279 437 279 428 300 c 0,14,15
 414 331 414 331 392 345.5 c 128,-1,16
 370 360 370 360 327 360 c 0,17,18
 250 360 250 360 203 312.5 c 128,-1,19
 156 265 156 265 156 192 c 0,20,21
 156 146 156 146 186 117.5 c 128,-1,22
 216 89 216 89 267 89 c 0,23,24
 311 89 311 89 351.5 105 c 128,-1,25
 392 121 392 121 419.5 137 c 128,-1,26
 447 153 447 153 459 153 c 0,27,28
 478 153 478 153 490.5 139.5 c 128,-1,29
 503 126 503 126 503 105 c 0,30,31
 503 62 503 62 428.5 25.5 c 128,-1,32
 354 -11 354 -11 254 -11 c 0,33,34
 146 -11 146 -11 86.5 39.5 c 128,-1,35
 27 90 27 90 27 178 c 0,36,37
 27 300 27 300 112 381.5 c 128,-1,38
 197 463 197 463 330 463 c 0,39,40
 416 463 416 463 468 423 c 1,0,1
EndSplineSet
EndChar
StartChar: d
Encoding: 100 100 71
Width: 602
Flags: W
LayerCount: 2
Back
Fore
SplineSet
257 95 m 0,0,1
 311 95 311 95 349 142 c 128,-1,2
 387 189 387 189 387 257 c 0,3,4
 387 307 387 307 361.5 335.5 c 128,-1,5
 336 364 336 364 293 364 c 0,6,7
 240 364 240 364 202.5 316.5 c 128,-1,8
 165 269 165 269 165 197 c 0,9,10
 165 152 165 152 190.5 123.5 c 128,-1,11
 216 95 216 95 257 95 c 0,0,1
443 531 m 1,12,-1
 390 531 l 2,13,14
 340 531 340 531 340 575 c 0,15,16
 340 605 340 605 358.5 622 c 128,-1,17
 377 639 377 639 412 639 c 2,18,-1
 561 639 l 2,19,20
 582 639 582 639 582 623 c 0,21,22
 582 622 582 622 581.5 620 c 128,-1,23
 581 618 581 618 581 617 c 2,24,-1
 471 109 l 1,25,-1
 484 109 l 2,26,27
 502 109 502 109 514 96.5 c 128,-1,28
 526 84 526 84 526 64 c 0,29,30
 526 0 526 0 454 0 c 2,31,-1
 384 0 l 2,32,33
 363 0 363 0 363 20 c 0,34,35
 363 21 363 21 363.5 23 c 128,-1,36
 364 25 364 25 364 26 c 2,37,-1
 373 66 l 1,38,39
 306 -11 306 -11 211 -11 c 0,40,41
 130 -11 130 -11 82.5 42.5 c 128,-1,42
 35 96 35 96 35 192 c 0,43,44
 35 306 35 306 106 384.5 c 128,-1,45
 177 463 177 463 281 463 c 0,46,47
 360 463 360 463 414 405 c 1,48,-1
 443 531 l 1,12,-1
EndSplineSet
EndChar
StartChar: e
Encoding: 101 101 72
Width: 602
Flags: W
LayerCount: 2
Back
Fore
SplineSet
169 272 m 1,0,-1
 412 272 l 1,1,2
 412 276 412 276 412 279 c 128,-1,3
 412 282 412 282 412 284 c 2,4,-1
 413 286 l 1,5,6
 413 322 413 322 386 344 c 128,-1,7
 359 366 359 366 312 366 c 0,8,9
 259 366 259 366 221 341.5 c 128,-1,10
 183 317 183 317 169 272 c 1,0,-1
162 197 m 1,11,-1
 162 188 l 2,12,13
 162 140 162 140 190.5 114 c 128,-1,14
 219 88 219 88 273 88 c 0,15,16
 315 88 315 88 356 104 c 128,-1,17
 397 120 397 120 425.5 136.5 c 128,-1,18
 454 153 454 153 466 153 c 0,19,20
 485 153 485 153 497.5 139.5 c 128,-1,21
 510 126 510 126 510 105 c 0,22,23
 510 62 510 62 435 25 c 128,-1,24
 360 -12 360 -12 260 -12 c 0,25,26
 156 -12 156 -12 95 41 c 128,-1,27
 34 94 34 94 34 183 c 0,28,29
 34 302 34 302 115 382.5 c 128,-1,30
 196 463 196 463 319 463 c 0,31,32
 419 463 419 463 478 405.5 c 128,-1,33
 537 348 537 348 537 258 c 0,34,35
 537 219 537 219 516.5 208 c 128,-1,36
 496 197 496 197 446 197 c 2,37,-1
 162 197 l 1,11,-1
EndSplineSet
EndChar
StartChar: f
Encoding: 102 102 73
Width: 602
Flags: W
LayerCount: 2
Back
Fore
SplineSet
374 436 m 1,0,-1
 466 436 l 2,1,2
 498 436 498 436 512 426 c 128,-1,3
 526 416 526 416 526 391 c 0,4,5
 526 328 526 328 452 328 c 2,6,-1
 351 328 l 1,7,-1
 305 108 l 1,8,-1
 406 108 l 2,9,10
 457 108 457 108 457 63 c 0,11,12
 457 0 457 0 383 0 c 2,13,-1
 108 0 l 2,14,15
 90 0 90 0 78.5 12 c 128,-1,16
 67 24 67 24 67 45 c 0,17,18
 67 109 67 109 139 109 c 2,19,-1
 188 109 l 1,20,-1
 234 328 l 1,21,-1
 178 328 l 2,22,23
 160 328 160 328 148.5 340 c 128,-1,24
 137 352 137 352 137 373 c 0,25,26
 137 437 137 437 209 437 c 2,27,-1
 258 437 l 1,28,29
 273 544 273 544 326 591.5 c 128,-1,30
 379 639 379 639 484 639 c 0,31,32
 615 639 615 639 615 580 c 0,33,34
 615 560 615 560 600.5 547 c 128,-1,35
 586 534 586 534 561 534 c 0,36,37
 547 534 547 534 517.5 538.5 c 128,-1,38
 488 543 488 543 472 543 c 0,39,40
 428 543 428 543 406.5 519.5 c 128,-1,41
 385 496 385 496 374 436 c 1,0,-1
EndSplineSet
EndChar
StartChar: g
Encoding: 103 103 74
Width: 602
Flags: W
LayerCount: 2
Back
Fore
SplineSet
260 108 m 0,0,1
 314 108 314 108 352.5 153 c 128,-1,2
 391 198 391 198 391 263 c 0,3,4
 391 310 391 310 366 337 c 128,-1,5
 341 364 341 364 297 364 c 0,6,7
 243 364 243 364 206 319.5 c 128,-1,8
 169 275 169 275 169 206 c 0,9,10
 169 163 169 163 194 135.5 c 128,-1,11
 219 108 219 108 260 108 c 0,0,1
549 451 m 2,12,13
 600 451 600 451 600 407 c 0,14,15
 600 344 600 344 525 344 c 1,16,-1
 467 59 l 2,17,18
 457 12 457 12 451 -12.5 c 128,-1,19
 445 -37 445 -37 430.5 -68.5 c 128,-1,20
 416 -100 416 -100 396 -121 c 0,21,22
 358 -162 358 -162 305.5 -178.5 c 128,-1,23
 253 -195 253 -195 175 -195 c 0,24,25
 35 -195 35 -195 35 -131 c 0,26,27
 35 -106 35 -106 52 -91.5 c 128,-1,28
 69 -77 69 -77 100 -77 c 0,29,30
 110 -77 110 -77 144 -83 c 128,-1,31
 178 -89 178 -89 202 -89 c 0,32,33
 267 -89 267 -89 301.5 -55 c 128,-1,34
 336 -21 336 -21 353 57 c 1,35,36
 288 8 288 8 215 8 c 0,37,38
 134 8 134 8 86.5 60 c 128,-1,39
 39 112 39 112 39 203 c 0,40,41
 39 312 39 312 109.5 387.5 c 128,-1,42
 180 463 180 463 285 463 c 0,43,44
 374 463 374 463 430 391 c 1,45,-1
 437 421 l 2,46,47
 441 439 441 439 447.5 445 c 128,-1,48
 454 451 454 451 472 451 c 2,49,-1
 549 451 l 2,12,13
EndSplineSet
EndChar
StartChar: h
Encoding: 104 104 75
Width: 602
Flags: W
LayerCount: 2
Back
Fore
SplineSet
190 108 m 1,0,1
 240 108 240 108 240 63 c 0,2,3
 240 0 240 0 168 0 c 2,4,-1
 47 0 l 2,5,6
 -1 0 -1 0 -1 44 c 0,7,8
 -1 74 -1 74 17 91 c 128,-1,9
 35 108 35 108 68 108 c 2,10,-1
 73 108 l 1,11,-1
 163 530 l 1,12,-1
 150 530 l 2,13,14
 132 530 132 530 120 542.5 c 128,-1,15
 108 555 108 555 108 575 c 0,16,17
 108 639 108 639 180 639 c 2,18,-1
 278 639 l 2,19,20
 299 639 299 639 299 619 c 0,21,22
 299 618 299 618 298.5 616 c 128,-1,23
 298 614 298 614 298 613 c 2,24,-1
 253 406 l 1,25,26
 312 463 312 463 388 463 c 0,27,28
 445 463 445 463 478.5 430.5 c 128,-1,29
 512 398 512 398 512 340 c 0,30,31
 512 312 512 312 506 282 c 2,32,-1
 469 108 l 1,33,34
 520 108 520 108 520 63 c 0,35,36
 520 0 520 0 446 0 c 2,37,-1
 330 0 l 2,38,39
 286 0 286 0 286 44 c 0,40,41
 286 102 286 102 349 108 c 1,42,-1
 385 277 l 2,43,44
 387 286 387 286 387 304 c 0,45,46
 387 360 387 360 337 360 c 0,47,48
 301 360 301 360 266.5 330.5 c 128,-1,49
 232 301 232 301 222 255 c 2,50,-1
 190 108 l 1,0,1
EndSplineSet
EndChar
StartChar: i
Encoding: 105 105 76
Width: 602
Flags: W
LayerCount: 2
Back
Fore
SplineSet
353 519 m 0,0,1
 321 519 321 519 310.5 523.5 c 128,-1,2
 300 528 300 528 300 545 c 0,3,4
 300 592 300 592 323 641 c 0,5,6
 331 660 331 660 343 666 c 128,-1,7
 355 672 355 672 383 672 c 0,8,9
 415 672 415 672 424 665.5 c 128,-1,10
 433 659 433 659 433 633 c 0,11,12
 433 594 433 594 413 549 c 0,13,14
 404 529 404 529 393 524 c 128,-1,15
 382 519 382 519 353 519 c 0,0,1
431 108 m 2,16,17
 482 108 482 108 482 63 c 0,18,19
 482 0 482 0 408 0 c 2,20,-1
 95 0 l 2,21,22
 48 0 48 0 48 44 c 0,23,24
 48 108 48 108 122 108 c 2,25,-1
 214 108 l 1,26,-1
 263 343 l 1,27,-1
 203 343 l 2,28,29
 185 343 185 343 173 355.5 c 128,-1,30
 161 368 161 368 161 388 c 0,31,32
 161 451 161 451 233 451 c 2,33,-1
 381 451 l 2,34,35
 403 451 403 451 403 431 c 0,36,37
 403 430 403 430 402.5 428 c 128,-1,38
 402 426 402 426 402 425 c 2,39,-1
 334 108 l 1,40,-1
 431 108 l 2,16,17
EndSplineSet
EndChar
StartChar: j
Encoding: 106 106 77
Width: 602
Flags: W
LayerCount: 2
Back
Fore
SplineSet
322 343 m 1,0,-1
 155 343 l 2,1,2
 137 343 137 343 125 355.5 c 128,-1,3
 113 368 113 368 113 388 c 0,4,5
 113 451 113 451 185 451 c 2,6,-1
 441 451 l 2,7,8
 462 451 462 451 462 431 c 0,9,10
 462 430 462 430 461.5 428 c 128,-1,11
 461 426 461 426 461 425 c 2,12,-1
 381 51 l 2,13,14
 362 -38 362 -38 334 -88.5 c 128,-1,15
 306 -139 306 -139 251 -167 c 128,-1,16
 196 -195 196 -195 106 -195 c 0,17,18
 -19 -195 -19 -195 -19 -132 c 0,19,20
 -19 -107 -19 -107 -2.5 -92 c 128,-1,21
 14 -77 14 -77 44 -77 c 0,22,23
 58 -77 58 -77 89 -82 c 128,-1,24
 120 -87 120 -87 136 -87 c 0,25,26
 186 -87 186 -87 215 -57 c 128,-1,27
 244 -27 244 -27 258 37 c 2,28,-1
 322 343 l 1,0,-1
391 519 m 0,29,30
 359 519 359 519 348.5 523.5 c 128,-1,31
 338 528 338 528 338 545 c 0,32,33
 338 592 338 592 361 641 c 0,34,35
 369 660 369 660 380.5 666 c 128,-1,36
 392 672 392 672 420 672 c 0,37,38
 452 672 452 672 461 665.5 c 128,-1,39
 470 659 470 659 470 633 c 0,40,41
 470 591 470 591 451 549 c 0,42,43
 442 529 442 529 431 524 c 128,-1,44
 420 519 420 519 391 519 c 0,29,30
EndSplineSet
EndChar
StartChar: k
Encoding: 107 107 78
Width: 602
Flags: W
LayerCount: 2
Back
Fore
SplineSet
54 0 m 2,0,1
 7 0 7 0 7 44 c 0,2,3
 7 74 7 74 25 91 c 128,-1,4
 43 108 43 108 76 108 c 2,5,-1
 81 108 l 1,6,-1
 170 530 l 1,7,-1
 157 530 l 2,8,9
 139 530 139 530 127 542.5 c 128,-1,10
 115 555 115 555 115 575 c 0,11,12
 115 639 115 639 187 639 c 2,13,-1
 282 639 l 2,14,15
 304 639 304 639 304 619 c 0,16,17
 304 618 304 618 303.5 616 c 128,-1,18
 303 614 303 614 303 613 c 2,19,-1
 227 265 l 1,20,-1
 346 360 l 1,21,22
 327 374 327 374 327 394 c 0,23,24
 327 420 327 420 342.5 435.5 c 128,-1,25
 358 451 358 451 385 451 c 2,26,-1
 506 451 l 1,27,-1
 519 451 l 2,28,29
 535 451 535 451 546 440 c 128,-1,30
 557 429 557 429 557 410 c 0,31,32
 557 385 557 385 546.5 374 c 128,-1,33
 536 363 536 363 512 356 c 0,34,35
 490 350 490 350 472 342 c 128,-1,36
 454 334 454 334 447 329.5 c 128,-1,37
 440 325 440 325 428.5 315.5 c 128,-1,38
 417 306 417 306 416 305 c 2,39,-1
 371 270 l 1,40,-1
 460 108 l 1,41,-1
 476 108 l 2,42,43
 527 108 527 108 527 63 c 0,44,45
 527 0 527 0 453 0 c 2,46,-1
 319 0 l 2,47,48
 282 0 282 0 282 37 c 0,49,50
 282 60 282 60 295.5 74.5 c 128,-1,51
 309 89 309 89 332 90 c 1,52,-1
 277 194 l 1,53,-1
 200 132 l 1,54,-1
 178 33 l 2,55,56
 174 13 174 13 168.5 6.5 c 128,-1,57
 163 0 163 0 145 0 c 2,58,-1
 54 0 l 2,0,1
EndSplineSet
EndChar
StartChar: l
Encoding: 108 108 79
Width: 602
Flags: W
LayerCount: 2
Back
Fore
SplineSet
180 0 m 1,0,-1
 203 108 l 1,1,-1
 293 530 l 1,2,-1
 232 530 l 2,3,4
 214 530 214 530 202.5 542 c 128,-1,5
 191 554 191 554 191 575 c 0,6,7
 191 639 191 639 263 639 c 2,8,-1
 411 639 l 2,9,10
 432 639 432 639 432 619 c 0,11,12
 432 618 432 618 431.5 616 c 128,-1,13
 431 614 431 614 431 613 c 2,14,-1
 324 108 l 1,15,-1
 421 108 l 2,16,17
 472 108 472 108 472 63 c 0,18,19
 472 0 472 0 398 0 c 2,20,-1
 180 0 l 1,0,-1
EndSplineSet
EndChar
StartChar: m
Encoding: 109 109 80
Width: 602
Flags: W
LayerCount: 2
Back
Fore
SplineSet
70 343 m 1,0,-1
 55 343 l 2,1,2
 37 343 37 343 25.5 355 c 128,-1,3
 14 367 14 367 14 388 c 0,4,5
 14 451 14 451 86 451 c 2,6,-1
 164 451 l 2,7,8
 184 451 184 451 184 435 c 0,9,10
 184 434 184 434 183.5 432 c 128,-1,11
 183 430 183 430 183 429 c 2,12,-1
 179 410 l 1,13,14
 235 463 235 463 287 463 c 0,15,16
 341 463 341 463 359 407 c 1,17,18
 423 463 423 463 479 463 c 0,19,20
 522 463 522 463 547 438 c 128,-1,21
 572 413 572 413 572 369 c 0,22,23
 572 344 572 344 558 279 c 2,24,-1
 520 108 l 1,25,26
 564 105 564 105 564 63 c 0,27,28
 564 0 564 0 492 0 c 2,29,-1
 421 0 l 2,30,31
 395 0 395 0 395 22 c 0,32,33
 395 26 395 26 397 36 c 2,34,-1
 451 291 l 2,35,36
 456 314 456 314 456 327 c 0,37,38
 456 343 456 343 448 352 c 128,-1,39
 440 361 440 361 426 361 c 0,40,41
 407 361 407 361 388 337.5 c 128,-1,42
 369 314 369 314 361 279 c 2,43,-1
 323 108 l 1,44,45
 367 105 367 105 367 63 c 0,46,47
 367 0 367 0 295 0 c 2,48,-1
 224 0 l 2,49,50
 199 0 199 0 199 21 c 0,51,52
 199 26 199 26 201 36 c 2,53,-1
 255 291 l 2,54,55
 260 314 260 314 260 327 c 0,56,57
 260 343 260 343 252 352 c 128,-1,58
 244 361 244 361 230 361 c 0,59,60
 211 361 211 361 192 337.5 c 128,-1,61
 173 314 173 314 165 279 c 2,62,-1
 126 108 l 1,63,64
 171 105 171 105 171 63 c 0,65,66
 171 0 171 0 99 0 c 2,67,-1
 -6 0 l 2,68,69
 -54 0 -54 0 -54 44 c 0,70,71
 -54 74 -54 74 -36 91 c 128,-1,72
 -18 108 -18 108 15 108 c 2,73,-1
 20 108 l 1,74,-1
 70 343 l 1,0,-1
EndSplineSet
EndChar
StartChar: n
Encoding: 110 110 81
Width: 602
Flags: W
LayerCount: 2
Back
Fore
SplineSet
190 108 m 1,0,1
 240 108 240 108 240 63 c 0,2,3
 240 0 240 0 168 0 c 2,4,-1
 47 0 l 2,5,6
 -1 0 -1 0 -1 44 c 0,7,8
 -1 74 -1 74 17 91 c 128,-1,9
 35 108 35 108 68 108 c 2,10,-1
 73 108 l 1,11,-1
 121 343 l 1,12,-1
 108 343 l 2,13,14
 90 343 90 343 78.5 355 c 128,-1,15
 67 367 67 367 67 388 c 0,16,17
 67 451 67 451 139 451 c 2,18,-1
 226 451 l 2,19,20
 247 451 247 451 247 431 c 0,21,22
 247 430 247 430 246.5 428 c 128,-1,23
 246 426 246 426 246 425 c 2,24,-1
 241 396 l 1,25,26
 311 463 311 463 388 463 c 0,27,28
 445 463 445 463 478.5 430.5 c 128,-1,29
 512 398 512 398 512 340 c 0,30,31
 512 312 512 312 506 282 c 2,32,-1
 469 108 l 1,33,34
 520 108 520 108 520 63 c 0,35,36
 520 0 520 0 446 0 c 2,37,-1
 330 0 l 2,38,39
 286 0 286 0 286 44 c 0,40,41
 286 102 286 102 349 108 c 1,42,-1
 385 277 l 2,43,44
 387 286 387 286 387 304 c 0,45,46
 387 360 387 360 337 360 c 0,47,48
 301 360 301 360 266.5 330.5 c 128,-1,49
 232 301 232 301 222 255 c 2,50,-1
 190 108 l 1,0,1
EndSplineSet
EndChar
StartChar: o
Encoding: 111 111 82
Width: 602
Flags: W
LayerCount: 2
Back
Fore
SplineSet
39 189 m 0,0,1
 39 303 39 303 121 383.5 c 128,-1,2
 203 464 203 464 324 464 c 0,3,4
 425 464 425 464 485 409 c 128,-1,5
 545 354 545 354 545 263 c 0,6,7
 545 149 545 149 463 68.5 c 128,-1,8
 381 -12 381 -12 259 -12 c 0,9,10
 159 -12 159 -12 99 42.5 c 128,-1,11
 39 97 39 97 39 189 c 0,0,1
313 364 m 0,12,13
 255 364 255 364 213 315.5 c 128,-1,14
 171 267 171 267 171 197 c 0,15,16
 171 147 171 147 199 117 c 128,-1,17
 227 87 227 87 274 87 c 0,18,19
 333 87 333 87 373 136 c 128,-1,20
 413 185 413 185 413 259 c 0,21,22
 413 305 413 305 385 334.5 c 128,-1,23
 357 364 357 364 313 364 c 0,12,13
EndSplineSet
EndChar
StartChar: p
Encoding: 112 112 83
Width: 602
Flags: W
LayerCount: 2
Back
Fore
SplineSet
328 357 m 0,0,1
 274 357 274 357 235.5 312.5 c 128,-1,2
 197 268 197 268 197 203 c 0,3,4
 197 156 197 156 222.5 129 c 128,-1,5
 248 102 248 102 291 102 c 0,6,7
 345 102 345 102 382.5 147 c 128,-1,8
 420 192 420 192 420 260 c 0,9,10
 420 302 420 302 394.5 329.5 c 128,-1,11
 369 357 369 357 328 357 c 0,0,1
140 -87 m 1,12,-1
 193 -87 l 2,13,14
 243 -87 243 -87 243 -131 c 0,15,16
 243 -194 243 -194 171 -194 c 2,17,-1
 -31 -194 l 2,18,19
 -78 -194 -78 -194 -78 -150 c 0,20,21
 -78 -87 -78 -87 -4 -87 c 2,22,-1
 21 -87 l 1,23,-1
 113 343 l 1,24,-1
 100 343 l 2,25,26
 82 343 82 343 70.5 355 c 128,-1,27
 59 367 59 367 59 388 c 0,28,29
 59 451 59 451 131 451 c 2,30,-1
 211 451 l 2,31,32
 231 451 231 451 231 430 c 2,33,-1
 231 425 l 1,34,-1
 226 392 l 1,35,36
 292 463 292 463 373 463 c 0,37,38
 451 463 451 463 500 410.5 c 128,-1,39
 549 358 549 358 549 268 c 0,40,41
 549 154 549 154 478 78.5 c 128,-1,42
 407 3 407 3 302 3 c 0,43,44
 222 3 222 3 171 53 c 1,45,-1
 140 -87 l 1,12,-1
EndSplineSet
EndChar
StartChar: q
Encoding: 113 113 84
Width: 602
Flags: W
LayerCount: 2
Back
Fore
SplineSet
258 104 m 0,0,1
 312 104 312 104 350 149.5 c 128,-1,2
 388 195 388 195 388 261 c 0,3,4
 388 309 388 309 363 337 c 128,-1,5
 338 365 338 365 294 365 c 0,6,7
 240 365 240 365 203 319 c 128,-1,8
 166 273 166 273 166 203 c 0,9,10
 166 159 166 159 191.5 131.5 c 128,-1,11
 217 104 217 104 258 104 c 0,0,1
553 451 m 2,12,13
 604 451 604 451 604 407 c 0,14,15
 604 344 604 344 530 344 c 1,16,-1
 439 -87 l 1,17,-1
 473 -87 l 2,18,19
 523 -87 523 -87 523 -131 c 0,20,21
 523 -194 523 -194 451 -194 c 2,22,-1
 252 -194 l 2,23,24
 205 -194 205 -194 205 -150 c 0,25,26
 205 -87 205 -87 278 -87 c 2,27,-1
 323 -87 l 1,28,-1
 352 54 l 1,29,30
 296 -1 296 -1 211 -1 c 0,31,32
 129 -1 129 -1 81.5 50.5 c 128,-1,33
 34 102 34 102 34 194 c 0,34,35
 34 308 34 308 105 385.5 c 128,-1,36
 176 463 176 463 283 463 c 0,37,38
 371 463 371 463 427 391 c 1,39,-1
 434 421 l 2,40,41
 438 439 438 439 444.5 445 c 128,-1,42
 451 451 451 451 469 451 c 2,43,-1
 553 451 l 2,12,13
EndSplineSet
EndChar
StartChar: r
Encoding: 114 114 85
Width: 602
Flags: W
LayerCount: 2
Back
Fore
SplineSet
337 108 m 2,0,1
 388 108 388 108 388 63 c 0,2,3
 388 0 388 0 314 0 c 2,4,-1
 83 0 l 2,5,6
 36 0 36 0 36 44 c 0,7,8
 36 74 36 74 54 91 c 128,-1,9
 72 108 72 108 105 108 c 2,10,-1
 110 108 l 1,11,-1
 158 343 l 1,12,-1
 145 343 l 2,13,14
 127 343 127 343 115 355.5 c 128,-1,15
 103 368 103 368 103 388 c 0,16,17
 103 451 103 451 175 451 c 2,18,-1
 263 451 l 2,19,20
 284 451 284 451 284 431 c 0,21,22
 284 430 284 430 283.5 428 c 128,-1,23
 283 426 283 426 283 425 c 2,24,-1
 268 354 l 1,25,26
 390 464 390 464 487 464 c 0,27,28
 527 464 527 464 549 444.5 c 128,-1,29
 571 425 571 425 571 392 c 0,30,31
 571 358 571 358 551.5 338 c 128,-1,32
 532 318 532 318 499 318 c 0,33,34
 473 318 473 318 443.5 334 c 128,-1,35
 414 350 414 350 405 350 c 0,36,37
 388 350 388 350 347.5 325.5 c 128,-1,38
 307 301 307 301 260 256 c 1,39,-1
 227 108 l 1,40,-1
 337 108 l 2,0,1
EndSplineSet
EndChar
StartChar: s
Encoding: 115 115 86
Width: 602
Flags: W
LayerCount: 2
Back
Fore
SplineSet
132 18 m 1,0,1
 118 -17 118 -17 87 -17 c 0,2,3
 45 -17 45 -17 45 21 c 0,4,5
 45 25 45 25 47 35 c 2,6,-1
 65 126 l 2,7,8
 74 169 74 169 115 169 c 0,9,10
 127 169 127 169 134.5 165 c 128,-1,11
 142 161 142 161 144.5 158.5 c 128,-1,12
 147 156 147 156 151.5 143.5 c 128,-1,13
 156 131 156 131 158 126 c 0,14,15
 183 70 183 70 277 70 c 0,16,17
 312 70 312 70 334.5 85.5 c 128,-1,18
 357 101 357 101 357 124 c 0,19,20
 357 149 357 149 336 161 c 128,-1,21
 315 173 315 173 266 186 c 0,22,23
 261 187 261 187 258 188 c 0,24,25
 178 210 178 210 144 239 c 128,-1,26
 110 268 110 268 110 320 c 0,27,28
 110 385 110 385 162 425 c 128,-1,29
 214 465 214 465 305 465 c 0,30,31
 372 465 372 465 448 444 c 1,32,33
 460 472 460 472 487 472 c 0,34,35
 527 472 527 472 527 435 c 0,36,37
 527 431 527 431 525 419 c 2,38,-1
 509 345 l 2,39,40
 503 311 503 311 469 311 c 0,41,42
 454 311 454 311 444 316.5 c 128,-1,43
 434 322 434 322 424 335 c 128,-1,44
 414 348 414 348 413 349 c 0,45,46
 378 386 378 386 316 386 c 0,47,48
 282 386 282 386 261.5 373 c 128,-1,49
 241 360 241 360 241 341 c 0,50,51
 241 334 241 334 243 328 c 128,-1,52
 245 322 245 322 250.5 317.5 c 128,-1,53
 256 313 256 313 261 310 c 128,-1,54
 266 307 266 307 276.5 303.5 c 128,-1,55
 287 300 287 300 294 298 c 128,-1,56
 301 296 301 296 315.5 292.5 c 128,-1,57
 330 289 330 289 338 287 c 0,58,59
 421 264 421 264 457 233.5 c 128,-1,60
 493 203 493 203 493 144 c 0,61,62
 493 75 493 75 436 31.5 c 128,-1,63
 379 -12 379 -12 282 -12 c 0,64,65
 207 -12 207 -12 132 18 c 1,0,1
EndSplineSet
EndChar
StartChar: t
Encoding: 116 116 87
Width: 602
Flags: W
LayerCount: 2
Back
Fore
SplineSet
159 314 m 1,0,-1
 108 314 l 2,1,2
 90 314 90 314 78.5 326 c 128,-1,3
 67 338 67 338 67 359 c 0,4,5
 67 423 67 423 139 423 c 2,6,-1
 183 423 l 1,7,-1
 207 538 l 2,8,9
 214 572 214 572 228.5 586 c 128,-1,10
 243 600 243 600 280 600 c 0,11,12
 327 600 327 600 327 556 c 0,13,14
 327 550 327 550 324 533 c 2,15,-1
 301 422 l 1,16,-1
 444 422 l 2,17,18
 495 422 495 422 495 378 c 0,19,20
 495 314 495 314 421 314 c 2,21,-1
 277 314 l 1,22,-1
 254 191 l 2,23,24
 248 161 248 161 248 143 c 0,25,26
 248 96 248 96 303 96 c 0,27,28
 341 96 341 96 394.5 120 c 128,-1,29
 448 144 448 144 464 144 c 0,30,31
 483 144 483 144 495.5 131.5 c 128,-1,32
 508 119 508 119 508 100 c 0,33,34
 508 60 508 60 436.5 26.5 c 128,-1,35
 365 -7 365 -7 263 -7 c 0,36,37
 123 -7 123 -7 123 102 c 0,38,39
 123 133 123 133 136 201 c 2,40,-1
 159 314 l 1,0,-1
EndSplineSet
EndChar
StartChar: u
Encoding: 117 117 88
Width: 602
Flags: W
LayerCount: 2
Back
Fore
SplineSet
387 344 m 1,0,1
 338 344 338 344 338 388 c 0,2,3
 338 451 338 451 410 451 c 2,4,-1
 502 451 l 2,5,6
 523 451 523 451 523 431 c 0,7,8
 523 430 523 430 522.5 428 c 128,-1,9
 522 426 522 426 522 425 c 2,10,-1
 456 109 l 1,11,-1
 469 109 l 2,12,13
 487 109 487 109 499 96.5 c 128,-1,14
 511 84 511 84 511 63 c 0,15,16
 511 0 511 0 439 0 c 2,17,-1
 351 0 l 2,18,19
 330 0 330 0 330 20 c 0,20,21
 330 21 330 21 330.5 23 c 128,-1,22
 331 25 331 25 331 26 c 2,23,-1
 337 56 l 1,24,25
 266 -12 266 -12 189 -12 c 0,26,27
 132 -12 132 -12 98.5 20.5 c 128,-1,28
 65 53 65 53 65 111 c 0,29,30
 65 134 65 134 72 169 c 2,31,-1
 109 344 l 1,32,33
 58 344 58 344 58 388 c 0,34,35
 58 451 58 451 132 451 c 2,36,-1
 226 451 l 2,37,38
 247 451 247 451 247 431 c 0,39,40
 247 430 247 430 246.5 428 c 128,-1,41
 246 426 246 426 246 425 c 2,42,-1
 192 174 l 2,43,44
 190 164 190 164 190 147 c 0,45,46
 190 91 190 91 240 91 c 0,47,48
 276 91 276 91 311 121 c 128,-1,49
 346 151 346 151 356 197 c 2,50,-1
 387 344 l 1,0,1
EndSplineSet
EndChar
StartChar: v
Encoding: 118 118 89
Width: 602
Flags: W
LayerCount: 2
Back
Fore
SplineSet
99 344 m 1,0,1
 75 348 75 348 65 357.5 c 128,-1,2
 55 367 55 367 55 388 c 0,3,4
 55 417 55 417 73 434 c 128,-1,5
 91 451 91 451 119 451 c 2,6,-1
 238 451 l 2,7,8
 289 451 289 451 289 407 c 0,9,10
 289 347 289 347 221 344 c 1,11,-1
 263 137 l 1,12,-1
 394 344 l 1,13,14
 370 348 370 348 360 357.5 c 128,-1,15
 350 367 350 367 350 388 c 0,16,17
 350 417 350 417 367.5 434 c 128,-1,18
 385 451 385 451 413 451 c 2,19,-1
 523 451 l 2,20,21
 574 451 574 451 574 407 c 0,22,23
 574 349 574 349 510 344 c 1,24,-1
 304 36 l 2,25,26
 283 4 283 4 268 -4 c 128,-1,27
 253 -12 253 -12 223 -12 c 128,-1,28
 193 -12 193 -12 184.5 -2.5 c 128,-1,29
 176 7 176 7 169 37 c 2,30,-1
 99 344 l 1,0,1
EndSplineSet
EndChar
StartChar: w
Encoding: 119 119 90
Width: 602
Flags: W
LayerCount: 2
Back
Fore
SplineSet
50 344 m 1,0,1
 25 348 25 348 15.5 357 c 128,-1,2
 6 366 6 366 6 388 c 0,3,4
 6 417 6 417 23.5 434 c 128,-1,5
 41 451 41 451 69 451 c 2,6,-1
 180 451 l 2,7,8
 231 451 231 451 231 407 c 0,9,10
 231 347 231 347 163 344 c 1,11,-1
 153 94 l 1,12,-1
 241 289 l 2,13,14
 254 316 254 316 267.5 327 c 128,-1,15
 281 338 281 338 307 338 c 0,16,17
 335 338 335 338 345 327.5 c 128,-1,18
 355 317 355 317 357 287 c 2,19,-1
 371 97 l 1,20,-1
 456 344 l 1,21,22
 432 348 432 348 422 357.5 c 128,-1,23
 412 367 412 367 412 388 c 0,24,25
 412 417 412 417 429.5 434 c 128,-1,26
 447 451 447 451 475 451 c 2,27,-1
 583 451 l 2,28,29
 634 451 634 451 634 407 c 0,30,31
 634 349 634 349 570 344 c 1,32,-1
 452 50 l 2,33,34
 439 16 439 16 420 2 c 128,-1,35
 401 -12 401 -12 365 -12 c 0,36,37
 331 -12 331 -12 316 1 c 128,-1,38
 301 14 301 14 299 46 c 2,39,-1
 287 243 l 1,40,-1
 192 33 l 2,41,42
 172 -12 172 -12 112 -12 c 0,43,44
 73 -12 73 -12 60.5 2 c 128,-1,45
 48 16 48 16 48 52 c 2,46,-1
 50 344 l 1,0,1
EndSplineSet
EndChar
StartChar: x
Encoding: 120 120 91
Width: 602
Flags: W
LayerCount: 2
Back
Fore
SplineSet
451 108 m 1,0,1
 475 104 475 104 485 94.5 c 128,-1,2
 495 85 495 85 495 64 c 0,3,4
 495 33 495 33 476.5 16.5 c 128,-1,5
 458 0 458 0 423 0 c 2,6,-1
 331 0 l 2,7,8
 281 0 281 0 281 46 c 0,9,10
 281 96 281 96 326 100 c 1,11,-1
 279 163 l 1,12,-1
 208 100 l 1,13,14
 225 90 225 90 225 69 c 0,15,16
 225 0 225 0 151 0 c 2,17,-1
 78 0 l 2,18,19
 27 0 27 0 27 44 c 0,20,21
 27 103 27 103 91 108 c 1,22,-1
 228 230 l 1,23,-1
 142 344 l 1,24,25
 118 348 118 348 108 357.5 c 128,-1,26
 98 367 98 367 98 388 c 0,27,28
 98 451 98 451 170 451 c 2,29,-1
 262 451 l 2,30,31
 288 451 288 451 300 440.5 c 128,-1,32
 312 430 312 430 312 406 c 0,33,34
 312 356 312 356 266 352 c 1,35,-1
 308 296 l 1,36,-1
 369 352 l 1,37,38
 352 362 352 362 352 382 c 0,39,40
 352 451 352 451 427 451 c 2,41,-1
 500 451 l 2,42,43
 550 451 550 451 550 407 c 0,44,45
 550 349 550 349 486 344 c 1,46,-1
 358 231 l 1,47,-1
 451 108 l 1,0,1
EndSplineSet
EndChar
StartChar: y
Encoding: 121 121 92
Width: 602
Flags: W
LayerCount: 2
Back
Fore
SplineSet
99 344 m 1,0,1
 75 348 75 348 65 357.5 c 128,-1,2
 55 367 55 367 55 388 c 0,3,4
 55 417 55 417 73 434 c 128,-1,5
 91 451 91 451 119 451 c 2,6,-1
 238 451 l 2,7,8
 289 451 289 451 289 407 c 0,9,10
 289 347 289 347 221 344 c 1,11,-1
 263 137 l 1,12,-1
 394 344 l 1,13,14
 370 348 370 348 360 357.5 c 128,-1,15
 350 367 350 367 350 388 c 0,16,17
 350 417 350 417 367.5 434 c 128,-1,18
 385 451 385 451 413 451 c 2,19,-1
 523 451 l 2,20,21
 574 451 574 451 574 407 c 0,22,23
 574 349 574 349 510 344 c 1,24,-1
 224 -87 l 1,25,-1
 247 -87 l 2,26,27
 298 -87 298 -87 298 -131 c 0,28,29
 298 -194 298 -194 224 -194 c 2,30,-1
 41 -194 l 2,31,32
 -6 -194 -6 -194 -6 -150 c 0,33,34
 -6 -115 -6 -115 14.5 -101 c 128,-1,35
 35 -87 35 -87 78 -87 c 2,36,-1
 110 -87 l 1,37,-1
 176 10 l 1,38,-1
 99 344 l 1,0,1
EndSplineSet
EndChar
StartChar: z
Encoding: 122 122 93
Width: 602
Flags: W
LayerCount: 2
Back
Fore
SplineSet
100 0 m 2,0,1
 49 0 49 0 49 49 c 0,2,3
 49 74 49 74 73 97 c 2,4,-1
 355 361 l 1,5,-1
 215 361 l 1,6,-1
 205 313 l 2,7,8
 195 267 195 267 156 267 c 0,9,10
 110 267 110 267 110 306 c 0,11,12
 110 311 110 311 112 321 c 2,13,-1
 133 415 l 2,14,15
 137 436 137 436 148 443.5 c 128,-1,16
 159 451 159 451 182 451 c 2,17,-1
 470 451 l 2,18,19
 522 451 522 451 522 403 c 0,20,21
 522 377 522 377 497 354 c 2,22,-1
 219 90 l 1,23,-1
 365 90 l 1,24,-1
 379 147 l 2,25,26
 391 193 391 193 428 193 c 0,27,28
 474 193 474 193 474 154 c 0,29,30
 474 149 474 149 472 139 c 2,31,-1
 452 38 l 2,32,33
 444 0 444 0 407 0 c 2,34,-1
 100 0 l 2,0,1
EndSplineSet
EndChar
StartChar: braceleft
Encoding: 123 123 94
Width: 602
Flags: W
LayerCount: 2
Back
Fore
SplineSet
261 44 m 2,0,1
 261 96 261 96 249 117.5 c 128,-1,2
 237 139 237 139 197 145 c 0,3,4
 143 152 143 152 143 198 c 128,-1,5
 143 244 143 244 197 251 c 0,6,7
 237 257 237 257 249 279 c 128,-1,8
 261 301 261 301 261 353 c 2,9,-1
 261 419 l 2,10,11
 261 503 261 503 297 542 c 128,-1,12
 333 581 333 581 421 581 c 0,13,14
 473 581 473 581 473 538 c 0,15,16
 473 523 473 523 464.5 514 c 128,-1,17
 456 505 456 505 445.5 502 c 128,-1,18
 435 499 435 499 414 495 c 0,19,20
 410 494 410 494 408 494 c 0,21,22
 382 489 382 489 374.5 471 c 128,-1,23
 367 453 367 453 367 409 c 2,24,-1
 367 361 l 2,25,26
 367 281 367 281 346.5 244.5 c 128,-1,27
 326 208 326 208 266 198 c 1,28,29
 326 188 326 188 346.5 152 c 128,-1,30
 367 116 367 116 367 36 c 2,31,-1
 367 -12 l 2,32,33
 367 -56 367 -56 373.5 -72.5 c 128,-1,34
 380 -89 380 -89 406 -96 c 0,35,36
 412 -98 412 -98 424 -100 c 128,-1,37
 436 -102 436 -102 443 -104 c 128,-1,38
 450 -106 450 -106 458 -110.5 c 128,-1,39
 466 -115 466 -115 469.5 -122.5 c 128,-1,40
 473 -130 473 -130 473 -141 c 0,41,42
 473 -184 473 -184 421 -184 c 0,43,44
 332 -184 332 -184 296.5 -145 c 128,-1,45
 261 -106 261 -106 261 -23 c 2,46,-1
 261 44 l 2,0,1
EndSplineSet
EndChar
StartChar: bar
Encoding: 124 124 95
Width: 602
Flags: W
LayerCount: 2
Back
Fore
SplineSet
358 -208 m 2,0,1
 358 -228 358 -228 342.5 -244.5 c 128,-1,2
 327 -261 327 -261 301 -261 c 0,3,4
 276 -261 276 -261 259.5 -245 c 128,-1,5
 243 -229 243 -229 243 -208 c 2,6,-1
 243 735 l 2,7,8
 243 755 243 755 259 771.5 c 128,-1,9
 275 788 275 788 301 788 c 0,10,11
 326 788 326 788 342 772 c 128,-1,12
 358 756 358 756 358 735 c 2,13,-1
 358 -208 l 2,0,1
EndSplineSet
EndChar
StartChar: braceright
Encoding: 125 125 96
Width: 602
Flags: W
LayerCount: 2
Back
Fore
SplineSet
337 353 m 2,0,1
 337 300 337 300 348.5 278.5 c 128,-1,2
 360 257 360 257 400 251 c 0,3,4
 454 244 454 244 454 198 c 128,-1,5
 454 152 454 152 400 145 c 0,6,7
 360 139 360 139 348.5 118 c 128,-1,8
 337 97 337 97 337 44 c 2,9,-1
 337 -23 l 2,10,11
 337 -106 337 -106 301 -145 c 128,-1,12
 265 -184 265 -184 176 -184 c 0,13,14
 124 -184 124 -184 124 -141 c 0,15,16
 124 -126 124 -126 132.5 -117 c 128,-1,17
 141 -108 141 -108 151.5 -105 c 128,-1,18
 162 -102 162 -102 183 -98 c 0,19,20
 187 -97 187 -97 189 -97 c 0,21,22
 215 -92 215 -92 222.5 -74 c 128,-1,23
 230 -56 230 -56 230 -12 c 2,24,-1
 230 36 l 2,25,26
 230 116 230 116 250.5 152 c 128,-1,27
 271 188 271 188 331 198 c 1,28,29
 271 208 271 208 250.5 244.5 c 128,-1,30
 230 281 230 281 230 361 c 2,31,-1
 230 409 l 2,32,33
 230 453 230 453 223.5 469.5 c 128,-1,34
 217 486 217 486 191 493 c 0,35,36
 185 495 185 495 173 497 c 128,-1,37
 161 499 161 499 154 501 c 128,-1,38
 147 503 147 503 139 507.5 c 128,-1,39
 131 512 131 512 127.5 519.5 c 128,-1,40
 124 527 124 527 124 538 c 0,41,42
 124 581 124 581 176 581 c 0,43,44
 265 581 265 581 301 541.5 c 128,-1,45
 337 502 337 502 337 419 c 2,46,-1
 337 353 l 2,0,1
EndSplineSet
EndChar
StartChar: asciitilde
Encoding: 126 126 97
Width: 602
Flags: W
LayerCount: 2
Back
Fore
SplineSet
50 286 m 0,0,1
 50 319 50 319 95 349.5 c 128,-1,2
 140 380 140 380 199 380 c 0,3,4
 237 380 237 380 305.5 359 c 128,-1,5
 374 338 374 338 403 338 c 128,-1,6
 432 338 432 338 466.5 355.5 c 128,-1,7
 501 373 501 373 513 373 c 0,8,9
 530 373 530 373 540.5 361.5 c 128,-1,10
 551 350 551 350 551 331 c 0,11,12
 551 297 551 297 506.5 267 c 128,-1,13
 462 237 462 237 404 237 c 0,14,15
 365 237 365 237 296.5 258 c 128,-1,16
 228 279 228 279 199 279 c 128,-1,17
 170 279 170 279 134.5 261 c 128,-1,18
 99 243 99 243 89 243 c 0,19,20
 71 243 71 243 60.5 254.5 c 128,-1,21
 50 266 50 266 50 286 c 0,0,1
EndSplineSet
EndChar
StartChar: exclamdown
Encoding: 161 161 98
Width: 602
Flags: W
LayerCount: 2
Back
Fore
SplineSet
358 366 m 2,0,-1
 313 63 l 2,1,2
 301 -14 301 -14 236 -14 c 0,3,4
 212 -14 212 -14 198.5 -1 c 128,-1,5
 185 12 185 12 185 33 c 0,6,7
 185 45 185 45 191 67 c 2,8,-1
 268 368 l 2,9,10
 275 396 275 396 284.5 407 c 128,-1,11
 294 418 294 418 317 418 c 0,12,13
 359 418 359 418 359 381 c 0,14,15
 359 371 359 371 358 366 c 2,0,-1
421 525 m 0,16,17
 421 495 421 495 400 475.5 c 128,-1,18
 379 456 379 456 344 456 c 0,19,20
 308 456 308 456 287 475 c 128,-1,21
 266 494 266 494 266 525 c 128,-1,22
 266 556 266 556 287.5 575.5 c 128,-1,23
 309 595 309 595 344 595 c 0,24,25
 378 595 378 595 399.5 575.5 c 128,-1,26
 421 556 421 556 421 525 c 0,16,17
EndSplineSet
EndChar
StartChar: cent
Encoding: 162 162 99
Width: 602
Flags: W
LayerCount: 2
Back
Fore
SplineSet
465 478 m 1,0,1
 477 514 477 514 505 514 c 0,2,3
 543 514 543 514 543 481 c 0,4,5
 543 480 543 480 542.5 478 c 128,-1,6
 542 476 542 476 541.5 473 c 128,-1,7
 541 470 541 470 541 467 c 2,8,-1
 524 372 l 2,9,10
 517 329 517 329 475 329 c 0,11,12
 462 329 462 329 453.5 335.5 c 128,-1,13
 445 342 445 342 442 348 c 128,-1,14
 439 354 439 354 431 371 c 0,15,16
 419 398 419 398 398 410.5 c 128,-1,17
 377 423 377 423 340 423 c 0,18,19
 276 423 276 423 236.5 382.5 c 128,-1,20
 197 342 197 342 197 278 c 0,21,22
 197 238 197 238 222 215 c 128,-1,23
 247 192 247 192 292 192 c 0,24,25
 330 192 330 192 364.5 205 c 128,-1,26
 399 218 399 218 422.5 230.5 c 128,-1,27
 446 243 446 243 459 243 c 0,28,29
 475 243 475 243 486 231.5 c 128,-1,30
 497 220 497 220 497 203 c 0,31,32
 497 165 497 165 441.5 134.5 c 128,-1,33
 386 104 386 104 291 100 c 1,34,-1
 265 2 l 2,35,36
 259 -21 259 -21 250 -26.5 c 128,-1,37
 241 -32 241 -32 215 -32 c 0,38,39
 196 -32 196 -32 188 -29 c 128,-1,40
 180 -26 180 -26 180 -15 c 0,41,42
 180 -11 180 -11 184 4 c 2,43,-1
 211 106 l 1,44,45
 82 141 82 141 82 265 c 0,46,47
 82 364 82 364 147.5 433.5 c 128,-1,48
 213 503 213 503 319 513 c 1,49,-1
 344 611 l 2,50,51
 350 635 350 635 359.5 640.5 c 128,-1,52
 369 646 369 646 395 646 c 0,53,54
 430 646 430 646 430 628 c 0,55,56
 430 625 430 625 426 610 c 2,57,-1
 399 508 l 1,58,59
 440 497 440 497 465 478 c 1,0,1
EndSplineSet
EndChar
StartChar: sterling
Encoding: 163 163 100
Width: 602
Flags: W
LayerCount: 2
Back
Fore
SplineSet
194 255 m 1,0,-1
 140 255 l 2,1,2
 118 255 118 255 118 271 c 0,3,4
 118 277 118 277 119 280 c 2,5,-1
 127 320 l 2,6,7
 132 341 132 341 150 341 c 2,8,-1
 199 341 l 1,9,10
 196 368 196 368 196 393 c 0,11,12
 196 509 196 509 250 570.5 c 128,-1,13
 304 632 304 632 405 632 c 0,14,15
 475 632 475 632 516.5 611.5 c 128,-1,16
 558 591 558 591 558 557 c 0,17,18
 558 551 558 551 557 545 c 2,19,-1
 551 499 l 2,20,21
 545 451 545 451 500 451 c 0,22,23
 483 451 483 451 475.5 457.5 c 128,-1,24
 468 464 468 464 464 478 c 0,25,26
 451 520 451 520 439 530 c 256,27,28
 427 540 427 540 403 540 c 0,29,30
 382 540 382 540 368 532 c 128,-1,31
 354 524 354 524 344.5 510.5 c 128,-1,32
 335 497 335 497 329 470 c 128,-1,33
 323 443 323 443 319.5 415 c 128,-1,34
 316 387 316 387 313 341 c 1,35,-1
 463 341 l 2,36,37
 482 341 482 341 482 324 c 0,38,39
 482 323 482 323 481.5 321 c 128,-1,40
 481 319 481 319 481 318 c 2,41,-1
 472 273 l 2,42,43
 468 255 468 255 449 255 c 2,44,-1
 305 255 l 1,45,46
 299 196 299 196 285.5 160.5 c 128,-1,47
 272 125 272 125 241 100 c 1,48,49
 281 109 281 109 298 109 c 0,50,51
 316 109 316 109 347 102 c 128,-1,52
 378 95 378 95 392 95 c 0,53,54
 413 95 413 95 442 104.5 c 128,-1,55
 471 114 471 114 480 114 c 0,56,57
 493 114 493 114 502.5 100.5 c 128,-1,58
 512 87 512 87 512 65 c 0,59,60
 512 33 512 33 474.5 9 c 128,-1,61
 437 -15 437 -15 381 -15 c 0,62,63
 347 -15 347 -15 290 2 c 128,-1,64
 233 19 233 19 207 19 c 0,65,66
 183 19 183 19 154 2 c 128,-1,67
 125 -15 125 -15 118 -15 c 0,68,69
 101 -15 101 -15 89.5 2.5 c 128,-1,70
 78 20 78 20 78 44 c 0,71,72
 78 60 78 60 87.5 69 c 128,-1,73
 97 78 97 78 115 88 c 128,-1,74
 133 98 133 98 144 109 c 0,75,76
 188 154 188 154 194 255 c 1,0,-1
EndSplineSet
EndChar
StartChar: currency
Encoding: 164 164 105
Width: 602
Flags: W
LayerCount: 2
Back
Fore
SplineSet
109 189 m 1,0,-1
 59 240 l 1,1,-1
 148 329 l 1,2,3
 117 375 117 375 117 432 c 0,4,5
 117 490 117 490 148 536 c 1,6,-1
 59 625 l 1,7,-1
 109 675 l 1,8,-1
 197 585 l 1,9,10
 242 617 242 617 301 617 c 128,-1,11
 360 617 360 617 404 585 c 1,12,-1
 493 675 l 1,13,-1
 543 625 l 1,14,-1
 453 536 l 1,15,16
 484 490 484 490 484 432 c 0,17,18
 484 375 484 375 453 329 c 1,19,-1
 543 240 l 1,20,-1
 493 189 l 1,21,-1
 404 280 l 1,22,23
 358 247 358 247 301 247 c 128,-1,24
 244 247 244 247 197 280 c 1,25,-1
 109 189 l 1,0,-1
190 432 m 0,26,27
 190 385 190 385 222.5 352.5 c 128,-1,28
 255 320 255 320 301 320 c 128,-1,29
 347 320 347 320 379.5 353 c 128,-1,30
 412 386 412 386 412 432 c 128,-1,31
 412 478 412 478 379.5 511 c 128,-1,32
 347 544 347 544 301 544 c 128,-1,33
 255 544 255 544 222.5 511 c 128,-1,34
 190 478 190 478 190 432 c 0,26,27
EndSplineSet
EndChar
StartChar: yen
Encoding: 165 165 102
Width: 602
Flags: W
LayerCount: 2
Back
Fore
SplineSet
198 98 m 1,0,-1
 225 254 l 1,1,-1
 79 254 l 2,2,3
 42 254 42 254 42 288 c 0,4,5
 42 323 42 323 79 323 c 2,6,-1
 201 323 l 1,7,-1
 182 387 l 1,8,-1
 100 387 l 2,9,10
 63 387 63 387 63 422 c 128,-1,11
 63 457 63 457 100 457 c 2,12,-1
 161 457 l 1,13,-1
 144 515 l 1,14,-1
 131 515 l 2,15,16
 113 515 113 515 101 527 c 128,-1,17
 89 539 89 539 89 558 c 0,18,19
 89 585 89 585 108.5 600.5 c 128,-1,20
 128 616 128 616 162 616 c 2,21,-1
 280 616 l 2,22,23
 321 616 321 616 321 574 c 0,24,25
 321 520 321 520 263 515 c 1,26,-1
 309 337 l 1,27,-1
 420 515 l 1,28,29
 378 517 378 517 378 557 c 0,30,31
 378 584 378 584 394 600 c 128,-1,32
 410 616 410 616 438 616 c 2,33,-1
 544 616 l 2,34,35
 591 616 591 616 591 574 c 0,36,37
 591 523 591 523 532 515 c 1,38,-1
 495 457 l 1,39,-1
 535 457 l 2,40,41
 572 457 572 457 572 422 c 128,-1,42
 572 387 572 387 535 387 c 2,43,-1
 444 387 l 1,44,-1
 397 323 l 1,45,-1
 514 323 l 2,46,47
 550 323 550 323 550 288 c 0,48,49
 550 254 550 254 514 254 c 2,50,-1
 348 254 l 1,51,-1
 321 98 l 1,52,-1
 396 98 l 2,53,54
 414 98 414 98 426 86.5 c 128,-1,55
 438 75 438 75 438 56 c 0,56,57
 438 30 438 30 419 15 c 128,-1,58
 400 0 400 0 367 0 c 2,59,-1
 111 0 l 2,60,61
 63 0 63 0 63 43 c 0,62,63
 63 65 63 65 81 81.5 c 128,-1,64
 99 98 99 98 122 98 c 2,65,-1
 198 98 l 1,0,-1
EndSplineSet
EndChar
StartChar: section
Encoding: 167 167 104
Width: 602
Flags: W
LayerCount: 2
Back
Fore
SplineSet
400 101 m 1,0,1
 426 118 426 118 426 141 c 0,2,3
 426 169 426 169 369 215 c 2,4,-1
 258 307 l 1,5,6
 258 307 258 307 251 312 c 0,7,8
 244 318 244 318 241.5 320 c 128,-1,9
 239 322 239 322 232.5 328.5 c 128,-1,10
 226 335 226 335 222 340.5 c 128,-1,11
 218 346 218 346 212 355 c 128,-1,12
 206 364 206 364 201 375 c 1,13,14
 175 358 175 358 175 335 c 0,15,16
 175 306 175 306 231 261 c 2,17,-1
 343 169 l 1,18,-1
 350 164 l 2,19,20
 357 158 357 158 359.5 156 c 128,-1,21
 362 154 362 154 368.5 147.5 c 128,-1,22
 375 141 375 141 379 135.5 c 128,-1,23
 383 130 383 130 389 121 c 128,-1,24
 395 112 395 112 400 101 c 1,0,1
137 -19 m 1,25,-1
 232 -19 l 2,26,27
 272 -19 272 -19 291.5 -8 c 128,-1,28
 311 3 311 3 311 30 c 0,29,30
 311 44 311 44 304.5 52.5 c 128,-1,31
 298 61 298 61 280 76 c 2,32,-1
 157 178 l 2,33,34
 115 213 115 213 97 240.5 c 128,-1,35
 79 268 79 268 79 309 c 0,36,37
 79 401 79 401 186 434 c 1,38,39
 190 499 190 499 234 539 c 128,-1,40
 278 579 278 579 343 579 c 2,41,-1
 529 579 l 2,42,43
 566 579 566 579 566 557 c 0,44,45
 566 554 566 554 564 542 c 2,46,-1
 550 475 l 2,47,48
 543 440 543 440 531 425.5 c 128,-1,49
 519 411 519 411 494 411 c 0,50,51
 453 411 453 411 453 440 c 0,52,53
 453 452 453 452 457 467 c 2,54,-1
 464 495 l 1,55,-1
 369 495 l 2,56,57
 329 495 329 495 309.5 484 c 128,-1,58
 290 473 290 473 290 446 c 0,59,60
 290 432 290 432 296.5 423.5 c 128,-1,61
 303 415 303 415 321 400 c 2,62,-1
 444 298 l 2,63,64
 485 264 485 264 503.5 235.5 c 128,-1,65
 522 207 522 207 522 166 c 0,66,67
 522 75 522 75 415 42 c 1,68,69
 411 -23 411 -23 367 -63 c 128,-1,70
 323 -103 323 -103 258 -103 c 2,71,-1
 72 -103 l 2,72,73
 35 -103 35 -103 35 -81 c 0,74,75
 35 -78 35 -78 37 -66 c 2,76,-1
 51 1 l 2,77,78
 58 36 58 36 69.5 50.5 c 128,-1,79
 81 65 81 65 106 65 c 0,80,81
 148 65 148 65 148 36 c 0,82,83
 148 24 148 24 144 9 c 2,84,-1
 137 -19 l 1,25,-1
EndSplineSet
EndChar
StartChar: dieresis
Encoding: 168 168 133
Width: 602
Flags: W
LayerCount: 2
Back
Fore
SplineSet
149 582 m 0,0,1
 149 606 149 606 168 625 c 128,-1,2
 187 644 187 644 212 644 c 128,-1,3
 237 644 237 644 254.5 625.5 c 128,-1,4
 272 607 272 607 272 582 c 0,5,6
 272 554 272 554 255 537 c 128,-1,7
 238 520 238 520 212 520 c 128,-1,8
 186 520 186 520 167.5 538 c 128,-1,9
 149 556 149 556 149 582 c 0,0,1
391 582 m 0,10,11
 391 606 391 606 410 625 c 128,-1,12
 429 644 429 644 454 644 c 128,-1,13
 479 644 479 644 497 625.5 c 128,-1,14
 515 607 515 607 515 582 c 0,15,16
 515 554 515 554 497.5 537 c 128,-1,17
 480 520 480 520 454 520 c 128,-1,18
 428 520 428 520 409.5 538 c 128,-1,19
 391 556 391 556 391 582 c 0,10,11
EndSplineSet
EndChar
StartChar: copyright
Encoding: 169 169 209
Width: 602
Flags: W
LayerCount: 2
Back
Fore
SplineSet
1 332 m 0,0,1
 1 452 1 452 89 542 c 0,2,3
 176 631 176 631 301 631 c 0,4,5
 423 631 423 631 512 544 c 0,6,7
 553 503 553 503 576.5 446.5 c 128,-1,8
 600 390 600 390 600 332 c 0,9,10
 600 211 600 211 511 120 c 0,11,12
 424 33 424 33 300 33 c 0,13,14
 179 33 179 33 90 120 c 128,-1,15
 1 207 1 207 1 332 c 0,0,1
52 332 m 0,16,17
 52 229 52 229 126 155 c 0,18,19
 202 81 202 81 300 81 c 0,20,21
 403 81 403 81 475 155 c 0,22,23
 549 231 549 231 549 332 c 0,24,25
 549 436 549 436 475 510 c 0,26,27
 402 583 402 583 301 583 c 0,28,29
 197 583 197 583 125 509 c 0,30,31
 52 434 52 434 52 332 c 0,16,17
378 487 m 1,32,33
 388 501 388 501 404 501 c 0,34,35
 429 501 429 501 429 469 c 2,36,-1
 429 401 l 2,37,38
 429 383 429 383 423 376 c 128,-1,39
 417 369 417 369 401 369 c 0,40,41
 379 369 379 369 372 395 c 0,42,43
 364 421 364 421 349.5 432.5 c 128,-1,44
 335 444 335 444 306 444 c 0,45,46
 265 444 265 444 242.5 415 c 128,-1,47
 220 386 220 386 220 332 c 128,-1,48
 220 278 220 278 242.5 249 c 128,-1,49
 265 220 265 220 307 220 c 0,50,51
 335 220 335 220 370 239.5 c 128,-1,52
 405 259 405 259 414 259 c 0,53,54
 425 259 425 259 432 249.5 c 128,-1,55
 439 240 439 240 439 227 c 0,56,57
 439 204 439 204 398 181.5 c 128,-1,58
 357 159 357 159 302 159 c 0,59,60
 231 159 231 159 186 207 c 128,-1,61
 141 255 141 255 141 332 c 0,62,63
 141 407 141 407 186 456 c 128,-1,64
 231 505 231 505 300 505 c 0,65,66
 338 505 338 505 378 487 c 1,32,33
EndSplineSet
EndChar
StartChar: ordfeminine
Encoding: 170 170 141
Width: 602
Flags: W
LayerCount: 2
Back
Fore
SplineSet
435 356 m 2,0,1
 436 356 436 356 439 355.5 c 128,-1,2
 442 355 442 355 444 355 c 0,3,4
 458 355 458 355 467 345.5 c 128,-1,5
 476 336 476 336 476 320 c 0,6,7
 476 269 476 269 416 269 c 2,8,-1
 382 269 l 2,9,10
 363 269 363 269 354.5 276.5 c 128,-1,11
 346 284 346 284 345 303 c 1,12,13
 272 261 272 261 207 261 c 0,14,15
 152 261 152 261 122.5 288 c 128,-1,16
 93 315 93 315 93 366 c 0,17,18
 93 426 93 426 145.5 462.5 c 128,-1,19
 198 499 198 499 288 499 c 0,20,21
 326 499 326 499 371 490 c 1,22,23
 375 507 375 507 375 528 c 0,24,25
 375 546 375 546 361.5 558 c 128,-1,26
 348 570 348 570 325 570 c 0,27,28
 298 570 298 570 254 551 c 128,-1,29
 210 532 210 532 193 532 c 0,30,31
 159 532 159 532 159 563 c 0,32,33
 159 599 159 599 207 620 c 128,-1,34
 255 641 255 641 340 641 c 0,35,36
 471 641 471 641 471 541 c 0,37,38
 471 527 471 527 466 502 c 2,39,-1
 435 356 l 2,0,1
345 369 m 1,40,-1
 358 430 l 1,41,42
 312 438 312 438 290 438 c 0,43,44
 245 438 245 438 219 421 c 128,-1,45
 193 404 193 404 193 376 c 0,46,47
 193 336 193 336 243 336 c 0,48,49
 289 336 289 336 345 369 c 1,40,-1
EndSplineSet
EndChar
StartChar: guillemotleft
Encoding: 171 171 108
Width: 602
Flags: W
LayerCount: 2
Back
Fore
SplineSet
388 225 m 1,0,-1
 435 87 l 2,1,2
 437 82 437 82 437 74 c 0,3,4
 437 58 437 58 426 47 c 128,-1,5
 415 36 415 36 398 36 c 0,6,7
 371 36 371 36 364 56 c 2,8,-1
 303 213 l 2,9,10
 298 228 298 228 298 234 c 0,11,12
 298 241 298 241 308 258 c 2,13,-1
 400 394 l 2,14,15
 410 408 410 408 428 408 c 0,16,17
 443 408 443 408 455.5 397 c 128,-1,18
 468 386 468 386 468 371 c 0,19,20
 468 359 468 359 462 350 c 2,21,-1
 388 225 l 1,0,-1
216 225 m 1,22,-1
 263 87 l 2,23,24
 265 79 265 79 265 74 c 0,25,26
 265 58 265 58 253.5 47 c 128,-1,27
 242 36 242 36 225 36 c 0,28,29
 199 36 199 36 192 56 c 2,30,-1
 131 213 l 2,31,32
 126 228 126 228 126 234 c 0,33,34
 126 241 126 241 136 258 c 2,35,-1
 227 394 l 2,36,37
 237 408 237 408 256 408 c 0,38,39
 271 408 271 408 283.5 397 c 128,-1,40
 296 386 296 386 296 371 c 0,41,42
 296 359 296 359 290 350 c 2,43,-1
 216 225 l 1,22,-1
EndSplineSet
EndChar
StartChar: macron
Encoding: 175 175 130
Width: 602
Flags: W
LayerCount: 2
Back
Fore
SplineSet
494 613 m 2,0,1
 506 613 506 613 506 600 c 2,2,3
 506 600 506 600 506 597 c 2,4,-1
 498 561 l 2,5,6
 495 547 495 547 486 547 c 2,7,-1
 179 547 l 2,8,9
 166 547 166 547 166 560 c 2,10,11
 166 560 166 560 166 563 c 2,12,-1
 174 599 l 2,13,14
 177 613 177 613 187 613 c 2,15,-1
 494 613 l 2,0,1
EndSplineSet
EndChar
StartChar: degree
Encoding: 176 176 217
Width: 602
Flags: W
LayerCount: 2
Back
Fore
SplineSet
172 507 m 0,0,1
 172 572 172 572 217.5 618 c 128,-1,2
 263 664 263 664 329 664 c 128,-1,3
 395 664 395 664 440.5 618 c 128,-1,4
 486 572 486 572 486 507 c 0,5,6
 486 441 486 441 440.5 395.5 c 128,-1,7
 395 350 395 350 329 350 c 128,-1,8
 263 350 263 350 217.5 395.5 c 128,-1,9
 172 441 172 441 172 507 c 0,0,1
245 507 m 128,-1,11
 245 471 245 471 269.5 446.5 c 128,-1,12
 294 422 294 422 329 422 c 128,-1,13
 364 422 364 422 388 447 c 128,-1,14
 412 472 412 472 412 507 c 128,-1,15
 412 542 412 542 388 567 c 128,-1,16
 364 592 364 592 329 592 c 128,-1,17
 294 592 294 592 269.5 567.5 c 128,-1,10
 245 543 245 543 245 507 c 128,-1,11
EndSplineSet
EndChar
StartChar: plusminus
Encoding: 177 177 225
Width: 602
Flags: W
LayerCount: 2
Back
Fore
SplineSet
351 218 m 2,0,1
 351 194 351 194 337 179 c 128,-1,2
 323 164 323 164 300 164 c 0,3,4
 278 164 278 164 264 179 c 128,-1,5
 250 194 250 194 250 218 c 2,6,-1
 250 340 l 1,7,-1
 115 340 l 2,8,9
 91 340 91 340 76 354 c 128,-1,10
 61 368 61 368 61 391 c 128,-1,11
 61 414 61 414 76 428 c 128,-1,12
 91 442 91 442 115 442 c 2,13,-1
 250 442 l 1,14,-1
 250 565 l 2,15,16
 250 589 250 589 264 604 c 128,-1,17
 278 619 278 619 300 619 c 0,18,19
 323 619 323 619 337 604 c 128,-1,20
 351 589 351 589 351 565 c 2,21,-1
 351 442 l 1,22,-1
 487 442 l 2,23,24
 511 442 511 442 526 428 c 128,-1,25
 541 414 541 414 541 391 c 128,-1,26
 541 368 541 368 526 354 c 128,-1,27
 511 340 511 340 487 340 c 2,28,-1
 351 340 l 1,29,-1
 351 218 l 2,0,1
115 30 m 2,30,31
 91 30 91 30 76 44 c 128,-1,32
 61 58 61 58 61 80 c 0,33,34
 61 103 61 103 76 117 c 128,-1,35
 91 131 91 131 115 131 c 2,36,-1
 487 131 l 2,37,38
 511 131 511 131 526 117 c 128,-1,39
 541 103 541 103 541 81 c 0,40,41
 541 58 541 58 526 44 c 128,-1,42
 511 30 511 30 487 30 c 2,43,-1
 115 30 l 2,30,31
EndSplineSet
EndChar
StartChar: twosuperior
Encoding: 178 178 229
Width: 602
Flags: W
LayerCount: 2
Back
Fore
SplineSet
243 313 m 1,0,-1
 381 313 l 1,1,-1
 384 331 l 2,2,3
 391 369 391 369 424 369 c 0,4,5
 442 369 442 369 453 357 c 128,-1,6
 464 345 464 345 464 326 c 0,7,8
 464 320 464 320 463 316 c 2,9,-1
 456 269 l 2,10,11
 452 241 452 241 406 241 c 2,12,-1
 184 241 l 2,13,14
 146 241 146 241 146 287 c 0,15,16
 146 297 146 297 148 305.5 c 128,-1,17
 150 314 150 314 156 322.5 c 128,-1,18
 162 331 162 331 166.5 336.5 c 128,-1,19
 171 342 171 342 183.5 351.5 c 128,-1,20
 196 361 196 361 201.5 365 c 128,-1,21
 207 369 207 369 225 380.5 c 128,-1,22
 243 392 243 392 250 397 c 0,23,24
 296 428 296 428 317.5 451.5 c 128,-1,25
 339 475 339 475 339 502 c 0,26,27
 339 524 339 524 324 538 c 128,-1,28
 309 552 309 552 285 552 c 0,29,30
 262 552 262 552 232 535.5 c 128,-1,31
 202 519 202 519 194 519 c 0,32,33
 179 519 179 519 168 529.5 c 128,-1,34
 157 540 157 540 157 555 c 0,35,36
 157 585 157 585 202 608.5 c 128,-1,37
 247 632 247 632 301 632 c 0,38,39
 360 632 360 632 396.5 597 c 128,-1,40
 433 562 433 562 433 509 c 0,41,42
 433 458 433 458 390.5 417.5 c 128,-1,43
 348 377 348 377 243 313 c 1,0,-1
EndSplineSet
EndChar
StartChar: acute
Encoding: 180 180 127
Width: 602
Flags: W
LayerCount: 2
Back
Fore
SplineSet
300 499 m 1,0,-1
 276 535 l 1,1,-1
 466 666 l 2,2,3
 475 672 475 672 484 672 c 0,4,5
 498 672 498 672 507 658 c 2,6,-1
 532 620 l 2,7,8
 536 615 536 615 536 608 c 0,9,10
 536 591 536 591 519 585 c 2,11,-1
 300 499 l 1,0,-1
EndSplineSet
EndChar
StartChar: periodcentered
Encoding: 183 183 116
Width: 602
Flags: W
LayerCount: 2
Back
Fore
SplineSet
202 310 m 0,0,1
 202 351 202 351 231 380 c 128,-1,2
 260 409 260 409 301 409 c 128,-1,3
 342 409 342 409 371 380 c 128,-1,4
 400 351 400 351 400 310 c 0,5,6
 400 268 400 268 371 239 c 128,-1,7
 342 210 342 210 301 210 c 0,8,9
 259 210 259 210 230.5 239 c 128,-1,10
 202 268 202 268 202 310 c 0,0,1
EndSplineSet
EndChar
StartChar: cedilla
Encoding: 184 184 135
Width: 602
Flags: W
LayerCount: 2
Back
Fore
SplineSet
264 0 m 1,0,-1
 250 -64 l 2,1,2
 252 -64 252 -64 257 -63.5 c 128,-1,3
 262 -63 262 -63 265 -63 c 0,4,5
 306 -63 306 -63 329.5 -83 c 128,-1,6
 353 -103 353 -103 353 -135 c 0,7,8
 353 -175 353 -175 317.5 -203 c 128,-1,9
 282 -231 282 -231 227 -231 c 0,10,11
 169 -231 169 -231 132.5 -217.5 c 128,-1,12
 96 -204 96 -204 96 -184 c 0,13,14
 96 -174 96 -174 103 -167.5 c 128,-1,15
 110 -161 110 -161 119 -161 c 128,-1,16
 128 -161 128 -161 159.5 -172.5 c 128,-1,17
 191 -184 191 -184 213 -184 c 0,18,19
 236 -184 236 -184 251 -172 c 128,-1,20
 266 -160 266 -160 266 -141 c 0,21,22
 266 -107 266 -107 221 -107 c 0,23,24
 208 -107 208 -107 200 -108 c 1,25,-1
 222 0 l 1,26,-1
 264 0 l 1,0,-1
EndSplineSet
EndChar
StartChar: onesuperior
Encoding: 185 185 224
Width: 602
Flags: W
LayerCount: 2
Back
Fore
SplineSet
347 316 m 1,0,-1
 366 316 l 2,1,2
 402 316 402 316 415 309 c 128,-1,3
 428 302 428 302 428 279 c 0,4,5
 428 241 428 241 392 241 c 2,6,-1
 212 241 l 2,7,8
 176 241 176 241 176 279 c 0,9,10
 176 302 176 302 189 309 c 128,-1,11
 202 316 202 316 237 316 c 2,12,-1
 257 316 l 1,13,-1
 257 546 l 1,14,-1
 233 544 l 1,15,-1
 227 544 l 2,16,17
 209 544 209 544 198.5 554 c 128,-1,18
 188 564 188 564 188 579 c 0,19,20
 188 616 188 616 229 619 c 2,21,-1
 308 624 l 1,22,-1
 315 624 l 2,23,24
 334 624 334 624 340.5 615.5 c 128,-1,25
 347 607 347 607 347 585 c 2,26,-1
 347 316 l 1,0,-1
EndSplineSet
EndChar
StartChar: ordmasculine
Encoding: 186 186 145
Width: 602
Flags: W
LayerCount: 2
Back
Fore
SplineSet
90 420 m 0,0,1
 90 512 90 512 156 575.5 c 128,-1,2
 222 639 222 639 318 639 c 0,3,4
 399 639 399 639 446.5 595 c 128,-1,5
 494 551 494 551 494 478 c 0,6,7
 494 386 494 386 428 322.5 c 128,-1,8
 362 259 362 259 265 259 c 0,9,10
 186 259 186 259 138 303 c 128,-1,11
 90 347 90 347 90 420 c 0,0,1
309 560 m 0,12,13
 263 560 263 560 229.5 521 c 128,-1,14
 196 482 196 482 196 427 c 0,15,16
 196 386 196 386 218 362 c 128,-1,17
 240 338 240 338 278 338 c 0,18,19
 324 338 324 338 356.5 377 c 128,-1,20
 389 416 389 416 389 475 c 0,21,22
 389 512 389 512 367 536 c 128,-1,23
 345 560 345 560 309 560 c 0,12,13
EndSplineSet
EndChar
StartChar: guillemotright
Encoding: 187 187 122
Width: 602
Flags: W
LayerCount: 2
Back
Fore
SplineSet
206 222 m 1,0,-1
 159 360 l 2,1,2
 157 365 157 365 157 373 c 0,3,4
 157 389 157 389 168 399.5 c 128,-1,5
 179 410 179 410 196 410 c 0,6,7
 223 410 223 410 230 390 c 2,8,-1
 291 234 l 2,9,10
 296 219 296 219 296 213 c 0,11,12
 296 205 296 205 286 188 c 2,13,-1
 194 52 l 2,14,15
 184 38 184 38 166 38 c 0,16,17
 151 38 151 38 138.5 49 c 128,-1,18
 126 60 126 60 126 75 c 0,19,20
 126 88 126 88 131 96 c 2,21,-1
 206 222 l 1,0,-1
378 222 m 1,22,-1
 331 360 l 2,23,24
 329 368 329 368 329 373 c 0,25,26
 329 389 329 389 340.5 399.5 c 128,-1,27
 352 410 352 410 369 410 c 0,28,29
 395 410 395 410 402 390 c 2,30,-1
 463 234 l 2,31,32
 468 219 468 219 468 213 c 0,33,34
 468 205 468 205 458 188 c 2,35,-1
 367 52 l 2,36,37
 357 38 357 38 338 38 c 0,38,39
 323 38 323 38 310.5 49 c 128,-1,40
 298 60 298 60 298 75 c 0,41,42
 298 87 298 87 304 96 c 2,43,-1
 378 222 l 1,22,-1
EndSplineSet
EndChar
StartChar: onequarter
Encoding: 188 188 223
Width: 602
Flags: W
LayerCount: 2
Back
Fore
SplineSet
437 40 m 1,0,-1
 437 189 l 1,1,-1
 321 40 l 1,2,-1
 437 40 l 1,0,-1
186 397 m 1,3,-1
 205 397 l 2,4,5
 239 397 239 397 251.5 390.5 c 128,-1,6
 264 384 264 384 264 363 c 0,7,8
 264 328 264 328 230 328 c 2,9,-1
 57 328 l 2,10,11
 23 328 23 328 23 363 c 0,12,13
 23 385 23 385 35 391 c 128,-1,14
 47 397 47 397 81 397 c 2,15,-1
 105 397 l 1,16,-1
 105 608 l 1,17,-1
 77 606 l 1,18,-1
 73 606 l 2,19,20
 55 606 55 606 44.5 615.5 c 128,-1,21
 34 625 34 625 34 639 c 0,22,23
 34 674 34 674 73 675 c 2,24,-1
 149 680 l 1,25,-1
 153 680 l 2,26,27
 171 680 171 680 178.5 672 c 128,-1,28
 186 664 186 664 186 644 c 2,29,-1
 186 397 l 1,3,-1
492 419 m 2,30,31
 500 423 500 423 509 423 c 0,32,33
 520 423 520 423 527.5 415.5 c 128,-1,34
 535 408 535 408 535 397 c 0,35,36
 535 380 535 380 517 370 c 2,37,-1
 98 158 l 2,38,39
 91 154 91 154 82 154 c 0,40,41
 71 154 71 154 63.5 162 c 128,-1,42
 56 170 56 170 56 181 c 0,43,44
 56 197 56 197 74 207 c 2,45,-1
 492 419 l 2,30,31
509 40 m 1,46,-1
 546 40 l 2,47,48
 562 40 562 40 566 34 c 128,-1,49
 570 28 570 28 570 9 c 128,-1,50
 570 -10 570 -10 565.5 -18 c 128,-1,51
 561 -26 561 -26 546 -26 c 2,52,-1
 509 -26 l 1,53,-1
 509 -65 l 2,54,55
 509 -93 509 -93 470 -93 c 0,56,57
 449 -93 449 -93 439.5 -87 c 128,-1,58
 430 -81 430 -81 430 -65 c 2,59,-1
 430 -26 l 1,60,-1
 280 -26 l 2,61,62
 249 -26 249 -26 249 14 c 0,63,64
 249 55 249 55 267 76 c 2,65,-1
 405 246 l 2,66,67
 418 262 418 262 426 262 c 0,68,69
 438 262 438 262 444 261 c 2,70,-1
 493 253 l 2,71,72
 509 250 509 250 509 222 c 2,73,-1
 509 40 l 1,46,-1
EndSplineSet
EndChar
StartChar: onehalf
Encoding: 189 189 222
Width: 602
Flags: W
LayerCount: 2
Back
Fore
SplineSet
415 -17 m 1,0,-1
 532 -17 l 2,1,2
 550 -17 550 -17 560.5 -26.5 c 128,-1,3
 571 -36 571 -36 571 -51 c 128,-1,4
 571 -66 571 -66 560.5 -76 c 128,-1,5
 550 -86 550 -86 534 -86 c 2,6,-1
 361 -86 l 2,7,8
 326 -86 326 -86 326 -44 c 0,9,10
 326 -38 326 -38 327.5 -31.5 c 128,-1,11
 329 -25 329 -25 331 -20 c 128,-1,12
 333 -15 333 -15 338 -8.5 c 128,-1,13
 343 -2 343 -2 346 1.5 c 128,-1,14
 349 5 349 5 357 12.5 c 128,-1,15
 365 20 365 20 369 23 c 128,-1,16
 373 26 373 26 383.5 35 c 128,-1,17
 394 44 394 44 398 48 c 0,18,19
 432 77 432 77 444 88.5 c 128,-1,20
 456 100 456 100 468 117.5 c 128,-1,21
 480 135 480 135 480 151 c 0,22,23
 480 171 480 171 468.5 183 c 128,-1,24
 457 195 457 195 438 195 c 0,25,26
 422 195 422 195 393.5 180.5 c 128,-1,27
 365 166 365 166 353 166 c 0,28,29
 325 166 325 166 325 199 c 0,30,31
 325 224 325 224 364.5 245.5 c 128,-1,32
 404 267 404 267 452 267 c 0,33,34
 503 267 503 267 535 237.5 c 128,-1,35
 567 208 567 208 567 162 c 0,36,37
 567 95 567 95 481 32 c 2,38,-1
 415 -17 l 1,0,-1
186 397 m 1,39,-1
 205 397 l 2,40,41
 239 397 239 397 251.5 390.5 c 128,-1,42
 264 384 264 384 264 363 c 0,43,44
 264 328 264 328 230 328 c 2,45,-1
 57 328 l 2,46,47
 23 328 23 328 23 363 c 0,48,49
 23 385 23 385 35 391 c 128,-1,50
 47 397 47 397 81 397 c 2,51,-1
 105 397 l 1,52,-1
 105 608 l 1,53,-1
 77 606 l 1,54,-1
 73 606 l 2,55,56
 55 606 55 606 44.5 615.5 c 128,-1,57
 34 625 34 625 34 639 c 0,58,59
 34 674 34 674 73 675 c 2,60,-1
 149 680 l 1,61,-1
 153 680 l 2,62,63
 171 680 171 680 178.5 672 c 128,-1,64
 186 664 186 664 186 644 c 2,65,-1
 186 397 l 1,39,-1
492 419 m 2,66,67
 500 423 500 423 509 423 c 0,68,69
 520 423 520 423 527.5 415.5 c 128,-1,70
 535 408 535 408 535 397 c 0,71,72
 535 380 535 380 517 370 c 2,73,-1
 98 158 l 2,74,75
 91 154 91 154 82 154 c 0,76,77
 71 154 71 154 63.5 162 c 128,-1,78
 56 170 56 170 56 181 c 0,79,80
 56 197 56 197 74 207 c 2,81,-1
 492 419 l 2,66,67
EndSplineSet
EndChar
StartChar: threequarters
Encoding: 190 190 227
Width: 602
Flags: W
LayerCount: 2
Back
Fore
SplineSet
239 519 m 1,0,1
 307 489 307 489 307 430 c 0,2,3
 307 383 307 383 267.5 352 c 128,-1,4
 228 321 228 321 162 321 c 0,5,6
 105 321 105 321 71.5 335 c 128,-1,7
 38 349 38 349 38 372 c 0,8,9
 38 408 38 408 73 408 c 0,10,11
 85 408 85 408 112.5 397.5 c 128,-1,12
 140 387 140 387 158 387 c 0,13,14
 185 387 185 387 202.5 401.5 c 128,-1,15
 220 416 220 416 220 438 c 0,16,17
 220 457 220 457 206 471 c 128,-1,18
 192 485 192 485 171 486 c 0,19,20
 157 487 157 487 150.5 489 c 128,-1,21
 144 491 144 491 138.5 497 c 128,-1,22
 133 503 133 503 133 515 c 0,23,24
 133 529 133 529 141 534.5 c 128,-1,25
 149 540 149 540 168 544 c 0,26,27
 189 549 189 549 197.5 557.5 c 128,-1,28
 206 566 206 566 206 586 c 0,29,30
 206 622 206 622 169 622 c 0,31,32
 150 622 150 622 121.5 608.5 c 128,-1,33
 93 595 93 595 85 595 c 0,34,35
 72 595 72 595 63 603.5 c 128,-1,36
 54 612 54 612 54 626 c 0,37,38
 54 650 54 650 90 669 c 128,-1,39
 126 688 126 688 177 688 c 128,-1,40
 228 688 228 688 260.5 660.5 c 128,-1,41
 293 633 293 633 293 596 c 0,42,43
 293 544 293 544 239 519 c 1,0,1
509 40 m 1,44,-1
 546 40 l 2,45,46
 562 40 562 40 566 34 c 128,-1,47
 570 28 570 28 570 9 c 128,-1,48
 570 -10 570 -10 565.5 -18 c 128,-1,49
 561 -26 561 -26 546 -26 c 2,50,-1
 509 -26 l 1,51,-1
 509 -65 l 2,52,53
 509 -93 509 -93 470 -93 c 0,54,55
 449 -93 449 -93 439.5 -87 c 128,-1,56
 430 -81 430 -81 430 -65 c 2,57,-1
 430 -26 l 1,58,-1
 280 -26 l 2,59,60
 249 -26 249 -26 249 14 c 0,61,62
 249 55 249 55 267 76 c 2,63,-1
 405 246 l 2,64,65
 418 262 418 262 426 262 c 0,66,67
 438 262 438 262 444 261 c 2,68,-1
 493 253 l 2,69,70
 509 250 509 250 509 222 c 2,71,-1
 509 40 l 1,44,-1
437 40 m 1,72,-1
 437 189 l 1,73,-1
 321 40 l 1,74,-1
 437 40 l 1,72,-1
492 419 m 2,75,76
 500 423 500 423 509 423 c 0,77,78
 520 423 520 423 527.5 415.5 c 128,-1,79
 535 408 535 408 535 397 c 0,80,81
 535 380 535 380 517 370 c 2,82,-1
 98 158 l 2,83,84
 91 154 91 154 82 154 c 0,85,86
 71 154 71 154 63.5 162 c 128,-1,87
 56 170 56 170 56 181 c 0,88,89
 56 197 56 197 74 207 c 2,90,-1
 492 419 l 2,75,76
EndSplineSet
EndChar
StartChar: questiondown
Encoding: 191 191 125
Width: 602
Flags: W
LayerCount: 2
Back
Fore
SplineSet
484 525 m 0,0,1
 484 495 484 495 463 475.5 c 128,-1,2
 442 456 442 456 407 456 c 0,3,4
 371 456 371 456 350 475 c 128,-1,5
 329 494 329 494 329 525 c 128,-1,6
 329 556 329 556 350.5 575.5 c 128,-1,7
 372 595 372 595 407 595 c 0,8,9
 441 595 441 595 462.5 575.5 c 128,-1,10
 484 556 484 556 484 525 c 0,0,1
309 337 m 1,11,-1
 317 369 l 2,12,13
 329 417 329 417 385 417 c 0,14,15
 435 417 435 417 435 378 c 0,16,17
 435 370 435 370 434 366 c 2,18,-1
 428 339 l 2,19,20
 416 283 416 283 356 256 c 2,21,-1
 299 231 l 2,22,23
 268 218 268 218 249.5 191.5 c 128,-1,24
 231 165 231 165 231 136 c 0,25,26
 231 112 231 112 248 96 c 128,-1,27
 265 80 265 80 292 80 c 0,28,29
 348 80 348 80 366 115 c 0,30,31
 367 117 367 117 372.5 129.5 c 128,-1,32
 378 142 378 142 381.5 146 c 128,-1,33
 385 150 385 150 395 155.5 c 128,-1,34
 405 161 405 161 419 161 c 0,35,36
 461 161 461 161 461 132 c 0,37,38
 461 125 461 125 460 121 c 2,39,-1
 447 59 l 2,40,41
 432 -13 432 -13 273 -13 c 0,42,43
 190 -13 190 -13 144 27.5 c 128,-1,44
 98 68 98 68 98 141 c 0,45,46
 98 285 98 285 309 337 c 1,11,-1
EndSplineSet
EndChar
StartChar: Aring
Encoding: 197 197 156
Width: 602
Flags: W
LayerCount: 2
Back
Fore
SplineSet
200 743 m 128,-1,1
 200 798 200 798 238.5 836.5 c 128,-1,2
 277 875 277 875 332 875 c 128,-1,3
 387 875 387 875 425.5 836.5 c 128,-1,4
 464 798 464 798 464 743 c 128,-1,5
 464 688 464 688 425.5 649.5 c 128,-1,6
 387 611 387 611 332 611 c 128,-1,7
 277 611 277 611 238.5 649.5 c 128,-1,0
 200 688 200 688 200 743 c 128,-1,1
270 744 m 128,-1,9
 270 718 270 718 288 699.5 c 128,-1,10
 306 681 306 681 332 681 c 128,-1,11
 358 681 358 681 376 699.5 c 128,-1,12
 394 718 394 718 394 744 c 128,-1,13
 394 770 394 770 376 788 c 128,-1,14
 358 806 358 806 332 806 c 128,-1,15
 306 806 306 806 288 788 c 128,-1,8
 270 770 270 770 270 744 c 128,-1,9
235 471 m 1,16,-1
 188 471 l 2,17,18
 170 471 170 471 158 482.5 c 128,-1,19
 146 494 146 494 146 515 c 0,20,21
 146 579 146 579 218 579 c 2,22,-1
 405 579 l 2,23,24
 440 579 440 579 444 547 c 2,25,-1
 509 108 l 1,26,-1
 520 108 l 2,27,28
 538 108 538 108 549.5 96.5 c 128,-1,29
 561 85 561 85 561 64 c 0,30,31
 561 0 561 0 489 0 c 2,32,-1
 347 0 l 2,33,34
 299 0 299 0 299 44 c 0,35,36
 299 74 299 74 317.5 91 c 128,-1,37
 336 108 336 108 368 108 c 2,38,-1
 392 108 l 1,39,-1
 385 162 l 1,40,-1
 179 162 l 1,41,-1
 150 108 l 1,42,-1
 155 108 l 2,43,44
 205 108 205 108 205 63 c 0,45,46
 205 0 205 0 133 0 c 2,47,-1
 4 0 l 2,48,49
 -44 0 -44 0 -44 44 c 0,50,51
 -44 72 -44 72 -26.5 90 c 128,-1,52
 -9 108 -9 108 16 108 c 2,53,-1
 34 108 l 1,54,-1
 235 471 l 1,16,-1
231 264 m 1,55,-1
 372 264 l 1,56,-1
 342 478 l 1,57,-1
 231 264 l 1,55,-1
EndSplineSet
EndChar
StartChar: AE
Encoding: 198 198 140
Width: 602
Flags: W
LayerCount: 2
Back
Fore
SplineSet
201 0 m 2,0,1
 154 0 154 0 154 44 c 0,2,3
 154 72 154 72 171 90 c 128,-1,4
 188 108 188 108 213 108 c 2,5,-1
 240 108 l 1,6,-1
 254 179 l 1,7,-1
 134 179 l 1,8,-1
 60 26 l 2,9,10
 47 0 47 0 21 0 c 2,11,-1
 -31 0 l 2,12,13
 -78 0 -78 0 -78 44 c 0,14,15
 -78 72 -78 72 -61 90 c 128,-1,16
 -44 108 -44 108 -19 108 c 2,17,-1
 3 108 l 1,18,-1
 190 482 l 1,19,-1
 175 482 l 2,20,21
 158 482 158 482 146 494 c 128,-1,22
 134 506 134 506 134 524 c 0,23,24
 134 579 134 579 203 579 c 2,25,-1
 616 579 l 2,26,27
 652 579 652 579 652 554 c 0,28,29
 652 549 652 549 651 547 c 2,30,-1
 625 419 l 2,31,32
 619 390 619 390 608.5 376.5 c 128,-1,33
 598 363 598 363 575 363 c 0,34,35
 537 363 537 363 537 399 c 0,36,37
 537 413 537 413 540 428 c 2,38,-1
 552 482 l 1,39,-1
 412 482 l 1,40,-1
 379 325 l 1,41,-1
 413 325 l 1,42,43
 416 354 416 354 427 367 c 128,-1,44
 438 380 438 380 460 380 c 0,45,46
 496 380 496 380 496 342 c 0,47,48
 496 340 496 340 494 324 c 2,49,-1
 484 272 l 2,50,51
 479 244 479 244 470 232 c 128,-1,52
 461 220 461 220 438 220 c 0,53,54
 400 220 400 220 400 253 c 0,55,56
 400 261 400 261 403 276 c 1,57,-1
 369 276 l 1,58,-1
 334 108 l 1,59,-1
 472 108 l 1,60,-1
 480 150 l 2,61,62
 493 221 493 221 537 221 c 0,63,64
 556 221 556 221 564 213 c 128,-1,65
 572 205 572 205 572 184 c 0,66,67
 572 172 572 172 569 159 c 2,68,-1
 545 39 l 2,69,70
 537 0 537 0 500 0 c 2,71,-1
 201 0 l 2,0,1
171 253 m 1,72,-1
 269 253 l 1,73,-1
 318 482 l 1,74,-1
 283 482 l 1,75,-1
 171 253 l 1,72,-1
EndSplineSet
EndChar
StartChar: Eth
Encoding: 208 208 213
Width: 602
Flags: W
LayerCount: 2
Back
Fore
SplineSet
42 0 m 2,0,1
 -5 0 -5 0 -5 44 c 0,2,3
 -5 72 -5 72 12 90 c 128,-1,4
 29 108 29 108 54 108 c 2,5,-1
 69 108 l 1,6,-1
 97 253 l 1,7,-1
 60 253 l 2,8,9
 48 253 48 253 40 261 c 128,-1,10
 32 269 32 269 32 283 c 0,11,12
 32 326 32 326 80 326 c 2,13,-1
 113 326 l 1,14,-1
 143 470 l 1,15,-1
 130 470 l 2,16,17
 112 470 112 470 100 482.5 c 128,-1,18
 88 495 88 495 88 515 c 0,19,20
 88 579 88 579 160 579 c 2,21,-1
 310 579 l 2,22,23
 445 579 445 579 511 527.5 c 128,-1,24
 577 476 577 476 577 368 c 0,25,26
 577 190 577 190 481 89 c 0,27,28
 426 31 426 31 361.5 15.5 c 128,-1,29
 297 0 297 0 190 0 c 2,30,-1
 42 0 l 2,0,1
299 471 m 2,31,-1
 268 471 l 1,32,-1
 237 326 l 1,33,-1
 325 326 l 2,34,35
 337 326 337 326 345 318 c 128,-1,36
 353 310 353 310 353 296 c 0,37,38
 353 253 353 253 304 253 c 2,39,-1
 222 253 l 1,40,-1
 193 109 l 1,41,-1
 217 109 l 2,42,43
 311 109 311 109 353 138 c 0,44,45
 392 165 392 165 415.5 222.5 c 128,-1,46
 439 280 439 280 439 355 c 0,47,48
 439 415 439 415 404.5 443 c 128,-1,49
 370 471 370 471 299 471 c 2,31,-1
EndSplineSet
EndChar
StartChar: multiply
Encoding: 215 215 221
Width: 602
Flags: W
LayerCount: 2
Back
Fore
SplineSet
302 387 m 1,0,-1
 417 502 l 2,1,2
 434 519 434 519 453 519 c 0,3,4
 475 519 475 519 489.5 505.5 c 128,-1,5
 504 492 504 492 504 472 c 0,6,7
 504 449 504 449 487 432 c 2,8,-1
 372 317 l 1,9,-1
 491 198 l 2,10,11
 508 181 508 181 508 160 c 128,-1,12
 508 139 508 139 493.5 124.5 c 128,-1,13
 479 110 479 110 459 110 c 0,14,15
 436 110 436 110 420 126 c 2,16,-1
 300 246 l 1,17,-1
 186 131 l 2,18,19
 169 114 169 114 146 114 c 0,20,21
 127 114 127 114 112.5 129 c 128,-1,22
 98 144 98 144 98 163 c 0,23,24
 98 183 98 183 116 201 c 2,25,-1
 230 316 l 1,26,-1
 110 436 l 2,27,28
 93 453 93 453 93 475 c 0,29,30
 93 494 93 494 108.5 509.5 c 128,-1,31
 124 525 124 525 143 525 c 0,32,33
 164 525 164 525 182 507 c 2,34,-1
 302 387 l 1,0,-1
EndSplineSet
EndChar
StartChar: Oslash
Encoding: 216 216 143
Width: 602
Flags: W
LayerCount: 2
Back
Fore
SplineSet
46 95 m 1,0,1
 16 160 16 160 16 227 c 0,2,3
 16 296 16 296 41.5 365.5 c 128,-1,4
 67 435 67 435 113 489 c 0,5,6
 203 595 203 595 348 595 c 0,7,8
 439 595 439 595 499 549 c 1,9,-1
 553 600 l 2,10,11
 567 614 567 614 579 614 c 0,12,13
 592 614 592 614 605 601 c 128,-1,14
 618 588 618 588 618 575 c 128,-1,15
 618 562 618 562 605 549 c 2,16,-1
 550 493 l 1,17,18
 584 435 584 435 584 347 c 0,19,20
 584 216 584 216 508 113 c 0,21,22
 415 -15 415 -15 255 -15 c 0,23,24
 156 -15 156 -15 94 37 c 1,25,-1
 33 -21 l 2,26,27
 20 -34 20 -34 7 -34 c 128,-1,28
 -6 -34 -6 -34 -19.5 -21 c 128,-1,29
 -33 -8 -33 -8 -33 5 c 0,30,31
 -33 17 -33 17 -19 31 c 2,32,-1
 46 95 l 1,0,1
161 208 m 2,33,-1
 408 458 l 1,34,35
 373 485 373 485 335 485 c 0,36,37
 266 485 266 485 212.5 409.5 c 128,-1,38
 159 334 159 334 159 235 c 0,39,40
 159 233 159 233 159.5 229.5 c 128,-1,41
 160 226 160 226 160.5 219.5 c 128,-1,42
 161 213 161 213 161 208 c 2,33,-1
444 386 m 1,43,-1
 190 133 l 1,44,45
 224 97 224 97 270 97 c 0,46,47
 339 97 339 97 392.5 173.5 c 128,-1,48
 446 250 446 250 446 347 c 0,49,50
 446 360 446 360 444 386 c 1,43,-1
EndSplineSet
EndChar
StartChar: Thorn
Encoding: 222 222 214
Width: 602
Flags: W
LayerCount: 2
Back
Fore
SplineSet
277 442 m 1,0,-1
 350 442 l 2,1,2
 543 442 543 442 543 309 c 0,3,4
 543 225 543 225 478 181 c 128,-1,5
 413 137 413 137 286 137 c 2,6,-1
 214 137 l 1,7,-1
 204 92 l 1,8,-1
 231 92 l 2,9,10
 280 92 280 92 280 53 c 0,11,12
 280 0 280 0 208 0 c 2,13,-1
 53 0 l 2,14,15
 5 0 5 0 5 38 c 0,16,17
 5 61 5 61 22 76.5 c 128,-1,18
 39 92 39 92 65 92 c 2,19,-1
 79 92 l 1,20,-1
 161 487 l 1,21,-1
 153 487 l 2,22,23
 103 487 103 487 103 526 c 0,24,25
 103 579 103 579 175 579 c 2,26,-1
 331 579 l 2,27,28
 378 579 378 579 378 541 c 0,29,30
 378 518 378 518 361 502.5 c 128,-1,31
 344 487 344 487 319 487 c 2,32,-1
 286 487 l 1,33,-1
 277 442 l 1,0,-1
231 227 m 1,34,-1
 283 227 l 2,35,36
 352 227 352 227 384 243 c 128,-1,37
 416 259 416 259 416 297 c 0,38,39
 416 352 416 352 332 352 c 2,40,-1
 258 352 l 1,41,-1
 231 227 l 1,34,-1
EndSplineSet
EndChar
StartChar: germandbls
Encoding: 223 223 151
Width: 602
Flags: W
LayerCount: 2
Back
Fore
SplineSet
32 0 m 2,0,1
 -15 0 -15 0 -15 44 c 0,2,3
 -15 74 -15 74 3 91 c 128,-1,4
 21 108 21 108 54 108 c 2,5,-1
 59 108 l 1,6,-1
 131 447 l 2,7,8
 152 545 152 545 207.5 592 c 128,-1,9
 263 639 263 639 359 639 c 0,10,11
 436 639 436 639 479.5 603.5 c 128,-1,12
 523 568 523 568 523 509 c 0,13,14
 523 460 523 460 492.5 424.5 c 128,-1,15
 462 389 462 389 404 373 c 1,16,17
 463 364 463 364 494.5 327 c 128,-1,18
 526 290 526 290 526 231 c 0,19,20
 526 119 526 119 464 52.5 c 128,-1,21
 402 -14 402 -14 292 -14 c 0,22,23
 213 -14 213 -14 213 34 c 0,24,25
 213 48 213 48 217.5 57.5 c 128,-1,26
 222 67 222 67 227 72.5 c 128,-1,27
 232 78 232 78 244 81.5 c 128,-1,28
 256 85 256 85 263.5 86 c 128,-1,29
 271 87 271 87 288.5 88.5 c 128,-1,30
 306 90 306 90 314 91 c 0,31,32
 354 95 354 95 378.5 136 c 128,-1,33
 403 177 403 177 403 235 c 0,34,35
 403 279 403 279 386 299 c 128,-1,36
 369 319 369 319 326 328 c 0,37,38
 299 334 299 334 288 340.5 c 128,-1,39
 277 347 277 347 277 362 c 0,40,41
 277 371 277 371 280 377.5 c 128,-1,42
 283 384 283 384 286 388 c 128,-1,43
 289 392 289 392 297 395.5 c 128,-1,44
 305 399 305 399 309 400.5 c 128,-1,45
 313 402 313 402 325 405 c 128,-1,46
 337 408 337 408 341 409 c 0,47,48
 399 424 399 424 399 484 c 0,49,50
 399 509 399 509 383.5 525 c 128,-1,51
 368 541 368 541 345 541 c 0,52,53
 271 541 271 541 246 422 c 2,54,-1
 162 27 l 2,55,56
 158 10 158 10 151.5 5 c 128,-1,57
 145 0 145 0 127 0 c 2,58,-1
 32 0 l 2,0,1
EndSplineSet
EndChar
StartChar: aring
Encoding: 229 229 184
Width: 602
Flags: W
LayerCount: 2
Back
Fore
SplineSet
463 108 m 1,0,1
 514 108 514 108 514 63 c 0,2,3
 514 0 514 0 440 0 c 2,4,-1
 397 0 l 2,5,6
 372 0 372 0 362 8.5 c 128,-1,7
 352 17 352 17 350 42 c 1,8,9
 257 -11 257 -11 178 -11 c 0,10,11
 111 -11 111 -11 73.5 22.5 c 128,-1,12
 36 56 36 56 36 116 c 0,13,14
 36 196 36 196 100 242 c 128,-1,15
 164 288 164 288 275 288 c 0,16,17
 326 288 326 288 383 277 c 1,18,19
 389 302 389 302 389 320 c 0,20,21
 389 346 389 346 372 361.5 c 128,-1,22
 355 377 355 377 325 377 c 0,23,24
 291 377 291 377 236.5 353 c 128,-1,25
 182 329 182 329 160 329 c 0,26,27
 118 329 118 329 118 367 c 0,28,29
 118 412 118 412 178 438.5 c 128,-1,30
 238 465 238 465 344 465 c 0,31,32
 508 465 508 465 508 340 c 0,33,34
 508 319 508 319 502 291 c 2,35,-1
 463 108 l 1,0,1
351 125 m 1,36,-1
 367 201 l 1,37,38
 305 211 305 211 282 211 c 0,39,40
 226 211 226 211 193 190 c 128,-1,41
 160 169 160 169 160 137 c 0,42,43
 160 84 160 84 224 84 c 0,44,45
 281 84 281 84 351 125 c 1,36,-1
227 627 m 128,-1,47
 227 682 227 682 265.5 720.5 c 128,-1,48
 304 759 304 759 359 759 c 128,-1,49
 414 759 414 759 452.5 720.5 c 128,-1,50
 491 682 491 682 491 627 c 128,-1,51
 491 572 491 572 452.5 533.5 c 128,-1,52
 414 495 414 495 359 495 c 128,-1,53
 304 495 304 495 265.5 533.5 c 128,-1,46
 227 572 227 572 227 627 c 128,-1,47
297 628 m 128,-1,55
 297 602 297 602 315 583.5 c 128,-1,56
 333 565 333 565 359 565 c 128,-1,57
 385 565 385 565 403 583.5 c 128,-1,58
 421 602 421 602 421 628 c 128,-1,59
 421 654 421 654 402.5 672 c 128,-1,60
 384 690 384 690 359 690 c 0,61,62
 333 690 333 690 315 672 c 128,-1,54
 297 654 297 654 297 628 c 128,-1,55
EndSplineSet
EndChar
StartChar: ae
Encoding: 230 230 146
Width: 602
Flags: W
LayerCount: 2
Back
Fore
SplineSet
248 141 m 1,0,-1
 254 197 l 1,1,-1
 163 197 l 2,2,3
 129 197 129 197 107 177.5 c 128,-1,4
 85 158 85 158 85 130 c 0,5,6
 85 108 85 108 98 96 c 128,-1,7
 111 84 111 84 134 84 c 0,8,9
 184 84 184 84 248 141 c 1,0,-1
366 271 m 1,10,-1
 476 271 l 1,11,12
 479 293 479 293 479 306 c 0,13,14
 479 368 479 368 441 368 c 0,15,16
 396 368 396 368 366 271 c 1,10,-1
258 64 m 1,17,18
 184 -11 184 -11 97 -11 c 0,19,20
 40 -11 40 -11 6.5 21.5 c 128,-1,21
 -27 54 -27 54 -27 108 c 0,22,23
 -27 183 -27 183 22.5 227 c 128,-1,24
 72 271 72 271 162 271 c 2,25,-1
 262 271 l 1,26,27
 267 303 267 303 267 319 c 0,28,29
 267 370 267 370 213 370 c 0,30,31
 188 370 188 370 146.5 351.5 c 128,-1,32
 105 333 105 333 88 333 c 0,33,34
 52 333 52 333 52 368 c 0,35,36
 52 407 52 407 103.5 435.5 c 128,-1,37
 155 464 155 464 224 464 c 0,38,39
 302 464 302 464 336 404 c 1,40,41
 395 462 395 462 466 462 c 0,42,43
 587 462 587 462 587 308 c 0,44,45
 587 241 587 241 572.5 219 c 128,-1,46
 558 197 558 197 519 197 c 2,47,-1
 351 197 l 1,48,49
 345 153 345 153 345 143 c 0,50,51
 345 120 345 120 361 106 c 128,-1,52
 377 92 377 92 405 92 c 0,53,54
 437 92 437 92 474.5 118 c 128,-1,55
 512 144 512 144 524 144 c 0,56,57
 538 144 538 144 547 135 c 128,-1,58
 556 126 556 126 556 111 c 0,59,60
 556 71 556 71 505 29.5 c 128,-1,61
 454 -12 454 -12 387 -12 c 0,62,63
 294 -12 294 -12 258 64 c 1,17,18
EndSplineSet
EndChar
StartChar: eth
Encoding: 240 240 219
Width: 602
Flags: W
LayerCount: 2
Back
Fore
SplineSet
311 356 m 0,0,1
 256 356 256 356 213 310.5 c 128,-1,2
 170 265 170 265 170 205 c 0,3,4
 170 150 170 150 197.5 118.5 c 128,-1,5
 225 87 225 87 274 87 c 0,6,7
 331 87 331 87 371 133.5 c 128,-1,8
 411 180 411 180 411 248 c 0,9,10
 411 297 411 297 383.5 326.5 c 128,-1,11
 356 356 356 356 311 356 c 0,0,1
348 449 m 1,12,13
 318 492 318 492 293 515 c 1,14,-1
 197 478 l 2,15,16
 176 470 176 470 168 470 c 0,17,18
 157 470 157 470 149.5 477.5 c 128,-1,19
 142 485 142 485 142 495 c 0,20,21
 142 516 142 516 175 528 c 2,22,-1
 252 556 l 1,23,24
 235 571 235 571 215 587 c 128,-1,25
 195 603 195 603 187 610.5 c 128,-1,26
 179 618 179 618 179 622 c 0,27,28
 179 637 179 637 220 637 c 0,29,30
 269 637 269 637 335 588 c 1,31,-1
 419 622 l 2,32,33
 440 630 440 630 450 630 c 128,-1,34
 460 630 460 630 467 622.5 c 128,-1,35
 474 615 474 615 474 605 c 0,36,37
 474 593 474 593 467 587 c 128,-1,38
 460 581 460 581 441 573 c 2,39,-1
 384 549 l 1,40,41
 545 396 545 396 545 261 c 0,42,43
 545 148 545 148 463 68 c 128,-1,44
 381 -12 381 -12 259 -12 c 0,45,46
 159 -12 159 -12 99 43 c 128,-1,47
 39 98 39 98 39 188 c 0,48,49
 39 296 39 296 117.5 374.5 c 128,-1,50
 196 453 196 453 300 453 c 0,51,52
 314 453 314 453 348 449 c 1,12,13
EndSplineSet
EndChar
StartChar: divide
Encoding: 247 247 218
Width: 602
Flags: W
LayerCount: 2
Back
Fore
SplineSet
301 86 m 128,-1,1
 272 86 272 86 252.5 106 c 128,-1,2
 233 126 233 126 233 154 c 0,3,4
 233 183 233 183 253 203 c 128,-1,5
 273 223 273 223 301 223 c 0,6,7
 330 223 330 223 349.5 203 c 128,-1,8
 369 183 369 183 369 154 c 128,-1,9
 369 125 369 125 349.5 105.5 c 128,-1,0
 330 86 330 86 301 86 c 128,-1,1
82 358 m 2,10,-1
 519 358 l 2,11,12
 564 358 564 358 564 308 c 0,13,14
 564 285 564 285 552 271.5 c 128,-1,15
 540 258 540 258 519 258 c 2,16,-1
 82 258 l 2,17,18
 61 258 61 258 49 271.5 c 128,-1,19
 37 285 37 285 37 308 c 0,20,21
 37 358 37 358 82 358 c 2,10,-1
301 393 m 128,-1,23
 272 393 272 393 252.5 412.5 c 128,-1,24
 233 432 233 432 233 461 c 128,-1,25
 233 490 233 490 253 510 c 128,-1,26
 273 530 273 530 301 530 c 0,27,28
 330 530 330 530 349.5 510 c 128,-1,29
 369 490 369 490 369 461 c 128,-1,30
 369 432 369 432 349.5 412.5 c 128,-1,22
 330 393 330 393 301 393 c 128,-1,23
EndSplineSet
EndChar
StartChar: oslash
Encoding: 248 248 149
Width: 602
Flags: W
LayerCount: 2
Back
Fore
SplineSet
69 77 m 1,0,1
 39 127 39 127 39 188 c 0,2,3
 39 303 39 303 121.5 383.5 c 128,-1,4
 204 464 204 464 325 464 c 0,5,6
 402 464 402 464 466 424 c 1,7,-1
 533 480 l 2,8,9
 545 489 545 489 555 489 c 0,10,11
 567 489 567 489 579.5 475.5 c 128,-1,12
 592 462 592 462 592 451 c 128,-1,13
 592 440 592 440 578 428 c 2,14,-1
 516 372 l 1,15,16
 545 323 545 323 545 263 c 0,17,18
 545 147 545 147 463.5 67.5 c 128,-1,19
 382 -12 382 -12 253 -12 c 0,20,21
 180 -12 180 -12 119 26 c 1,22,-1
 30 -50 l 2,23,24
 20 -59 20 -59 8 -59 c 128,-1,25
 -4 -59 -4 -59 -16.5 -45.5 c 128,-1,26
 -29 -32 -29 -32 -29 -21 c 128,-1,27
 -29 -10 -29 -10 -15 2 c 2,28,-1
 69 77 l 1,0,1
175 163 m 1,29,-1
 379 341 l 1,30,31
 352 364 352 364 314 364 c 0,32,33
 254 364 254 364 212.5 315.5 c 128,-1,34
 171 267 171 267 171 200 c 0,35,36
 171 191 171 191 175 163 c 1,29,-1
410 287 m 1,37,-1
 206 110 l 1,38,39
 237 87 237 87 274 87 c 0,40,41
 332 87 332 87 373 135.5 c 128,-1,42
 414 184 414 184 414 251 c 0,43,44
 414 259 414 259 410 287 c 1,37,-1
EndSplineSet
EndChar
StartChar: thorn
Encoding: 254 254 226
Width: 602
Flags: W
LayerCount: 2
Back
Fore
SplineSet
328 357 m 0,0,1
 274 357 274 357 235.5 312.5 c 128,-1,2
 197 268 197 268 197 203 c 0,3,4
 197 156 197 156 222.5 129 c 128,-1,5
 248 102 248 102 291 102 c 0,6,7
 345 102 345 102 382.5 147 c 128,-1,8
 420 192 420 192 420 260 c 0,9,10
 420 302 420 302 394.5 329.5 c 128,-1,11
 369 357 369 357 328 357 c 0,0,1
140 -87 m 1,12,-1
 193 -87 l 2,13,14
 243 -87 243 -87 243 -131 c 0,15,16
 243 -194 243 -194 171 -194 c 2,17,-1
 -31 -194 l 2,18,19
 -78 -194 -78 -194 -78 -150 c 0,20,21
 -78 -87 -78 -87 -4 -87 c 2,22,-1
 21 -87 l 1,23,-1
 153 530 l 1,24,-1
 140 530 l 2,25,26
 122 530 122 530 110 542.5 c 128,-1,27
 98 555 98 555 98 575 c 0,28,29
 98 639 98 639 170 639 c 2,30,-1
 261 639 l 2,31,32
 282 639 282 639 282 619 c 0,33,34
 282 618 282 618 281.5 616 c 128,-1,35
 281 614 281 614 281 613 c 2,36,-1
 233 391 l 1,37,38
 253 424 253 424 290.5 443.5 c 128,-1,39
 328 463 328 463 373 463 c 0,40,41
 451 463 451 463 500 410.5 c 128,-1,42
 549 358 549 358 549 268 c 0,43,44
 549 154 549 154 477.5 78.5 c 128,-1,45
 406 3 406 3 307 3 c 0,46,47
 222 3 222 3 171 53 c 1,48,-1
 140 -87 l 1,12,-1
EndSplineSet
EndChar
StartChar: dotlessi
Encoding: 305 305 147
Width: 602
Flags: W
LayerCount: 2
Back
Fore
SplineSet
431 108 m 2,0,1
 482 108 482 108 482 63 c 0,2,3
 482 0 482 0 408 0 c 2,4,-1
 95 0 l 2,5,6
 48 0 48 0 48 44 c 0,7,8
 48 108 48 108 122 108 c 2,9,-1
 214 108 l 1,10,-1
 263 343 l 1,11,-1
 203 343 l 2,12,13
 185 343 185 343 173 355.5 c 128,-1,14
 161 368 161 368 161 388 c 0,15,16
 161 451 161 451 233 451 c 2,17,-1
 381 451 l 2,18,19
 403 451 403 451 403 431 c 0,20,21
 403 430 403 430 402.5 428 c 128,-1,22
 402 426 402 426 402 425 c 2,23,-1
 334 108 l 1,24,-1
 431 108 l 2,0,1
EndSplineSet
EndChar
StartChar: Lslash
Encoding: 321 321 142
Width: 602
Flags: W
LayerCount: 2
Back
Fore
SplineSet
44 0 m 2,0,1
 -3 0 -3 0 -3 44 c 0,2,3
 -3 72 -3 72 14 90 c 128,-1,4
 31 108 31 108 56 108 c 2,5,-1
 91 108 l 1,6,-1
 108 197 l 1,7,-1
 60 169 l 2,8,9
 52 164 52 164 43 164 c 0,10,11
 31 164 31 164 23 174.5 c 128,-1,12
 15 185 15 185 15 201 c 0,13,14
 15 220 15 220 40 236 c 2,15,-1
 127 289 l 1,16,-1
 165 471 l 1,17,-1
 132 471 l 2,18,19
 114 471 114 471 102 482.5 c 128,-1,20
 90 494 90 494 90 515 c 0,21,22
 90 579 90 579 162 579 c 2,23,-1
 343 579 l 2,24,25
 391 579 391 579 391 534 c 0,26,27
 391 504 391 504 372.5 487.5 c 128,-1,28
 354 471 354 471 322 471 c 2,29,-1
 290 471 l 1,30,-1
 267 356 l 1,31,-1
 381 422 l 2,32,33
 390 428 390 428 398 428 c 0,34,35
 410 428 410 428 418 417.5 c 128,-1,36
 426 407 426 407 426 391 c 0,37,38
 426 371 426 371 401 355 c 2,39,-1
 247 262 l 1,40,-1
 215 108 l 1,41,-1
 429 108 l 1,42,-1
 436 150 l 2,43,44
 443 189 443 189 457 205 c 128,-1,45
 471 221 471 221 499 221 c 0,46,47
 543 221 543 221 543 178 c 0,48,49
 543 170 543 170 540 158 c 2,50,-1
 515 39 l 2,51,52
 510 17 510 17 500.5 8.5 c 128,-1,53
 491 0 491 0 470 0 c 2,54,-1
 44 0 l 2,0,1
EndSplineSet
EndChar
StartChar: lslash
Encoding: 322 322 148
Width: 602
Flags: W
LayerCount: 2
Back
Fore
SplineSet
390 417 m 1,0,-1
 461 462 l 2,1,2
 481 474 481 474 488 474 c 0,3,4
 499 474 499 474 508 462.5 c 128,-1,5
 517 451 517 451 517 435 c 0,6,7
 517 416 517 416 492 400 c 2,8,-1
 369 317 l 1,9,-1
 324 108 l 1,10,-1
 410 108 l 2,11,12
 443 108 443 108 457.5 98.5 c 128,-1,13
 472 89 472 89 472 63 c 0,14,15
 472 0 472 0 398 0 c 2,16,-1
 85 0 l 2,17,18
 38 0 38 0 38 44 c 0,19,20
 38 108 38 108 112 108 c 2,21,-1
 203 108 l 1,22,-1
 234 255 l 1,23,-1
 163 210 l 2,24,25
 143 198 143 198 135 198 c 0,26,27
 124 198 124 198 115.5 209 c 128,-1,28
 107 220 107 220 107 236 c 0,29,30
 107 256 107 256 132 272 c 2,31,-1
 255 355 l 1,32,-1
 293 530 l 1,33,-1
 232 530 l 2,34,35
 214 530 214 530 202.5 542 c 128,-1,36
 191 554 191 554 191 575 c 0,37,38
 191 639 191 639 263 639 c 2,39,-1
 411 639 l 2,40,41
 432 639 432 639 432 619 c 0,42,43
 432 618 432 618 431.5 616 c 128,-1,44
 431 614 431 614 431 613 c 2,45,-1
 390 417 l 1,0,-1
EndSplineSet
EndChar
StartChar: OE
Encoding: 338 338 144
Width: 602
Flags: W
LayerCount: 2
Back
Fore
SplineSet
219 0 m 2,0,1
 5 0 5 0 5 217 c 0,2,3
 5 300 5 300 38.5 379 c 128,-1,4
 72 458 72 458 125 507 c 0,5,6
 204 579 204 579 349 579 c 2,7,-1
 616 579 l 2,8,9
 652 579 652 579 652 554 c 0,10,11
 652 549 652 549 651 547 c 2,12,-1
 625 419 l 2,13,14
 619 390 619 390 608.5 376.5 c 128,-1,15
 598 363 598 363 575 363 c 0,16,17
 537 363 537 363 537 399 c 0,18,19
 537 413 537 413 540 428 c 2,20,-1
 549 471 l 1,21,-1
 410 471 l 1,22,-1
 384 348 l 1,23,-1
 418 348 l 1,24,25
 421 377 421 377 432 390 c 128,-1,26
 443 403 443 403 465 403 c 0,27,28
 501 403 501 403 501 365 c 0,29,30
 501 355 501 355 499 347 c 2,31,-1
 480 249 l 2,32,33
 475 221 475 221 466 209 c 128,-1,34
 457 197 457 197 434 197 c 0,35,36
 395 197 395 197 395 231 c 0,37,38
 395 233 395 233 399 253 c 1,39,-1
 365 253 l 1,40,-1
 334 108 l 1,41,-1
 472 108 l 1,42,-1
 480 150 l 2,43,44
 493 221 493 221 537 221 c 0,45,46
 556 221 556 221 564 213 c 128,-1,47
 572 205 572 205 572 184 c 0,48,49
 572 172 572 172 569 159 c 2,50,-1
 545 39 l 2,51,52
 537 0 537 0 500 0 c 2,53,-1
 219 0 l 2,0,1
233 106 m 1,54,-1
 311 476 l 1,55,56
 306 477 306 477 296 477 c 0,57,58
 225 477 225 477 173 401.5 c 128,-1,59
 121 326 121 326 121 222 c 0,60,61
 121 165 121 165 145.5 135 c 128,-1,62
 170 105 170 105 215 105 c 0,63,64
 227 105 227 105 233 106 c 1,54,-1
EndSplineSet
EndChar
StartChar: oe
Encoding: 339 339 150
Width: 602
Flags: W
LayerCount: 2
Back
Fore
SplineSet
366 271 m 1,0,-1
 476 271 l 1,1,2
 479 293 479 293 479 306 c 0,3,4
 479 368 479 368 441 368 c 0,5,6
 396 368 396 368 366 271 c 1,0,-1
260 62 m 1,7,8
 198 -8 198 -8 134 -8 c 128,-1,9
 70 -8 70 -8 32 37.5 c 128,-1,10
 -6 83 -6 83 -6 162 c 0,11,12
 -6 287 -6 287 59 375 c 128,-1,13
 124 463 124 463 207 463 c 0,14,15
 248 463 248 463 279.5 441 c 128,-1,16
 311 419 311 419 328 391 c 1,17,18
 385 462 385 462 466 462 c 0,19,20
 587 462 587 462 587 308 c 0,21,22
 587 241 587 241 572.5 219 c 128,-1,23
 558 197 558 197 519 197 c 2,24,-1
 351 197 l 1,25,26
 345 164 345 164 345 143 c 0,27,28
 345 120 345 120 361 106 c 128,-1,29
 377 92 377 92 405 92 c 0,30,31
 437 92 437 92 474.5 118 c 128,-1,32
 512 144 512 144 524 144 c 0,33,34
 538 144 538 144 547 135 c 128,-1,35
 556 126 556 126 556 111 c 0,36,37
 556 71 556 71 505 29.5 c 128,-1,38
 454 -12 454 -12 387 -12 c 0,39,40
 297 -12 297 -12 260 62 c 1,7,8
96 173 m 0,41,42
 96 134 96 134 112 112.5 c 128,-1,43
 128 91 128 91 156 91 c 0,44,45
 196 91 196 91 229 149.5 c 128,-1,46
 262 208 262 208 262 281 c 0,47,48
 262 320 262 320 246 341.5 c 128,-1,49
 230 363 230 363 202 363 c 0,50,51
 162 363 162 363 129 304.5 c 128,-1,52
 96 246 96 246 96 173 c 0,41,42
EndSplineSet
EndChar
StartChar: florin
Encoding: 402 402 103
Width: 602
Flags: W
LayerCount: 2
Back
Fore
SplineSet
252 316 m 1,0,-1
 181 315 l 2,1,2
 158 315 158 315 158 333 c 0,3,4
 158 334 158 334 158.5 335.5 c 128,-1,5
 159 337 159 337 159 338 c 2,6,-1
 170 375 l 2,7,8
 176 396 176 396 201 396 c 2,9,-1
 278 396 l 1,10,-1
 302 470 l 2,11,12
 330 557 330 557 385.5 594 c 128,-1,13
 441 631 441 631 537 631 c 0,14,15
 577 631 577 631 595 618.5 c 128,-1,16
 613 606 613 606 613 576 c 0,17,18
 613 524 613 524 544 524 c 2,19,-1
 519 524 l 2,20,21
 478 524 478 524 456.5 512.5 c 128,-1,22
 435 501 435 501 425 471 c 2,23,-1
 400 397 l 1,24,-1
 481 396 l 2,25,26
 503 396 503 396 503 378 c 1,27,-1
 502 376 l 2,28,29
 502 374 502 374 502 373 c 2,30,-1
 491 336 l 2,31,32
 485 315 485 315 460 315 c 2,33,-1
 374 316 l 1,34,-1
 278 22 l 2,35,36
 250 -65 250 -65 194.5 -102 c 128,-1,37
 139 -139 139 -139 43 -139 c 0,38,39
 3 -139 3 -139 -15 -126.5 c 128,-1,40
 -33 -114 -33 -114 -33 -84 c 0,41,42
 -33 -32 -33 -32 36 -32 c 2,43,-1
 62 -32 l 2,44,45
 103 -32 103 -32 124.5 -21 c 128,-1,46
 146 -10 146 -10 156 21 c 2,47,-1
 252 316 l 1,0,-1
EndSplineSet
EndChar
StartChar: circumflex
Encoding: 710 710 128
Width: 602
Flags: W
LayerCount: 2
Back
Fore
SplineSet
356 584 m 1,0,-1
 207 517 l 2,1,2
 190 510 190 510 184 510 c 0,3,4
 176 510 176 510 170 515.5 c 128,-1,5
 164 521 164 521 164 528 c 0,6,7
 164 532 164 532 165 535 c 128,-1,8
 166 538 166 538 169 541 c 128,-1,9
 172 544 172 544 174 545.5 c 128,-1,10
 176 547 176 547 181 550.5 c 128,-1,11
 186 554 186 554 189 556 c 2,12,-1
 330 653 l 2,13,14
 342 662 342 662 357 662 c 0,15,16
 376 662 376 662 390 648 c 2,17,-1
 484 555 l 2,18,19
 499 540 499 540 499 533 c 0,20,21
 499 512 499 512 476 512 c 0,22,23
 465 512 465 512 456 518 c 2,24,-1
 356 584 l 1,0,-1
EndSplineSet
EndChar
StartChar: caron
Encoding: 711 711 138
Width: 602
Flags: W
LayerCount: 2
Back
Fore
SplineSet
308 587 m 1,0,-1
 457 654 l 2,1,2
 474 661 474 661 479 661 c 0,3,4
 487 661 487 661 493 655.5 c 128,-1,5
 499 650 499 650 499 643 c 0,6,7
 499 639 499 639 498 636 c 128,-1,8
 497 633 497 633 494 630 c 128,-1,9
 491 627 491 627 489.5 625.5 c 128,-1,10
 488 624 488 624 482.5 620 c 128,-1,11
 477 616 477 616 475 615 c 2,12,-1
 334 518 l 2,13,14
 323 510 323 510 307 510 c 0,15,16
 286 510 286 510 273 523 c 2,17,-1
 179 616 l 2,18,19
 165 630 165 630 165 639 c 0,20,21
 165 659 165 659 187 659 c 0,22,23
 198 659 198 659 207 653 c 2,24,-1
 308 587 l 1,0,-1
EndSplineSet
EndChar
StartChar: breve
Encoding: 728 728 131
Width: 602
Flags: W
LayerCount: 2
Back
Fore
SplineSet
320 528 m 0,0,1
 246 528 246 528 202.5 557 c 128,-1,2
 159 586 159 586 159 633 c 0,3,4
 159 660 159 660 178 660 c 0,5,6
 185 660 185 660 190.5 655.5 c 128,-1,7
 196 651 196 651 203 642 c 128,-1,8
 210 633 210 633 213 630 c 0,9,10
 243 600 243 600 327 600 c 0,11,12
 419 600 419 600 458 622 c 0,13,14
 469 628 469 628 485.5 643 c 128,-1,15
 502 658 502 658 512 658 c 0,16,17
 527 658 527 658 527 641 c 0,18,19
 527 605 527 605 468 566.5 c 128,-1,20
 409 528 409 528 320 528 c 0,0,1
EndSplineSet
EndChar
StartChar: dotaccent
Encoding: 729 729 132
Width: 602
Flags: W
LayerCount: 2
Back
Fore
SplineSet
266 590 m 0,0,1
 266 616 266 616 286 635.5 c 128,-1,2
 306 655 306 655 332 655 c 0,3,4
 359 655 359 655 378.5 636 c 128,-1,5
 398 617 398 617 398 590 c 0,6,7
 398 562 398 562 379 542.5 c 128,-1,8
 360 523 360 523 332 523 c 128,-1,9
 304 523 304 523 285 542.5 c 128,-1,10
 266 562 266 562 266 590 c 0,0,1
EndSplineSet
EndChar
StartChar: ring
Encoding: 730 730 134
Width: 602
Flags: W
LayerCount: 2
Back
Fore
SplineSet
231 632 m 128,-1,1
 231 687 231 687 269.5 725.5 c 128,-1,2
 308 764 308 764 363 764 c 128,-1,3
 418 764 418 764 456.5 725.5 c 128,-1,4
 495 687 495 687 495 632 c 128,-1,5
 495 577 495 577 456.5 538.5 c 128,-1,6
 418 500 418 500 363 500 c 128,-1,7
 308 500 308 500 269.5 538.5 c 128,-1,0
 231 577 231 577 231 632 c 128,-1,1
301 633 m 128,-1,9
 301 607 301 607 319 588.5 c 128,-1,10
 337 570 337 570 363 570 c 128,-1,11
 389 570 389 570 407 588.5 c 128,-1,12
 425 607 425 607 425 633 c 0,13,14
 425 658 425 658 406.5 676.5 c 128,-1,15
 388 695 388 695 363 695 c 0,16,17
 337 695 337 695 319 677 c 128,-1,8
 301 659 301 659 301 633 c 128,-1,9
EndSplineSet
EndChar
StartChar: ogonek
Encoding: 731 731 137
Width: 602
Flags: W
LayerCount: 2
Back
Fore
SplineSet
378 14 m 1,0,1
 272 -63 272 -63 272 -127 c 0,2,3
 272 -167 272 -167 306 -167 c 0,4,5
 338 -167 338 -167 364 -130 c 1,6,-1
 387 -148 l 1,7,8
 368 -184 368 -184 334.5 -204.5 c 128,-1,9
 301 -225 301 -225 264 -225 c 0,10,11
 229 -225 229 -225 208.5 -206.5 c 128,-1,12
 188 -188 188 -188 188 -154 c 0,13,14
 188 -73 188 -73 352 14 c 1,15,-1
 378 14 l 1,0,1
EndSplineSet
EndChar
StartChar: tilde
Encoding: 732 732 129
Width: 602
Flags: W
LayerCount: 2
Back
Fore
SplineSet
283 634 m 0,0,1
 317 634 317 634 366.5 618.5 c 128,-1,2
 416 603 416 603 428 603 c 0,3,4
 448 603 448 603 472 620.5 c 128,-1,5
 496 638 496 638 502 638 c 128,-1,6
 508 638 508 638 513 633.5 c 128,-1,7
 518 629 518 629 518 624 c 0,8,9
 518 597 518 597 479 566.5 c 128,-1,10
 440 536 440 536 395 536 c 0,11,12
 362 536 362 536 313 551.5 c 128,-1,13
 264 567 264 567 251 567 c 0,14,15
 231 567 231 567 207 550 c 128,-1,16
 183 533 183 533 177 533 c 0,17,18
 161 533 161 533 161 547 c 0,19,20
 161 574 161 574 200 604 c 128,-1,21
 239 634 239 634 283 634 c 0,0,1
EndSplineSet
EndChar
StartChar: hungarumlaut
Encoding: 733 733 136
Width: 602
Flags: W
LayerCount: 2
Back
Fore
SplineSet
218 503 m 1,0,-1
 199 531 l 1,1,-1
 359 656 l 2,2,3
 370 664 370 664 377 664 c 0,4,5
 388 664 388 664 393 655 c 2,6,-1
 410 624 l 2,7,8
 413 620 413 620 413 614 c 0,9,10
 413 602 413 602 395 592 c 2,11,-1
 218 503 l 1,0,-1
380 503 m 1,12,-1
 361 531 l 1,13,-1
 521 656 l 2,14,15
 532 664 532 664 539 664 c 0,16,17
 550 664 550 664 555 655 c 2,18,-1
 573 624 l 2,19,20
 575 621 575 621 575 614 c 0,21,22
 575 602 575 602 557 592 c 2,23,-1
 380 503 l 1,12,-1
EndSplineSet
EndChar
StartChar: emdash
Encoding: 8212 8212 139
Width: 602
Flags: W
LayerCount: 2
Back
Fore
SplineSet
-9 179 m 2,0,1
 -18 179 -18 179 -24.5 185.5 c 128,-1,2
 -31 192 -31 192 -31 201 c 0,3,4
 -31 202 -31 202 -30.5 203.5 c 128,-1,5
 -30 205 -30 205 -30 206 c 2,6,-1
 -20 248 l 2,7,8
 -16 272 -16 272 1 272 c 2,9,-1
 611 272 l 2,10,11
 620 272 620 272 626.5 265.5 c 128,-1,12
 633 259 633 259 633 250 c 0,13,14
 633 249 633 249 632.5 247.5 c 128,-1,15
 632 246 632 246 632 245 c 2,16,-1
 623 203 l 2,17,18
 618 179 618 179 602 179 c 2,19,-1
 -9 179 l 2,0,1
EndSplineSet
EndChar
StartChar: quoteleft
Encoding: 8216 8216 67
Width: 602
Flags: W
LayerCount: 2
Back
Fore
SplineSet
437 550 m 2,0,-1
 341 341 l 2,1,2
 332 323 332 323 312 323 c 2,3,-1
 224 323 l 2,4,5
 213 323 213 323 213 334 c 0,6,7
 213 338 213 338 215 340 c 2,8,-1
 379 584 l 2,9,10
 388 597 388 597 400 597 c 0,11,12
 407 597 407 597 410 595 c 2,13,-1
 437 581 l 2,14,15
 445 577 445 577 445 569 c 0,16,17
 445 568 445 568 437 550 c 2,0,-1
EndSplineSet
EndChar
StartChar: quoteright
Encoding: 8217 8217 10
Width: 602
Flags: W
LayerCount: 2
Back
Fore
SplineSet
193 351 m 2,0,-1
 290 561 l 2,1,2
 298 579 298 579 319 579 c 2,3,-1
 406 579 l 2,4,5
 417 579 417 579 417 568 c 0,6,7
 417 564 417 564 415 562 c 2,8,-1
 252 318 l 2,9,10
 243 305 243 305 230 305 c 0,11,12
 223 305 223 305 220 307 c 2,13,-1
 193 321 l 2,14,15
 186 324 186 324 186 333 c 0,16,17
 186 336 186 336 193 351 c 2,0,-1
EndSplineSet
EndChar
StartChar: quotesinglbase
Encoding: 8218 8218 119
Width: 602
Flags: W
LayerCount: 2
Back
Fore
SplineSet
168 -62 m 2,0,-1
 265 148 l 2,1,2
 273 166 273 166 294 166 c 2,3,-1
 381 166 l 2,4,5
 392 166 392 166 392 155 c 0,6,7
 392 151 392 151 390 149 c 2,8,-1
 227 -95 l 2,9,10
 218 -108 218 -108 205 -108 c 0,11,12
 198 -108 198 -108 195 -106 c 2,13,-1
 168 -92 l 2,14,15
 161 -88 161 -88 161 -80 c 0,16,17
 161 -77 161 -77 168 -62 c 2,0,-1
EndSplineSet
EndChar
StartChar: quotedblleft
Encoding: 8220 8220 107
Width: 602
Flags: W
LayerCount: 2
Back
Fore
SplineSet
330 550 m 2,0,-1
 234 341 l 2,1,2
 225 323 225 323 205 323 c 2,3,-1
 117 323 l 2,4,5
 106 323 106 323 106 334 c 0,6,7
 106 338 106 338 108 340 c 2,8,-1
 272 584 l 2,9,10
 281 597 281 597 293 597 c 0,11,12
 300 597 300 597 303 595 c 2,13,-1
 330 581 l 2,14,15
 338 577 338 577 338 569 c 0,16,17
 338 568 338 568 330 550 c 2,0,-1
542 550 m 2,18,-1
 446 341 l 2,19,20
 437 323 437 323 417 323 c 2,21,-1
 329 323 l 2,22,23
 318 323 318 323 318 334 c 0,24,25
 318 338 318 338 320 340 c 2,26,-1
 484 584 l 2,27,28
 493 597 493 597 505 597 c 0,29,30
 512 597 512 597 515 595 c 2,31,-1
 542 581 l 2,32,33
 550 577 550 577 550 569 c 0,34,35
 550 568 550 568 542 550 c 2,18,-1
EndSplineSet
EndChar
StartChar: quotedblright
Encoding: 8221 8221 121
Width: 602
Flags: W
LayerCount: 2
Back
Fore
SplineSet
122 351 m 2,0,-1
 219 561 l 2,1,2
 227 579 227 579 248 579 c 2,3,-1
 335 579 l 2,4,5
 346 579 346 579 346 568 c 0,6,7
 346 564 346 564 344 562 c 2,8,-1
 181 318 l 2,9,10
 172 305 172 305 159 305 c 0,11,12
 152 305 152 305 149 307 c 2,13,-1
 122 321 l 2,14,15
 115 324 115 324 115 333 c 0,16,17
 115 336 115 336 122 351 c 2,0,-1
334 351 m 2,18,-1
 431 561 l 2,19,20
 439 579 439 579 460 579 c 2,21,-1
 547 579 l 2,22,23
 558 579 558 579 558 568 c 0,24,25
 558 564 558 564 556 562 c 2,26,-1
 393 318 l 2,27,28
 384 305 384 305 371 305 c 0,29,30
 364 305 364 305 361 307 c 2,31,-1
 334 321 l 2,32,33
 327 324 327 324 327 333 c 0,34,35
 327 336 327 336 334 351 c 2,18,-1
EndSplineSet
EndChar
StartChar: quotedblbase
Encoding: 8222 8222 120
Width: 602
Flags: W
LayerCount: 2
Back
Fore
SplineSet
261 -62 m 2,0,-1
 357 148 l 2,1,2
 365 166 365 166 387 166 c 2,3,-1
 474 166 l 2,4,5
 485 166 485 166 485 155 c 0,6,7
 485 151 485 151 483 149 c 2,8,-1
 319 -95 l 2,9,10
 310 -108 310 -108 298 -108 c 0,11,12
 291 -108 291 -108 288 -106 c 2,13,-1
 261 -92 l 2,14,15
 254 -88 254 -88 254 -80 c 0,16,17
 254 -77 254 -77 261 -62 c 2,0,-1
49 -62 m 2,18,-1
 145 148 l 2,19,20
 153 166 153 166 175 166 c 2,21,-1
 262 166 l 2,22,23
 273 166 273 166 273 155 c 0,24,25
 273 151 273 151 271 149 c 2,26,-1
 107 -95 l 2,27,28
 98 -108 98 -108 86 -108 c 0,29,30
 79 -108 79 -108 76 -106 c 2,31,-1
 49 -92 l 2,32,33
 42 -88 42 -88 42 -80 c 0,34,35
 42 -77 42 -77 49 -62 c 2,18,-1
EndSplineSet
EndChar
StartChar: dagger
Encoding: 8224 8224 114
Width: 602
Flags: W
LayerCount: 2
Back
Fore
SplineSet
310 68 m 2,0,1
 300 22 300 22 284.5 3.5 c 128,-1,2
 269 -15 269 -15 237 -15 c 0,3,4
 186 -15 186 -15 186 29 c 0,5,6
 186 42 186 42 190 59 c 2,7,-1
 250 345 l 1,8,-1
 183 345 l 2,9,10
 166 345 166 345 154.5 357 c 128,-1,11
 143 369 143 369 143 389 c 0,12,13
 143 449 143 449 213 449 c 2,14,-1
 273 449 l 1,15,-1
 286 512 l 2,16,17
 296 558 296 558 311.5 576.5 c 128,-1,18
 327 595 327 595 359 595 c 0,19,20
 384 595 384 595 397.5 583 c 128,-1,21
 411 571 411 571 411 551 c 0,22,23
 411 543 411 543 406 521 c 2,24,-1
 391 449 l 1,25,-1
 463 449 l 2,26,27
 503 449 503 449 503 408 c 0,28,29
 503 378 503 378 485 361.5 c 128,-1,30
 467 345 467 345 433 345 c 2,31,-1
 369 345 l 1,32,-1
 310 68 l 2,0,1
EndSplineSet
EndChar
StartChar: daggerdbl
Encoding: 8225 8225 115
Width: 602
Flags: W
LayerCount: 2
Back
Fore
SplineSet
321 68 m 2,0,1
 311 22 311 22 295.5 3.5 c 128,-1,2
 280 -15 280 -15 248 -15 c 0,3,4
 197 -15 197 -15 197 29 c 0,5,6
 197 42 197 42 201 59 c 2,7,-1
 219 144 l 1,8,-1
 147 144 l 2,9,10
 107 144 107 144 107 185 c 0,11,12
 107 215 107 215 125 231.5 c 128,-1,13
 143 248 143 248 177 248 c 2,14,-1
 241 248 l 1,15,-1
 262 345 l 1,16,-1
 194 345 l 2,17,18
 177 345 177 345 165.5 357 c 128,-1,19
 154 369 154 369 154 389 c 0,20,21
 154 449 154 449 224 449 c 2,22,-1
 284 449 l 1,23,-1
 297 512 l 2,24,25
 307 558 307 558 322.5 576.5 c 128,-1,26
 338 595 338 595 370 595 c 0,27,28
 395 595 395 595 408.5 583 c 128,-1,29
 422 571 422 571 422 551 c 0,30,31
 422 538 422 538 418 521 c 2,32,-1
 402 449 l 1,33,-1
 474 449 l 2,34,35
 514 449 514 449 514 408 c 0,36,37
 514 378 514 378 496 361.5 c 128,-1,38
 478 345 478 345 444 345 c 2,39,-1
 380 345 l 1,40,-1
 360 248 l 1,41,-1
 427 248 l 2,42,43
 444 248 444 248 455.5 236 c 128,-1,44
 467 224 467 224 467 204 c 0,45,46
 467 144 467 144 397 144 c 2,47,-1
 337 144 l 1,48,-1
 321 68 l 2,0,1
EndSplineSet
EndChar
StartChar: ellipsis
Encoding: 8230 8230 123
Width: 602
Flags: W
LayerCount: 2
Back
Fore
SplineSet
-11 60 m 128,-1,1
 -11 90 -11 90 10.5 111.5 c 128,-1,2
 32 133 32 133 62 133 c 128,-1,3
 92 133 92 133 113 111.5 c 128,-1,4
 134 90 134 90 134 60 c 128,-1,5
 134 30 134 30 113 9 c 128,-1,6
 92 -12 92 -12 62 -12 c 128,-1,7
 32 -12 32 -12 10.5 9 c 128,-1,0
 -11 30 -11 30 -11 60 c 128,-1,1
191 60 m 128,-1,9
 191 90 191 90 212 111.5 c 128,-1,10
 233 133 233 133 263 133 c 128,-1,11
 293 133 293 133 314 111.5 c 128,-1,12
 335 90 335 90 335 60 c 128,-1,13
 335 30 335 30 314 9 c 128,-1,14
 293 -12 293 -12 263 -12 c 128,-1,15
 233 -12 233 -12 212 9 c 128,-1,8
 191 30 191 30 191 60 c 128,-1,9
391 60 m 128,-1,17
 391 90 391 90 412.5 111.5 c 128,-1,18
 434 133 434 133 464 133 c 128,-1,19
 494 133 494 133 515 111.5 c 128,-1,20
 536 90 536 90 536 60 c 128,-1,21
 536 30 536 30 515 9 c 128,-1,22
 494 -12 494 -12 464 -12 c 128,-1,23
 434 -12 434 -12 412.5 9 c 128,-1,16
 391 30 391 30 391 60 c 128,-1,17
EndSplineSet
EndChar
StartChar: perthousand
Encoding: 8240 8240 124
Width: 602
Flags: W
LayerCount: 2
Back
Fore
SplineSet
-44 499 m 128,-1,1
 -44 556 -44 556 -3.5 594 c 128,-1,2
 37 632 37 632 100 632 c 0,3,4
 162 632 162 632 202.5 594 c 128,-1,5
 243 556 243 556 243 499 c 128,-1,6
 243 442 243 442 203 404 c 128,-1,7
 163 366 163 366 100 366 c 128,-1,8
 37 366 37 366 -3.5 404 c 128,-1,0
 -44 442 -44 442 -44 499 c 128,-1,1
166 499 m 128,-1,10
 166 525 166 525 148 542 c 128,-1,11
 130 559 130 559 100 559 c 128,-1,12
 70 559 70 559 52 542 c 128,-1,13
 34 525 34 525 34 499 c 128,-1,14
 34 473 34 473 52 456.5 c 128,-1,15
 70 440 70 440 100 440 c 128,-1,16
 130 440 130 440 148 456.5 c 128,-1,9
 166 473 166 473 166 499 c 128,-1,10
-21 272 m 2,17,-1
 307 402 l 2,18,19
 314 405 314 405 320 405 c 0,20,21
 333 405 333 405 341.5 395.5 c 128,-1,22
 350 386 350 386 350 372 c 0,23,24
 350 353 350 353 330 345 c 2,25,-1
 2 214 l 2,26,27
 -5 211 -5 211 -11 211 c 0,28,29
 -24 211 -24 211 -32.5 221 c 128,-1,30
 -41 231 -41 231 -41 246 c 0,31,32
 -41 264 -41 264 -21 272 c 2,17,-1
69 117 m 128,-1,34
 69 174 69 174 109.5 212 c 128,-1,35
 150 250 150 250 212 250 c 0,36,37
 275 250 275 250 315.5 212 c 128,-1,38
 356 174 356 174 356 117 c 128,-1,39
 356 60 356 60 315.5 22 c 128,-1,40
 275 -16 275 -16 212 -16 c 128,-1,41
 149 -16 149 -16 109 22 c 128,-1,33
 69 60 69 60 69 117 c 128,-1,34
278 117 m 128,-1,43
 278 143 278 143 260 159.5 c 128,-1,44
 242 176 242 176 212 176 c 128,-1,45
 182 176 182 176 164.5 159.5 c 128,-1,46
 147 143 147 143 147 117 c 128,-1,47
 147 91 147 91 164.5 74.5 c 128,-1,48
 182 58 182 58 212 58 c 128,-1,49
 242 58 242 58 260 74.5 c 128,-1,42
 278 91 278 91 278 117 c 128,-1,43
377 117 m 128,-1,51
 377 174 377 174 417.5 212 c 128,-1,52
 458 250 458 250 521 250 c 0,53,54
 583 250 583 250 623.5 212 c 128,-1,55
 664 174 664 174 664 117 c 128,-1,56
 664 60 664 60 624 22 c 128,-1,57
 584 -16 584 -16 521 -16 c 128,-1,58
 458 -16 458 -16 417.5 22 c 128,-1,50
 377 60 377 60 377 117 c 128,-1,51
586 117 m 128,-1,60
 586 143 586 143 568.5 159.5 c 128,-1,61
 551 176 551 176 521 176 c 128,-1,62
 491 176 491 176 473 159.5 c 128,-1,63
 455 143 455 143 455 117 c 128,-1,64
 455 91 455 91 473 74.5 c 128,-1,65
 491 58 491 58 521 58 c 128,-1,66
 551 58 551 58 568.5 74.5 c 128,-1,59
 586 91 586 91 586 117 c 128,-1,60
EndSplineSet
EndChar
StartChar: guilsinglleft
Encoding: 8249 8249 109
Width: 602
Flags: W
LayerCount: 2
Back
Fore
SplineSet
310 225 m 1,0,-1
 357 87 l 2,1,2
 359 82 359 82 359 74 c 0,3,4
 359 58 359 58 348 47 c 128,-1,5
 337 36 337 36 320 36 c 0,6,7
 294 36 294 36 287 56 c 2,8,-1
 226 213 l 2,9,10
 220 231 220 231 220 234 c 0,11,12
 220 241 220 241 230 258 c 2,13,-1
 322 394 l 2,14,15
 332 408 332 408 351 408 c 0,16,17
 366 408 366 408 378 397 c 128,-1,18
 390 386 390 386 390 371 c 0,19,20
 390 358 390 358 385 350 c 2,21,-1
 310 225 l 1,0,-1
EndSplineSet
EndChar
StartChar: guilsinglright
Encoding: 8250 8250 110
Width: 602
Flags: W
LayerCount: 2
Back
Fore
SplineSet
300 222 m 1,0,-1
 253 360 l 2,1,2
 251 368 251 368 251 373 c 0,3,4
 251 389 251 389 262.5 399.5 c 128,-1,5
 274 410 274 410 291 410 c 0,6,7
 317 410 317 410 324 390 c 2,8,-1
 385 234 l 2,9,10
 390 219 390 219 390 213 c 0,11,12
 390 203 390 203 381 188 c 2,13,-1
 289 52 l 2,14,15
 279 38 279 38 260 38 c 0,16,17
 245 38 245 38 232.5 49 c 128,-1,18
 220 60 220 60 220 75 c 0,19,20
 220 87 220 87 226 96 c 2,21,-1
 300 222 l 1,0,-1
EndSplineSet
EndChar
StartChar: minus
Encoding: 8722 8722 212
Width: 602
Flags: W
LayerCount: 2
Back
Fore
SplineSet
90 257 m 2,0,1
 66 257 66 257 51 271 c 128,-1,2
 36 285 36 285 36 308 c 128,-1,3
 36 331 36 331 51 345 c 128,-1,4
 66 359 66 359 90 359 c 2,5,-1
 512 359 l 2,6,7
 536 359 536 359 551 345 c 128,-1,8
 566 331 566 331 566 308 c 128,-1,9
 566 285 566 285 551 271 c 128,-1,10
 536 257 536 257 512 257 c 2,11,-1
 90 257 l 2,0,1
EndSplineSet
EndChar
StartChar: fi
Encoding: 64257 64257 111
Width: 602
Flags: W
LayerCount: 2
Back
Fore
SplineSet
536 451 m 2,0,1
 557 451 557 451 557 431 c 0,2,3
 557 430 557 430 556.5 428 c 128,-1,4
 556 426 556 426 556 425 c 2,5,-1
 486 108 l 1,6,7
 536 108 536 108 536 63 c 0,8,9
 536 0 536 0 464 0 c 2,10,-1
 343 0 l 2,11,12
 295 0 295 0 295 44 c 0,13,14
 295 74 295 74 313 91 c 128,-1,15
 331 108 331 108 364 108 c 2,16,-1
 369 108 l 1,17,-1
 417 343 l 1,18,-1
 404 343 l 2,19,20
 386 343 386 343 374.5 355 c 128,-1,21
 363 367 363 367 363 388 c 0,22,23
 363 451 363 451 435 451 c 2,24,-1
 536 451 l 2,0,1
125 451 m 1,25,26
 158 638 158 638 317 638 c 0,27,28
 416 638 416 638 416 580 c 0,29,30
 416 560 416 560 401.5 547 c 128,-1,31
 387 534 387 534 364 534 c 0,32,33
 355 534 355 534 341.5 535 c 128,-1,34
 328 536 328 536 323 536 c 0,35,36
 288 536 288 536 271.5 517.5 c 128,-1,37
 255 499 255 499 242 451 c 1,38,-1
 253 451 l 2,39,40
 282 451 282 451 294.5 441 c 128,-1,41
 307 431 307 431 307 407 c 0,42,43
 307 344 307 344 233 344 c 2,44,-1
 219 344 l 1,45,-1
 171 108 l 1,46,-1
 182 108 l 2,47,48
 235 108 235 108 235 63 c 0,49,50
 235 0 235 0 163 0 c 2,51,-1
 27 0 l 2,52,53
 -21 0 -21 0 -21 44 c 0,54,55
 -21 74 -21 74 -3 91 c 128,-1,56
 15 108 15 108 48 108 c 2,57,-1
 53 108 l 1,58,-1
 101 343 l 1,59,-1
 88 343 l 2,60,61
 70 343 70 343 58.5 355 c 128,-1,62
 47 367 47 367 47 388 c 0,63,64
 47 416 47 416 64 433.5 c 128,-1,65
 81 451 81 451 108 451 c 2,66,-1
 125 451 l 1,25,26
514 519 m 0,67,68
 482 519 482 519 471.5 523.5 c 128,-1,69
 461 528 461 528 461 545 c 0,70,71
 461 592 461 592 484 641 c 0,72,73
 492 660 492 660 504 666 c 128,-1,74
 516 672 516 672 544 672 c 0,75,76
 576 672 576 672 585 665.5 c 128,-1,77
 594 659 594 659 594 633 c 0,78,79
 594 591 594 591 575 549 c 0,80,81
 566 529 566 529 555 524 c 128,-1,82
 544 519 544 519 514 519 c 0,67,68
EndSplineSet
EndChar
StartChar: fl
Encoding: 64258 64258 112
Width: 602
Flags: W
LayerCount: 2
Back
Fore
SplineSet
125 451 m 1,0,1
 143 547 143 547 192.5 593 c 128,-1,2
 242 639 242 639 329 639 c 2,3,-1
 577 639 l 2,4,5
 598 639 598 639 598 619 c 0,6,7
 598 618 598 618 597.5 616 c 128,-1,8
 597 614 597 614 597 613 c 2,9,-1
 486 108 l 1,10,11
 536 108 536 108 536 63 c 0,12,13
 536 0 536 0 464 0 c 2,14,-1
 343 0 l 2,15,16
 295 0 295 0 295 44 c 0,17,18
 295 73 295 73 312.5 90.5 c 128,-1,19
 330 108 330 108 362 108 c 2,20,-1
 369 108 l 1,21,-1
 459 530 l 1,22,-1
 349 530 l 2,23,24
 325 530 325 530 314.5 529.5 c 128,-1,25
 304 529 304 529 290 525 c 128,-1,26
 276 521 276 521 269 512.5 c 128,-1,27
 262 504 262 504 255 489.5 c 128,-1,28
 248 475 248 475 242 451 c 1,29,-1
 253 451 l 2,30,31
 282 451 282 451 294.5 441 c 128,-1,32
 307 431 307 431 307 407 c 0,33,34
 307 344 307 344 233 344 c 2,35,-1
 219 344 l 1,36,-1
 170 108 l 1,37,38
 220 108 220 108 220 63 c 0,39,40
 220 0 220 0 148 0 c 2,41,-1
 27 0 l 2,42,43
 -21 0 -21 0 -21 44 c 0,44,45
 -21 74 -21 74 -3 91 c 128,-1,46
 15 108 15 108 48 108 c 2,47,-1
 53 108 l 1,48,-1
 101 343 l 1,49,-1
 88 343 l 2,50,51
 70 343 70 343 58.5 355 c 128,-1,52
 47 367 47 367 47 388 c 0,53,54
 47 416 47 416 64 433.5 c 128,-1,55
 81 451 81 451 108 451 c 2,56,-1
 125 451 l 1,0,1
EndSplineSet
EndChar
